<?xml version="1.0" encoding="UTF-8" standalone="no"?>
<svg width="27px" height="26px" viewBox="0 0 27 26" version="1.1" xmlns="http://www.w3.org/2000/svg" xmlns:xlink="http://www.w3.org/1999/xlink" xmlns:sketch="http://www.bohemiancoding.com/sketch/ns">
    <!-- Generator: Sketch 3.4.3 (16044) - http://www.bohemiancoding.com/sketch -->
    <title>Slice 1</title>
    <desc>Created with Sketch.</desc>
    <defs></defs>
    <g id="Page-1" stroke="none" stroke-width="1" fill="none" fill-rule="evenodd" sketch:type="MSPage">
        <g id="Capa_1" sketch:type="MSLayerGroup" transform="translate(1.000000, 0.000000)" fill="#ffffff">
            <g id="banknote" sketch:type="MSShapeGroup">
                <path d="M24.7512121,8.42559184 L16.8724242,0.466408163 C16.4816364,0.0716326531 15.9151515,-0.086755102 15.3786061,0.0469591837 C15.0957576,0.117 14.8428485,0.264244898 14.6427273,0.466408163 C14.4638788,0.647081633 14.3291515,0.870734694 14.2519394,1.12065306 C13.8950303,2.28985714 13.2781212,3.3062449 12.3649697,4.22791837 C11.1453333,5.45920408 9.5569697,6.39202041 7.87642424,7.37816327 C6.09266667,8.42240816 4.24981818,9.50485714 2.73945455,11.0298367 C1.456,12.3279796 0.582242424,13.7717755 0.0701212121,15.4479796 C-0.102424242,16.0138776 0.0480606061,16.6259388 0.460909091,17.0445918 L8.33969697,25.0037755 C8.73048485,25.398551 9.2969697,25.5569388 9.83351515,25.4232245 C10.1163636,25.3515918 10.3692727,25.2059388 10.5693939,25.0037755 C10.7482424,24.823102 10.8829697,24.599449 10.9601818,24.3479388 C11.3178788,23.1787347 11.9347879,22.1623469 12.8487273,21.2406735 C14.0675758,20.0093878 15.6551515,19.0781633 17.3372727,18.0928163 C19.1194545,17.0469796 20.9630909,15.9645306 22.4726667,14.439551 C23.7561212,13.143 24.6298788,11.6976122 25.1427879,10.0214082 C25.3145455,9.45630612 25.1632727,8.84185714 24.7512121,8.42559184 L24.7512121,8.42559184 Z M9.45454545,23.877551 C6.84509091,21.2414694 4.18521212,18.5536531 1.57575758,15.9183673 C3.81490909,8.59512245 13.52,8.91508163 15.7575758,1.59183673 C18.3670303,4.22712245 21.027697,6.91493878 23.6379394,9.55102041 C21.398,16.8726735 11.6929091,16.5543061 9.45454545,23.877551 L9.45454545,23.877551 Z" id="Shape"></path>
                <path d="M15.4124848,11.8591837 C15.1556364,11.641898 14.8972121,11.4938571 14.6372121,11.4206327 C14.3787879,11.3474082 14.1203636,11.3179592 13.8587879,11.3370612 C13.6003636,11.3569592 13.3356364,11.4166531 13.0709091,11.5193265 C12.8061818,11.6235918 12.5398788,11.7366122 12.272,11.8679388 C11.8489091,11.3768571 11.4258182,10.8913469 11.0027273,10.4408571 C11.1933939,10.266551 11.3785455,10.1782041 11.5566061,10.1718367 C11.7354545,10.1638776 11.9072121,10.1829796 12.070303,10.2243673 C12.2365455,10.266551 12.3886061,10.3023673 12.5288485,10.3302245 C12.6706667,10.3580816 12.7935758,10.3270408 12.9015152,10.2355102 C13.0157576,10.1360204 13.0787879,10.0070816 13.0874545,9.85187755 C13.0953333,9.69508163 13.0370303,9.54226531 12.9070303,9.39342857 C12.7407879,9.20081633 12.5406667,9.08381633 12.3003636,9.04083673 C12.0632121,8.99865306 11.8205455,9.00183673 11.5676364,9.05755102 C11.3186667,9.11485714 11.0815152,9.20957143 10.8569697,9.34328571 C10.6324242,9.477 10.452,9.61389796 10.3180606,9.74761224 C10.2668485,9.69826531 10.2156364,9.64971429 10.1644242,9.60116327 C10.107697,9.54863265 10.0367879,9.51997959 9.95169697,9.52157143 C9.86581818,9.52157143 9.79490909,9.55897959 9.73660606,9.62742857 C9.67987879,9.69428571 9.65387879,9.77228571 9.66412121,9.85426531 C9.672,9.93942857 9.70587879,10.0046939 9.76418182,10.0548367 C9.81539394,10.0986122 9.86660606,10.1415918 9.91781818,10.1869592 C9.71612121,10.432898 9.54987879,10.7043061 9.41909091,10.9908367 C9.28672727,11.2781633 9.20793939,11.563102 9.17878788,11.8392857 C9.14806061,12.1178571 9.17721212,12.372551 9.26151515,12.6089388 C9.34581818,12.8469184 9.50181818,13.0490816 9.72951515,13.240102 C10.1006061,13.5513061 10.5370909,13.6834286 11.043697,13.6539796 C11.5487273,13.6229388 12.0931515,13.4709184 12.6785455,13.1533469 C13.1433939,13.6961633 13.6098182,14.235 14.0754545,14.7356327 C13.8784848,14.9035714 13.7059394,14.9998776 13.5538788,15.0309184 C13.4018182,15.063551 13.266303,15.0603673 13.1433939,15.0229592 C13.0204848,14.9839592 12.9062424,14.9282449 12.8014545,14.8566122 C12.6966667,14.7833878 12.5934545,14.7213061 12.4902424,14.6703673 C12.3886061,14.6194286 12.2838182,14.5907755 12.1766667,14.5891837 C12.0695152,14.5875918 11.9552727,14.6401224 11.8292121,14.7491633 C11.7,14.8629796 11.6353939,14.995102 11.6353939,15.1439388 C11.6353939,15.2919796 11.7031515,15.4424082 11.8355152,15.5944286 C11.9694545,15.746449 12.1435758,15.8745918 12.3539394,15.9756735 C12.564303,16.0767551 12.8022424,16.1404286 13.0638182,16.1579388 C13.3253939,16.1762449 13.6011515,16.136449 13.8918788,16.0274082 C14.1841818,15.9199592 14.4733333,15.7257551 14.7585455,15.4368367 C14.8956364,15.5721429 15.034303,15.7010816 15.1721818,15.8252449 C15.2304848,15.8761837 15.3013939,15.9016531 15.3872727,15.8952857 C15.47,15.892102 15.5424848,15.853102 15.6,15.7830612 C15.658303,15.7114286 15.6827273,15.6326327 15.6740606,15.5498571 C15.6661818,15.4662857 15.632303,15.4018163 15.5755758,15.3556531 C15.4369091,15.2434286 15.2982424,15.1256327 15.1603636,15.0014694 C15.3959394,14.7093673 15.5850303,14.4013469 15.7252727,14.0965102 C15.8655152,13.7900816 15.9482424,13.4947959 15.9758182,13.221 C16.0033939,12.9456122 15.9710909,12.6972857 15.8820606,12.4720408 C15.7938182,12.2436122 15.6370303,12.0478163 15.4124848,11.8591837 L15.4124848,11.8591837 Z M11.0074545,12.3988163 C10.7844848,12.4083673 10.5898788,12.333551 10.419697,12.1672041 C10.3472121,12.0971633 10.2967879,12.012 10.2660606,11.9109184 C10.2337576,11.8098367 10.2227273,11.6992041 10.2353333,11.5782245 C10.2463636,11.4588367 10.2818182,11.3338776 10.3432727,11.2081224 C10.4015758,11.0823673 10.4882424,10.9566122 10.5985455,10.8348367 C10.998,11.2359796 11.3966667,11.6761224 11.7961212,12.1313878 C11.4935758,12.2993265 11.2304242,12.3892653 11.0074545,12.3988163 L11.0074545,12.3988163 Z M14.7238788,13.9922449 C14.6529697,14.1243673 14.5718182,14.2421633 14.4764848,14.3448367 C14.0344848,13.8943469 13.5932727,13.3992857 13.1528485,12.8914898 C13.2655152,12.840551 13.383697,12.7872245 13.5113333,12.733102 C13.6389697,12.6789796 13.7666061,12.6431633 13.8942424,12.6208776 C14.0250303,12.6009796 14.1542424,12.606551 14.2834545,12.6375918 C14.4110909,12.6702245 14.5324242,12.7402653 14.6450909,12.850898 C14.7561818,12.9631224 14.826303,13.0793265 14.8546667,13.2050816 C14.8853939,13.3324286 14.8869697,13.4613673 14.865697,13.5934898 C14.8428485,13.7264082 14.7963636,13.8585306 14.7238788,13.9922449 L14.7238788,13.9922449 Z" id="Shape"></path>
                <path d="M11.5952121,17.6534694 L11.5936364,17.6534694 C11.1012121,18.0355102 10.6206061,18.4382449 10.1754545,18.8895306 C9.74763636,19.3217143 9.36078788,19.7769796 9.02436364,20.2417959 L8.48545455,20.9851837 L8.4870303,20.9867755 C8.38854545,21.1419796 8.40509091,21.3505102 8.5390303,21.4858163 C8.69266667,21.6410204 8.944,21.6410204 9.09842424,21.4858163 C9.12206061,21.4611429 9.1409697,21.4348776 9.15672727,21.4062245 L9.66018182,20.7097959 C9.97218182,20.2792041 10.3330303,19.8549796 10.7324848,19.4522449 C11.1744848,19.0057347 11.5841818,18.661102 12.0829091,18.2782653 L12.0813333,18.2766735 C12.0955152,18.2655306 12.1089091,18.2567755 12.1215152,18.2440408 C12.2759394,18.0888367 12.2759394,17.8349388 12.1215152,17.6797347 C11.9789091,17.5332857 11.7504242,17.5269184 11.5952121,17.6534694 L11.5952121,17.6534694 Z" id="Shape"></path>
                <path d="M14.4796364,6.1405102 C14.0675758,6.55677551 13.6208485,6.93165306 13.1575758,7.28902041 C13.1252727,7.30732653 13.0929697,7.32802041 13.0653939,7.35746939 C12.9101818,7.51426531 12.9101818,7.7697551 13.0653939,7.92655102 C13.2158788,8.08016327 13.4593333,8.08334694 13.6161212,7.93769388 L13.6192727,7.93928571 C14.111697,7.5572449 14.5915152,7.15291837 15.0366667,6.70322449 C15.4644848,6.27104082 15.8505455,5.81736735 16.1877576,5.35255102 L16.7266667,4.60597959 L16.7250909,4.60438776 C16.8590303,4.446 16.8527273,4.20961224 16.7053939,4.05997959 C16.5501818,3.90318367 16.2988485,3.90318367 16.1436364,4.05997959 C16.1144848,4.08942857 16.0932121,4.12365306 16.074303,4.15787755 L15.5511515,4.88216327 C15.2383636,5.31514286 14.878303,5.73777551 14.4796364,6.1405102 L14.4796364,6.1405102 Z" id="Shape"></path>
            </g>
        </g>
    </g>
</svg>