<svg id="Layer_1" data-name="Layer 1" xmlns="http://www.w3.org/2000/svg" viewBox="0 0 50 50"><defs><style>.cls-1{opacity:0.5;}.cls-2{fill:#fff;}</style></defs><title>history</title><g class="cls-1"><path class="cls-2" d="M25,23,21,14.76a1.7,1.7,0,0,0-3,1.51L22,24.47a3.71,3.71,0,0,0-.54,3.39L16.39,33a1.7,1.7,0,1,0,2.42,2.38l5.07-5.15A3.73,3.73,0,1,0,25,23Z"/><path class="cls-2" d="M25.06,6.51V3.14L16.29,8.21l8.77,5.06V9.91a16.78,16.78,0,1,1-12.42,5.43,1.7,1.7,0,1,0-2.5-2.3A20.18,20.18,0,1,0,25.06,6.51Z"/></g></svg>