<?xml version="1.0" encoding="UTF-8" standalone="no"?>
<svg width="46px" height="45px" viewBox="0 0 46 45" version="1.1" xmlns="http://www.w3.org/2000/svg" xmlns:xlink="http://www.w3.org/1999/xlink" xmlns:sketch="http://www.bohemiancoding.com/sketch/ns">
    <!-- Generator: Sketch 3.4.3 (16044) - http://www.bohemiancoding.com/sketch -->
    <title>Slice 1</title>
    <desc>Created with Sketch.</desc>
    <defs></defs>
    <g id="Page-1" stroke="none" stroke-width="1" fill="none" fill-rule="evenodd" sketch:type="MSPage">
        <g id="agenda44" sketch:type="MSLayerGroup" fill="#000000">
            <g id="Capa_1" sketch:type="MSShapeGroup">
                <g>
                    <path d="M37.8132475,5.76274194 L37.8132475,1.32645161 C37.8132475,0.658225806 37.2897831,0.116774194 36.6437559,0.116774194 C35.9977288,0.116774194 35.4742644,0.658225806 35.4742644,1.32645161 L35.4742644,5.76274194 L10.5257356,5.76274194 L10.5257356,1.32645161 C10.5257356,0.658225806 10.0021153,0.116774194 9.35624407,0.116774194 C8.71021695,0.116774194 8.18675254,0.658225806 8.18675254,1.32645161 L8.18675254,5.76274194 L1.16949153,5.76274194 C0.523464407,5.76274194 0,6.30419355 0,6.97241935 L0,43.6735484 C0,44.3416129 0.523464407,44.8832258 1.16949153,44.8832258 L44.8305085,44.8832258 C45.4765356,44.8832258 46,44.3416129 46,43.6735484 L46,6.97241935 C46,6.30419355 45.4765356,5.76274194 44.8305085,5.76274194 L37.8132475,5.76274194 Z M26.1964542,19.7314516 L26.1964542,25.5251613 L19.8035458,25.5251613 L19.8035458,19.7314516 L26.1964542,19.7314516 L26.1964542,19.7314516 Z M43.6610169,25.525 L37.2674847,25.525 L37.2674847,19.7312903 L43.6610169,19.7312903 L43.6610169,25.525 L43.6610169,25.525 Z M34.9285017,25.525 L28.5354373,25.525 L28.5354373,19.7312903 L34.9285017,19.7312903 L34.9285017,25.525 L34.9285017,25.525 Z M19.8035458,27.9443548 L26.1964542,27.9443548 L26.1964542,33.7372581 L19.8035458,33.7372581 L19.8035458,27.9443548 L19.8035458,27.9443548 Z M19.8035458,36.1566129 L26.1964542,36.1566129 L26.1964542,42.463871 L19.8035458,42.463871 L19.8035458,36.1566129 L19.8035458,36.1566129 Z M28.5354373,36.1566129 L34.9285017,36.1566129 L34.9285017,42.463871 L28.5354373,42.463871 L28.5354373,36.1566129 L28.5354373,36.1566129 Z M28.5354373,33.7372581 L28.5354373,27.9443548 L34.9285017,27.9443548 L34.9285017,33.7372581 L28.5354373,33.7372581 L28.5354373,33.7372581 Z M37.2674847,27.9443548 L43.6610169,27.9443548 L43.6610169,33.7372581 L37.2674847,33.7372581 L37.2674847,27.9443548 L37.2674847,27.9443548 Z M8.18675254,8.18209677 L8.18675254,12.6190323 C8.18675254,13.2872581 8.71021695,13.8287097 9.35624407,13.8287097 C10.0021153,13.8287097 10.5257356,13.2872581 10.5257356,12.6190323 L10.5257356,8.18209677 L35.4742644,8.18209677 L35.4742644,12.6190323 C35.4742644,13.2872581 35.9977288,13.8287097 36.6437559,13.8287097 C37.2897831,13.8287097 37.8132475,13.2872581 37.8132475,12.6190323 L37.8132475,8.18209677 L43.6610169,8.18209677 L43.6610169,17.3120968 L2.33898305,17.3120968 L2.33898305,8.18209677 L8.18675254,8.18209677 L8.18675254,8.18209677 Z M2.33898305,19.7314516 L17.4645627,19.7314516 L17.4645627,42.463871 L2.33898305,42.463871 L2.33898305,19.7314516 L2.33898305,19.7314516 Z M37.2674847,42.463871 L37.2674847,36.1566129 L43.6610169,36.1566129 L43.6610169,42.463871 L37.2674847,42.463871 L37.2674847,42.463871 Z" id="Shape"></path>
                </g>
            </g>
        </g>
    </g>
</svg>