<?xml version="1.0" encoding="utf-8"?>
<!-- Generator: Adobe Illustrator 17.0.0, SVG Export Plug-In . SVG Version: 6.00 Build 0)  -->
<!DOCTYPE svg PUBLIC "-//W3C//DTD SVG 1.1//EN" "http://www.w3.org/Graphics/SVG/1.1/DTD/svg11.dtd">
<svg version="1.1" id="Layer_1" xmlns:sketch="http://www.bohemiancoding.com/sketch/ns"
	 xmlns="http://www.w3.org/2000/svg" xmlns:xlink="http://www.w3.org/1999/xlink" x="0px" y="0px" width="64px" height="100px"
	 viewBox="0 -3.271 64 100" enable-background="new 0 -3.271 64 100" xml:space="preserve">
<title>Slice 1</title>
<desc>Created with Sketch.</desc>
<text transform="matrix(1 0 0 1 300.3326 419.4243)" font-family="'MyriadPro-Regular'" font-size="12">https://vimeo.com/93951774</text>
<text transform="matrix(1 0 0 1 300.3326 419.4243)" font-family="'MyriadPro-Regular'" font-size="12">https://vimeo.com/93951774</text>
<text transform="matrix(1 0 0 1 300.3326 419.4243)" font-family="'MyriadPro-Regular'" font-size="12">https://vimeo.com/93951774</text>
<text transform="matrix(1 0 0 1 300.3326 419.4243)" font-family="'MyriadPro-Regular'" font-size="12">https://vimeo.com/93951774</text>
<text transform="matrix(1 0 0 1 300.3326 419.4243)" font-family="'MyriadPro-Regular'" font-size="12">https://vimeo.com/93951774</text>
<text transform="matrix(1 0 0 1 300.3326 419.4243)" font-family="'MyriadPro-Regular'" font-size="12">https://vimeo.com/93951774</text>
<text transform="matrix(1 0 0 1 300.3326 419.4243)" font-family="'MyriadPro-Regular'" font-size="12">https://vimeo.com/93951774</text>
<polygon fill="#CCCCCC" points="27.001,91.508 27.001,0.187 0,0.187 0,5.187 22.001,5.187 22.001,96.508 64,96.508 64,91.508 "/>
<path id="Line-Copy-10_2_" sketch:type="MSShapeGroup" fill="none" stroke="#CCCCCC" d="M117.749,91.785h59.115"/>
<polyline fill="none" stroke="#CCCCCC" points="176.364,-0.465 142.25,-0.465 142.25,184.035 176.364,184.035 "/>
<polygon fill="#CC4199" points="-64.719,93.438 -99.833,93.438 -99.833,1.187 -124.333,1.187 -124.333,0.187 -98.833,0.187 
	-98.833,92.438 -64.719,92.438 "/>
</svg>
