<?xml version="1.0" encoding="UTF-8" standalone="no"?>
<svg width="54px" height="53px" viewBox="0 0 54 53" version="1.1" xmlns="http://www.w3.org/2000/svg" xmlns:xlink="http://www.w3.org/1999/xlink" xmlns:sketch="http://www.bohemiancoding.com/sketch/ns">
    <!-- Generator: Sketch 3.4.3 (16044) - http://www.bohemiancoding.com/sketch -->
    <title>Slice 1</title>
    <desc>Created with Sketch.</desc>
    <defs></defs>
    <g id="Page-1" stroke="none" stroke-width="1" fill="none" fill-rule="evenodd" sketch:type="MSPage">
        <g id="Oval-79-+-Triangle-1-+-Triangle-1-Copy-+-Triangle-1-+-Triangle-1-Copy-+-Oval-82" sketch:type="MSLayerGroup">
            <g id="Oval-79-+-Triangle-1-+-Triangle-1-Copy-+-Triangle-1-+-Triangle-1-Copy" sketch:type="MSShapeGroup">
                <ellipse id="Oval-79" fill="#27A95C" cx="27" cy="26" rx="14" ry="14"></ellipse>
                <g id="Triangle-1-+-Triangle-1-Copy-+-Triangle-1-+-Triangle-1-Copy" fill="#FFFFFF">
                    <g id="Triangle-1-+-Triangle-1-Copy" transform="translate(27.000000, 26.500000) rotate(-270.000000) translate(-27.000000, -26.500000) translate(23.000000, 0.000000)">
                        <polygon id="Triangle-1" points="4 0 8 7 0 7 "></polygon>
                        <polygon id="Triangle-1-Copy" transform="translate(4.000000, 49.500000) scale(1, -1) translate(-4.000000, -49.500000) " points="4 46 8 53 1.0658141e-14 53 "></polygon>
                    </g>
                    <g id="Triangle-1-+-Triangle-1-Copy" transform="translate(23.000000, 0.000000)">
                        <polygon id="Triangle-1" points="4 0 8 7 0 7 "></polygon>
                        <polygon id="Triangle-1-Copy" transform="translate(4.000000, 49.500000) scale(1, -1) translate(-4.000000, -49.500000) " points="4 46 8 53 0 53 "></polygon>
                    </g>
                </g>
            </g>
            <path d="M27,32 C30.3137085,32 33,29.3137085 33,26 C33,22.6862915 30.3137085,20 27,20 C23.6862915,20 21,22.6862915 21,26 C21,29.3137085 23.6862915,32 27,32 Z" id="Oval-82" fill="#D8D8D8" sketch:type="MSShapeGroup"></path>
        </g>
    </g>
</svg>