<?xml version="1.0" encoding="UTF-8" standalone="no"?>
<svg width="24px" height="25px" viewBox="0 0 24 25" version="1.1" xmlns="http://www.w3.org/2000/svg" xmlns:xlink="http://www.w3.org/1999/xlink" xmlns:sketch="http://www.bohemiancoding.com/sketch/ns">
    <!-- Generator: Sketch 3.4.3 (16044) - http://www.bohemiancoding.com/sketch -->
    <title>Slice 1</title>
    <desc>Created with Sketch.</desc>
    <defs></defs>
    <g id="Page-1" stroke="none" stroke-width="1" fill="none" fill-rule="evenodd" sketch:type="MSPage">
        <g id="XMLID_654_" sketch:type="MSLayerGroup" fill="#1B1B1B">
            <path d="M7.5231773,12.7269854 C7.42252482,12.8379909 7.28476596,12.8942964 7.14666667,12.8942964 C7.02337589,12.8942964 6.89974468,12.8494584 6.80170213,12.7586358 L6.71080851,12.6744642 C6.50292199,12.4818674 6.4889078,12.1554448 6.67948936,11.94536 C6.87012766,11.7352753 7.19313475,11.7211129 7.40096454,11.9137097 L7.49185816,11.9978812 C7.69974468,12.190478 7.7138156,12.5169007 7.5231773,12.7269854 L7.5231773,12.7269854 Z M13.0107234,7.80782546 C13.1414468,7.80782546 13.2720567,7.75742576 13.3718014,7.65668369 L19.5969929,1.36566564 C19.7964255,1.16412417 19.7964255,0.837414839 19.5969929,0.63587337 C19.3975035,0.434274563 19.0742695,0.434274563 18.8747801,0.63587337 L12.6496454,6.92689143 C12.4502128,7.1284329 12.4502128,7.45514222 12.6496454,7.65668369 C12.7493901,7.75742576 12.8800567,7.80782546 13.0107234,7.80782546 L13.0107234,7.80782546 Z M4.57537589,12.9386756 C4.36760284,12.7459642 4.04459574,12.7598972 3.85390071,12.9698099 C3.66320567,13.17978 3.67699291,13.5062027 3.88470922,13.6989141 L3.97560284,13.7832003 C4.07370213,13.874195 4.19739007,13.9190903 4.32079433,13.9190903 C4.45883688,13.9190903 4.59642553,13.8628995 4.69707801,13.7520087 C4.88777305,13.5420386 4.87398582,13.215616 4.6662695,13.0229045 L4.57537589,12.9386756 L4.57537589,12.9386756 Z M9.60544681,11.918526 C9.7035461,12.0095781 9.82729078,12.0545307 9.95075177,12.0545307 C10.0887376,12.0545307 10.2262695,11.9983399 10.3269787,11.8875638 C10.5177305,11.677651 10.5040567,11.3512284 10.2963404,11.1584022 L10.2055603,11.074116 C9.99784397,10.8812899 9.67483688,10.8952229 9.48402837,11.1050783 C9.2932766,11.3149911 9.30695035,11.6414137 9.51466667,11.8342399 L9.60544681,11.918526 L9.60544681,11.918526 Z M23.8090213,0.208479312 C23.6095319,0.00688050535 23.2862979,0.0069378429 23.0868085,0.208479312 L15.4420426,7.93414007 C15.2426099,8.13568154 15.2426099,8.46239087 15.4420426,8.66393234 C15.5417872,8.76467441 15.6724539,8.81507411 15.8031206,8.81507411 C15.9337872,8.81507411 16.0644539,8.76467441 16.1641986,8.66393234 L23.8089645,0.93827158 C24.0083972,0.736730111 24.0083972,0.410020781 23.8090213,0.208479312 L23.8090213,0.208479312 Z M22.9350355,4.38351262 L16.7099574,10.674416 C16.5105248,10.8759575 16.5105248,11.2026668 16.7099574,11.4042083 C16.8097021,11.5049503 16.9403688,11.55535 17.0710355,11.55535 C17.2017021,11.55535 17.3323688,11.5049503 17.4321135,11.4042083 L23.6572482,5.11330489 C23.8566809,4.91176342 23.8566809,4.58505409 23.6572482,4.38351262 C23.4577589,4.18202849 23.1345248,4.18202849 22.9350355,4.38351262 L22.9350355,4.38351262 Z M17.4500426,17.1448432 C17.5427518,17.3356626 17.5101844,17.5643247 17.368,17.7209709 L11.4208227,24.2743655 C11.4204255,24.2747669 11.4200284,24.2752256 11.4196312,24.275627 C11.419461,24.2758563 11.419234,24.2760857 11.4190071,24.276315 C11.4188369,24.276487 11.4186667,24.2767164 11.4184397,24.2768884 C11.3148369,24.4050378 11.075461,24.4874319 10.8487376,24.4023429 L3.74814184,21.6204973 C3.62859574,21.5736525 3.53078014,21.4830592 3.47432624,21.3667213 L0.114950355,14.4500933 C0.110865248,14.4418367 -0.0698439716,14.1165608 0.203687943,13.8620968 L6.14280851,7.31753212 C6.28493617,7.16088595 6.50757447,7.10836475 6.70371631,7.18513973 L13.8085106,9.9687055 C13.9268652,10.0130848 14.0292766,10.1015566 14.0892482,10.2251763 L17.4500426,17.1448432 L17.4500426,17.1448432 Z M1.45356028,14.0117478 L7.5430922,16.3974483 L12.7492199,10.6605977 L6.65968794,8.27483976 L1.45356028,14.0117478 L1.45356028,14.0117478 Z M10.0099858,22.9667828 L7.31319149,17.4142724 L1.60641135,15.1785095 L4.30326241,20.73102 L10.0099858,22.9667828 L10.0099858,22.9667828 Z M16.3795177,17.2831414 L13.501844,11.3581662 L8.29571631,17.0949596 L11.1734468,23.0198774 L16.3795177,17.2831414 L16.3795177,17.2831414 Z M13.1315745,14.9599388 C12.9236879,14.767342 12.6007376,14.7813896 12.4100993,14.9913597 C12.219461,15.2013872 12.2333617,15.5278098 12.4411915,15.720464 L12.5320284,15.8046355 C12.6301277,15.8955155 12.7537589,15.9404108 12.8771064,15.9404108 C13.0152057,15.9404108 13.1527943,15.8841626 13.2535035,15.7732145 C13.4441418,15.5631871 13.4302411,15.2367644 13.2224113,15.0441103 L13.1315745,14.9599388 L13.1315745,14.9599388 Z M6.10785816,18.6502405 C5.89997163,18.4575863 5.57702128,18.4716914 5.38638298,18.6817761 C5.19574468,18.8918609 5.20970213,19.2182262 5.41758865,19.4108803 L5.50848227,19.4950519 C5.60652482,19.5859319 5.73015603,19.6307698 5.85350355,19.6307698 C5.99160284,19.6307698 6.12924823,19.5745217 6.23001418,19.4635162 C6.42059574,19.2534314 6.4066383,18.9270661 6.19880851,18.734412 L6.10785816,18.6502405 L6.10785816,18.6502405 Z M12.1430922,18.5733508 C11.9353191,18.380754 11.6123121,18.3948017 11.4216738,18.6048865 C11.2310355,18.8149139 11.2450496,19.1413365 11.4528794,19.3339907 L11.543773,19.4182195 C11.6418156,19.5090422 11.7654468,19.5539375 11.8887943,19.5539375 C12.0268936,19.5539375 12.164539,19.4976894 12.265305,19.3866839 C12.4558865,19.1765991 12.4419291,18.8502338 12.2340426,18.6575797 L12.1430922,18.5733508 L12.1430922,18.5733508 Z" sketch:type="MSShapeGroup"></path>
        </g>
    </g>
</svg>