<?xml version="1.0" encoding="UTF-8" standalone="no"?>
<svg width="54px" height="55px" viewBox="0 0 54 55" version="1.1" xmlns="http://www.w3.org/2000/svg" xmlns:xlink="http://www.w3.org/1999/xlink" xmlns:sketch="http://www.bohemiancoding.com/sketch/ns">
    <!-- Generator: Sketch 3.4.3 (16044) - http://www.bohemiancoding.com/sketch -->
    <title>Slice 1</title>
    <desc>Created with Sketch.</desc>
    <defs></defs>
    <g id="Page-1" stroke="none" stroke-width="1" fill="none" fill-rule="evenodd" sketch:type="MSPage">
        <g id="Fill-1-+-Group" sketch:type="MSLayerGroup">
            <path d="M53.8187143,27.1104167 C53.8187143,42.0839674 41.7702857,54.2208333 26.9087143,54.2208333 C12.0484286,54.2208333 0,42.0839674 0,27.1104167 C0,12.1368659 12.0484286,0 26.9087143,0 C41.7702857,0 53.8187143,12.1368659 53.8187143,27.1104167" id="Fill-1" fill="#FEFEFE" sketch:type="MSShapeGroup"></path>
            <g id="Group" transform="translate(3.970588, 10.362319)" fill="#19AA5A" sketch:type="MSShapeGroup">
                <path d="M10.1848392,21.0140095 C10.1652412,20.5722256 9.61388274,20.2373038 9.40091728,20.219059 C9.33559046,20.2112398 9.25066558,20.2346974 9.2441329,20.2894317 C9.23890675,20.33765 9.25589173,20.3871715 9.35780158,20.4158418 C9.66091805,20.4966401 9.86865736,20.8315619 9.86865736,21.0465895 C9.86865736,21.1326005 9.84905932,21.2824683 9.65438537,21.2824683 C9.4623245,21.2824683 9.23368061,21.1860316 9.01810208,21.0557119 C8.79860394,20.9266953 8.52945741,20.7377317 8.15317489,20.7103645 C7.92975714,20.6934229 7.48292164,20.7377317 7.48292164,21.083079 C7.48292164,21.5848101 8.65096531,21.8376304 9.28855514,21.8376304 C9.89086848,21.8376304 10.2018242,21.3723889 10.1848392,21.0140095" id="Fill-4"></path>
                <path d="M15.0702406,22.4152076 C14.9970746,22.4152076 14.9343608,22.5885329 14.849436,22.7136399 C14.7645111,22.8426564 14.5384803,23.2362221 13.7362668,23.2414349 C12.3983734,23.2453445 11.9071157,22.6406608 10.8788714,22.4530003 C10.5835942,22.3995692 9.60238522,22.2861911 9.34630406,22.7058207 C9.24700728,22.9039067 9.66509897,22.8556884 10.2543469,22.978189 C11.8901307,23.3118076 12.7811886,24.1484604 13.761091,24.1250029 C15.3446133,24.0833006 15.2374773,22.9234547 15.2178793,22.7331878 C15.2022008,22.5403146 15.1473263,22.4152076 15.0702406,22.4152076" id="Fill-6"></path>
                <path d="M41.2431725,11.9145626 C39.7693993,10.9006748 38.3008522,10.4875612 35.5479798,10.0301388 C35.003154,9.938915 34.1682772,9.85681355 33.1308872,9.78253129 C33.0655603,8.11443835 32.9545047,5.54844226 32.945359,5.41030331 C32.9375198,5.24740361 32.962344,5.19136611 32.9009367,5.06495595 C32.8356099,4.94115217 32.5625438,4.89554026 32.2528946,4.79649724 C31.9484716,4.70006062 25.7123727,2.76481217 23.7225176,2.22789476 C21.6947728,1.67924856 18.9170762,0.922090752 16.5731496,0.571530596 C14.2253035,0.219667242 13.2192703,0.589775362 12.4314288,1.10714481 C11.9819802,1.40427387 11.4449937,2.12363895 10.7825797,3.67705049 C10.2168494,4.99718967 8.97955925,7.88116598 8.23875303,9.56880688 C7.18829765,9.63005717 5.16839217,9.72910018 3.54436725,9.70433943 C1.77531677,9.67827548 0.834610467,9.21303393 0.642549596,9.11399091 C0.518428625,9.04883103 0.149985321,8.80643628 0.0781258111,8.9015697 C-0.0211709659,9.03449586 0.0428493245,9.25603945 0.237523269,9.47888624 C0.488378284,9.76168012 1.47089376,10.6100618 3.84095104,11.1065801 C6.41482802,11.6434975 9.88760214,11.805094 19.4814999,11.9145626 C29.2517802,12.022728 29.6476608,11.7373277 33.5241547,11.8324611 C39.936636,11.9849352 41.7096061,12.8658968 41.8376467,12.7212419 C42.0022703,12.537491 41.5619675,12.134803 41.2431725,11.9145626" id="Fill-8"></path>
                <path d="M27.0974321,28.0962369 L22.3481718,13.9852133 L22.3808352,13.9852133 C22.8524949,13.9995484 23.2522951,14.3071031 23.3920945,14.7345519 L23.393401,14.7332487 L28.0930129,28.6957078 C27.7846703,28.5406273 27.4436643,28.3295093 27.0974321,28.0962369 L27.0974321,28.0962369 Z M12.2003025,30.8238295 C10.6507501,30.8889894 9.85114977,30.1943851 9.53888754,29.5466959 C9.21094687,28.8677299 9.45918881,26.4268408 9.25798219,25.9589929 C9.1403939,25.6788054 8.98230298,25.3373676 8.3538589,25.1809839 C8.63084465,24.8760357 9.7805968,25.2448406 10.4652219,25.0246002 C11.1485406,24.8030566 11.6528637,24.0198348 11.5914564,23.9572813 C11.5300492,23.8960311 11.3758779,23.9976805 11.1890432,24.053718 C11.0022085,24.1097555 9.93215504,24.4420709 8.81114669,23.8126264 C7.75154556,23.2196715 7.77375668,22.2891884 7.61435922,22.1301983 C7.42099181,21.9295059 6.7912412,21.4994507 6.6266176,21.4004076 C6.57174306,21.3704341 5.74601197,20.8543678 5.76299694,20.6080635 C5.81264533,20.2184074 6.8448092,18.5894104 7.57516312,17.3813462 C7.89657111,16.8470352 8.16571764,16.3140274 8.27285364,15.7914451 C8.27024056,15.8044771 8.27024056,15.8175091 8.27024056,15.8292379 C8.48320602,18.500793 12.0435181,18.7887996 14.329957,18.7887996 L20.5451513,18.7887996 L22.8015399,25.4937513 C21.4963099,26.1792333 16.7483562,29.1726782 15.6221217,29.7995162 C14.3430224,30.5084557 13.5355828,30.7664888 12.2003025,30.8238295 L12.2003025,30.8238295 Z M12.8287465,14.20806 C14.5220179,14.5325562 15.7658407,15.4695553 15.6064432,16.2905698 C15.5071464,16.8079393 14.8943808,17.1923826 14.008549,17.2718776 C13.1579938,17.3487663 11.5156773,16.8470352 11.8383918,16.0572974 C12.2172874,15.124208 13.7237241,15.9504352 14.1182981,16.1250637 C14.5141787,16.3009954 14.7179984,16.3557297 14.7689533,16.2540803 C14.8042298,16.1745852 14.5716663,15.9113393 14.3678466,15.7262853 C14.1875445,15.5607792 13.7903574,15.197187 12.9215106,14.9169995 C12.2199005,14.6928496 11.8579899,14.65636 11.3510537,14.7254295 C11.0218065,14.7697382 10.7931626,14.9600051 10.7317554,15.0890216 C10.6481371,15.2636501 10.6794939,15.4252466 10.7291423,15.5659919 C11.1550732,16.7571146 10.0811002,16.3205434 9.68913924,15.8735466 C9.50622413,15.6220294 9.42260579,15.3639963 9.4696411,15.1124792 C9.63165164,14.2875551 11.1341687,13.8822606 12.8287465,14.20806 L12.8287465,14.20806 Z M24.1668706,25.6423159 L20.2420349,13.9852133 L20.2760048,13.9852133 C20.748971,13.9995484 21.1461582,14.3071031 21.284651,14.7345519 L21.2872641,14.7332487 L25.3296881,26.744821 C24.8018474,26.2952179 24.3824492,25.8951362 24.1668706,25.6423159 L24.1668706,25.6423159 Z M24.4556152,13.9852133 L24.4869721,13.9852133 C24.9586318,13.9995484 25.358432,14.3071031 25.4956183,14.7345519 L25.4969248,14.7345519 L30.59895,29.8920432 C30.257944,29.7552075 29.9574406,29.6222813 29.6739221,29.4867488 L24.4556152,13.9852133 Z M38.3532444,26.4867879 C38.1925404,26.4867879 38.0305298,26.5024263 37.8737455,26.5245806 L38.2800783,27.7326448 C38.303596,27.7300384 38.3297267,27.727432 38.3532444,27.727432 C39.5317403,27.727432 40.4920447,28.6839791 40.4920447,29.8581601 C40.4920447,31.0336444 39.5317403,31.9862818 38.3532444,31.9862818 C37.4020858,31.9862818 36.5946462,31.3620501 36.32158,30.5032429 L30.7622671,13.9852133 L30.7870913,13.9852133 C31.258751,13.9995484 31.6559381,14.3084063 31.7957375,14.7371583 L31.7983506,14.7358551 L37.0440948,30.3260081 C37.0493209,30.3351304 37.051934,30.3442528 37.054547,30.3533752 C37.0571601,30.3611944 37.0623863,30.3677104 37.0623863,30.3677104 C37.0832908,30.4276575 37.1224869,30.4758758 37.1512307,30.5306101 C37.1904268,30.6088019 37.2230903,30.6909034 37.2753517,30.7599729 C37.3001759,30.7925528 37.3354524,30.8147072 37.3628897,30.8446807 C37.4347492,30.9267821 37.5066087,31.0075804 37.5941466,31.0714371 C37.641182,31.1053202 37.697363,31.1222618 37.7483179,31.1509321 C37.8293232,31.1952409 37.9051023,31.2460656 37.9939468,31.2747359 C38.1389724,31.3229542 38.2931437,31.3490182 38.4538477,31.3490182 C39.2717396,31.3490182 39.9367666,30.6856906 39.9367666,29.8711921 C39.9367666,29.6965636 39.9080228,29.5414831 39.879279,29.4658976 C39.8714398,29.4476529 39.8583745,29.4346209 39.8466156,29.4202857 C39.6584744,28.8455756 39.1397794,28.4207331 38.5061091,28.3959724 L38.929427,29.6561645 C38.9320401,29.6600741 38.9320401,29.6665901 38.9346531,29.6718029 L38.9437989,29.7017764 C38.949025,29.712202 38.9516381,29.7226276 38.9529446,29.7317499 C38.9555577,29.7382659 38.9607839,29.7460851 38.9633969,29.7526011 L38.9529446,29.7526011 C38.9555577,29.7695427 38.9607839,29.7864842 38.9607839,29.8034258 C38.9607839,30.0119374 38.7922406,30.1787467 38.5845013,30.1787467 C38.4734457,30.1787467 38.3754555,30.127922 38.306209,30.0549429 C38.2657064,30.0197566 38.2343495,29.9741447 38.2252038,29.9181072 L38.2238972,29.9194104 C38.2225907,29.9155008 38.2212842,29.9155008 38.2199776,29.9128944 L32.7795595,13.7493345 C32.5012672,12.8970432 32.4450861,12.6207654 32.4450861,12.6207654 C32.2634776,12.5842758 29.3133181,12.6611645 26.0927055,12.7406595 L19.1785141,12.7406595 C17.6302683,12.7406595 7.47586635,12.4435305 7.47586635,12.4435305 C7.47586635,12.4435305 7.92792799,12.4526529 7.47586635,12.4409241 C7.02249817,12.4318017 6.88269876,12.4578657 6.96370402,12.5764566 C8.07295354,14.1754801 8.14219998,15.5633856 7.20410675,17.1128875 C6.47375282,18.3222549 6.10661605,18.9464865 5.88973099,19.3218075 C5.81264533,19.4547336 5.32400067,20.2952961 5.26259345,20.5702708 C5.17374897,20.9547141 5.48862427,21.1045818 6.28299849,21.6766855 C6.38490834,21.752271 7.05516158,22.2057838 7.07998578,22.2618213 L7.08521192,22.2592149 C7.17144333,22.3308907 7.35827806,22.5003064 7.3635042,22.9772767 C7.36611728,23.2118523 7.83385736,27.6987617 8.18531569,28.9954433 C8.75235254,31.0753467 9.68652617,31.5692586 11.8501507,31.5692586 C14.3260374,31.5692586 25.3061705,29.9337456 32.1772461,30.6596266 L26.556526,13.9852133 L26.5891894,13.9852133 C27.0608491,13.9995484 27.4606492,14.3071031 27.596529,14.7345519 L27.5978356,14.7332487 L32.9846857,30.7299993 C33.4929284,30.8785638 34.0103169,31.0101868 34.4166498,31.0896818 L28.6587432,13.9852133 L28.6861805,13.9852133 C29.1565337,13.9995484 29.5550273,14.3084063 29.6948267,14.7371583 L29.6987463,14.7345519 L35.123486,30.8524999 C35.123486,30.8524999 35.123486,30.8524999 35.123486,30.8538031 L35.1783606,31.0153996 L35.1809736,31.0153996 L35.1875063,31.0127932 C35.6630856,32.3029588 36.8990692,33.2282291 38.3532444,33.2282291 C40.217672,33.2282291 41.7358675,31.7152167 41.7358675,29.8581601 C41.7358675,27.9998003 40.217672,26.4867879 38.3532444,26.4867879 L38.3532444,26.4867879 Z" id="Fill-10"></path>
            </g>
        </g>
    </g>
</svg>