<?xml version="1.0" encoding="UTF-8" standalone="no"?>
<svg width="24px" height="24px" viewBox="0 0 24 24" version="1.1" xmlns="http://www.w3.org/2000/svg" xmlns:xlink="http://www.w3.org/1999/xlink" xmlns:sketch="http://www.bohemiancoding.com/sketch/ns">
    <!-- Generator: Sketch 3.4.3 (16044) - http://www.bohemiancoding.com/sketch -->
    <title>Slice 1</title>
    <desc>Created with Sketch.</desc>
    <defs></defs>
    <g id="Page-1" stroke="none" stroke-width="1" fill="none" fill-rule="evenodd" sketch:type="MSPage">
        <g id="add139-copy-+-Shape" sketch:type="MSLayerGroup" transform="translate(5.000000, 9.000000)" stroke="#979797" fill="#979797">
            <g id="Shape" sketch:type="MSShapeGroup">
                <g transform="translate(0.561388, 0.000000)">
                    <g transform="translate(0.419355, 0.433333)">
                        <path d="M5.36899013,6.30548119 L0.244488908,1.37171404 C-0.0814963026,1.05786524 -0.0814963026,0.549013202 0.244488908,0.235291372 C0.570342237,-0.0784304574 1.09876587,-0.0784304574 1.42477746,0.235291372 L5.95900253,4.60096147 L10.493254,0.235443738 C10.8192392,-0.0782780913 11.3476101,-0.0782780913 11.673437,0.235443738 C11.9995805,0.549165568 11.9995805,1.0580176 11.673437,1.3718664 L6.54901492,6.30563355 C6.38608826,6.4623675 6.17251902,6.54070907 5.95900253,6.54070907 C5.74540691,6.54070907 5.53183767,6.46218974 5.36899013,6.30548119 Z"></path>
                    </g>
                </g>
            </g>
        </g>
        <path d="M12,23 C15.3716422,23 18.388986,21.4830682 20.4067806,19.0944553 C22.0247125,17.1791894 23,14.70349 23,12 C23,5.92486775 18.0751322,1 12,1 C5.92486775,1 1,5.92486775 1,12 C1,18.0751322 5.92486775,23 12,23 Z" id="Oval-1" stroke="#979797" stroke-width="1.5" sketch:type="MSShapeGroup"></path>
    </g>
</svg>