<?xml version="1.0" encoding="utf-8"?>
<!-- Generator: Adobe Illustrator 19.1.0, SVG Export Plug-In . SVG Version: 6.00 Build 0)  -->
<svg version="1.1" id="Ebene_1" xmlns="http://www.w3.org/2000/svg" xmlns:xlink="http://www.w3.org/1999/xlink" x="0px" y="0px"
	 viewBox="-25 4 95 34" style="enable-background:new -25 4 95 34;" xml:space="preserve">
<style type="text/css">
	.st0{fill:#FF0000;}
	.st1{fill:#FFFFFF;}
</style>
<g>
	<rect id="XMLID_445_" x="-25" y="4.4" class="st0" width="95" height="33.2"/>
	<path id="XMLID_482_" class="st1" d="M29.6,9.9c0,0.7-0.2,1.2-0.6,1.7c-0.4,0.4-0.9,0.8-1.7,1v0.1c0.6,0.2,1.1,0.4,1.4,0.7
		s0.5,0.8,0.5,1.4c0,1.2-0.5,2.1-1.4,2.7c-1,0.7-2.3,1-4,1H19l2.5-11h4c1.3,0,2.3,0.2,3,0.7C29.3,8.5,29.6,9.1,29.6,9.9z M26.3,14.9
		c0-0.4-0.2-0.7-0.5-0.9s-0.8-0.3-1.4-0.3h-1.5l-0.6,2.8h1.4c0.8,0,1.5-0.1,1.9-0.4C26.1,15.8,26.3,15.4,26.3,14.9z M26.6,10.4
		c0-0.3-0.1-0.6-0.4-0.7c-0.3-0.1-0.6-0.2-1.1-0.2h-1.3l-0.5,2.3h1.3c0.6,0,1.1-0.1,1.5-0.4C26.4,11.2,26.6,10.9,26.6,10.4z"/>
	<path id="XMLID_479_" class="st1" d="M40.8,18.5H38l-0.3-2.3h-4l-1.3,2.3h-3l6.6-11h3.3L40.8,18.5z M37.5,14.2L37,10.3l-2.3,3.9
		C34.7,14.2,37.5,14.2,37.5,14.2z"/>
	<path id="XMLID_477_" class="st1" d="M52.4,18.5H50l-3.2-7.6L45,18.5h-2.6l2.5-11H48l2.8,6.4l1.5-6.4h2.6L52.4,18.5z"/>
	<path id="XMLID_475_" class="st1" d="M65.6,18.5h-3.1L60,14l-1.2,1L58,18.5h-2.9l2.5-11h2.9l-1.1,4.9l5-4.9h3.4l-5.6,5.1L65.6,18.5
		z"/>
	<path id="XMLID_473_" class="st1" d="M-12.2,26.5h-3.5l-2.1,8.9h-2.8l2.1-8.9H-22l0.5-2.1h9.7L-12.2,26.5z"/>
	<path id="XMLID_470_" class="st1" d="M-1.5,27.1c0,0.9-0.3,1.6-0.8,2.2s-1.3,1.1-2.2,1.4l2.6,4.7h-3.2l-2.1-4.1h-1.6l-0.9,4.1h-2.8
		l2.5-11h4.3c1.4,0,2.4,0.2,3.1,0.7C-1.9,25.5-1.5,26.2-1.5,27.1z M-4.6,27.6c0-0.4-0.1-0.8-0.4-0.9c-0.3-0.2-0.7-0.3-1.3-0.3h-1.4
		l-0.7,3H-7c0.8,0,1.3-0.2,1.8-0.5C-4.8,28.6-4.6,28.1-4.6,27.6z"/>
	<path id="XMLID_467_" class="st1" d="M9.6,35.4H6.7l-0.3-2.3h-4l-1.3,2.3h-3l6.6-11H8L9.6,35.4z M6.3,31.1l-0.5-3.9l-2.3,3.9H6.3z"
		/>
	<path id="XMLID_465_" class="st1" d="M21.1,35.4h-2.4l-3.2-7.6l-1.8,7.6h-2.6l2.5-11h3.2l2.8,6.4l1.5-6.4h2.6L21.1,35.4z"/>
	<path id="XMLID_463_" class="st1" d="M28,35.6c-0.9,0-1.8-0.1-2.5-0.2c-0.7-0.2-1.4-0.4-1.9-0.6l0.6-2.6h0.3
		c0.5,0.5,1.1,0.8,1.8,1.1s1.4,0.4,2.2,0.4s1.4-0.1,1.8-0.3c0.4-0.2,0.6-0.5,0.6-0.9c0-0.2,0-0.3-0.1-0.4s-0.2-0.2-0.4-0.3
		s-0.4-0.2-0.7-0.3c-0.3-0.1-0.7-0.2-1.2-0.4c-0.5-0.1-1-0.3-1.5-0.5s-0.8-0.4-1.1-0.6s-0.5-0.5-0.7-0.8c-0.2-0.6-0.2-1-0.2-1.4
		c0-1.1,0.5-2,1.5-2.7s2.3-1,4-1c0.8,0,1.6,0.1,2.3,0.2s1.3,0.3,1.8,0.5L34,27.4h-0.3c-0.4-0.4-0.9-0.7-1.5-0.9
		c-0.6-0.2-1.3-0.4-2.1-0.4c-0.7,0-1.3,0.1-1.7,0.3s-0.6,0.5-0.6,0.9c0,0.2,0,0.3,0.1,0.4s0.2,0.2,0.4,0.3c0.2,0.1,0.4,0.2,0.7,0.3
		c0.3,0.1,0.7,0.2,1.2,0.4c1.2,0.3,2.1,0.7,2.6,1.2c0.5,0.4,0.8,1,0.8,1.8c0,0.6-0.1,1.2-0.4,1.7c-0.3,0.5-0.7,0.9-1.2,1.2
		s-1.1,0.6-1.8,0.7C29.6,35.5,28.8,35.6,28,35.6z"/>
	<path id="XMLID_461_" class="st1" d="M45.2,24.3l-0.5,2.1h-5.1l-0.5,2.1h4.7l-0.5,2.1h-4.7l-1.1,4.7h-2.8l2.5-11H45.2z"/>
	<path id="XMLID_459_" class="st1" d="M55.2,24.3l-0.5,2.1h-5.2l-0.5,2h4.8l-0.5,2.1h-4.8l-0.6,2.8H53l-0.5,2.1h-8l2.5-11L55.2,24.3
		L55.2,24.3z"/>
	<path id="XMLID_456_" class="st1" d="M66.1,27.1c0,0.9-0.3,1.6-0.8,2.2s-1.3,1.1-2.2,1.4l2.6,4.7h-3.2l-2.1-4.1h-1.6l-0.9,4.1H55
		l2.5-11h4.3c1.4,0,2.4,0.2,3.1,0.7C65.7,25.5,66.1,26.2,66.1,27.1z M63,27.6c0-0.4-0.1-0.8-0.4-0.9c-0.3-0.2-0.7-0.3-1.3-0.3h-1.4
		l-0.7,3h1.4c0.8,0,1.3-0.2,1.8-0.5S63,28.1,63,27.6z"/>
	<rect id="XMLID_344_" x="-22.8" y="7.3" class="st1" width="40" height="1.3"/>
	<rect id="XMLID_337_" x="-22.8" y="17.2" class="st1" width="29.9" height="1.3"/>
	<rect id="XMLID_336_" x="-22.8" y="12.3" class="st1" width="34.9" height="1.3"/>
</g>
</svg>
