<?xml version="1.0" standalone="no"?>
<!DOCTYPE svg PUBLIC "-//W3C//DTD SVG 20010904//EN"
 "http://www.w3.org/TR/2001/REC-SVG-20010904/DTD/svg10.dtd">
<svg version="1.0" xmlns="http://www.w3.org/2000/svg"
 width="1075.000000pt" height="271.000000pt" viewBox="0 0 1075.000000 271.000000"
 preserveAspectRatio="xMidYMid meet">

<g transform="translate(0.000000,271.000000) scale(0.100000,-0.100000)"
fill="#00AEEF" stroke="none">
<path d="M895 2290 c-3 -6 0 -12 7 -15 7 -2 64 -22 126 -44 157 -55 251 -110
348 -206 117 -116 163 -220 131 -297 -18 -44 -52 -68 -106 -75 -52 -7 -108 24
-144 82 -64 100 -181 189 -296 226 -85 27 -221 36 -292 19 -72 -17 -168 -61
-201 -93 -32 -30 -37 -79 -13 -114 9 -12 111 -69 229 -127 239 -117 256 -132
256 -219 0 -51 -30 -96 -81 -122 -57 -30 -94 -20 -290 76 -222 107 -279 120
-324 74 -25 -25 -27 -31 -22 -83 4 -38 20 -85 48 -142 103 -209 322 -334 552
-316 96 8 147 -5 181 -45 55 -64 23 -151 -74 -204 -52 -29 -60 -30 -165 -28
-172 2 -337 56 -492 161 -56 38 -116 72 -128 72 -39 0 155 -206 262 -278 249
-168 541 -220 828 -147 182 46 333 133 461 267 185 193 274 428 261 688 -12
241 -118 468 -294 630 -163 151 -362 237 -602 260 -133 13 -158 13 -166 0z"/>
<path d="M9196 1915 c-14 -15 -16 -75 -16 -580 0 -505 2 -565 16 -580 13 -12
34 -15 102 -13 81 3 87 5 99 28 9 18 13 91 13 260 0 225 1 238 23 280 30 60
71 82 152 83 68 1 104 -15 127 -55 9 -17 14 -101 18 -301 4 -232 7 -279 20
-287 8 -6 53 -9 100 -8 79 3 85 5 97 28 16 31 18 550 3 631 -17 87 -55 138
-131 178 -60 30 -74 33 -152 33 -93 0 -179 -20 -220 -52 -14 -11 -28 -20 -31
-20 -3 0 -6 75 -6 168 0 219 1 216 -112 220 -68 2 -89 -1 -102 -13z"/>
<path d="M4802 1813 c-34 -7 -51 -41 -64 -132 -6 -46 -16 -84 -22 -86 -6 -2
-36 -11 -67 -19 -42 -12 -58 -22 -67 -41 -17 -37 -15 -107 4 -133 13 -19 24
-22 80 -22 l64 0 0 -213 c0 -260 8 -296 80 -368 36 -36 62 -52 106 -65 67 -19
218 -22 281 -5 59 16 73 41 73 127 0 97 -4 100 -126 85 -78 -9 -100 -9 -128 3
-56 23 -60 41 -64 249 l-4 187 130 0 c160 0 162 1 162 103 0 40 -4 78 -9 85
-13 21 -76 31 -183 32 l-98 0 0 94 c0 68 -4 97 -14 105 -16 13 -99 22 -134 14z"/>
<path d="M4033 1609 c-80 -8 -172 -45 -216 -87 -16 -15 -41 -49 -55 -77 l-27
-50 -3 -311 c-4 -372 -12 -346 116 -342 81 3 87 5 99 28 9 18 13 95 13 282 0
141 4 268 10 282 15 40 64 59 151 59 83 0 110 -10 137 -50 15 -24 18 -63 22
-305 4 -233 7 -280 20 -288 8 -6 53 -9 100 -8 79 3 85 5 98 28 10 19 12 91 9
315 -4 336 -8 357 -88 437 -38 37 -60 51 -115 67 -82 23 -173 30 -271 20z"/>
<path d="M6555 1611 c-147 -18 -233 -76 -271 -183 -11 -32 -14 -106 -14 -349
0 -269 2 -310 16 -324 13 -12 34 -15 102 -13 81 3 87 5 99 28 9 18 13 98 13
298 l0 273 25 24 c24 25 35 27 126 30 69 1 79 14 79 100 0 111 -32 133 -175
116z"/>
<path d="M7123 1610 c-178 -19 -293 -121 -324 -286 -16 -84 -6 -335 16 -396
24 -69 92 -139 163 -171 72 -33 205 -49 301 -36 127 15 141 29 141 137 0 95
-5 98 -123 84 -140 -17 -213 2 -254 65 -24 37 -26 272 -3 317 32 63 108 80
272 62 l77 -9 11 27 c13 36 13 119 -1 149 -17 37 -49 48 -174 61 -16 2 -63 0
-102 -4z"/>
<path d="M3024 1590 c-41 -13 -79 -35 -112 -65 -89 -80 -118 -192 -109 -414 7
-169 21 -216 91 -287 36 -37 68 -58 111 -73 144 -53 466 -41 520 19 23 25 32
122 16 164 -13 32 -3 32 -215 6 -127 -15 -250 11 -275 58 -5 9 -12 32 -16 50
l-7 32 250 0 c271 0 274 1 288 56 3 13 5 75 3 136 -4 99 -8 120 -32 170 -32
64 -80 111 -146 142 -68 31 -280 34 -367 6z m261 -194 c39 -17 60 -46 69 -98
l7 -38 -166 0 -166 0 7 38 c9 51 30 81 67 97 42 18 139 19 182 1z"/>
<path d="M5574 1590 c-41 -13 -79 -35 -112 -65 -89 -80 -118 -192 -109 -414 7
-169 21 -216 91 -287 36 -37 68 -58 111 -73 144 -53 466 -41 520 19 23 25 32
122 16 164 -13 32 -3 32 -215 6 -127 -15 -250 11 -275 58 -5 9 -12 32 -16 50
l-7 32 250 0 c271 0 274 1 288 56 3 13 5 75 3 136 -4 99 -8 120 -32 170 -32
64 -80 111 -146 142 -68 31 -280 34 -367 6z m261 -194 c39 -17 60 -46 69 -98
l7 -38 -166 0 -166 0 7 38 c9 51 30 81 67 97 42 18 139 19 182 1z"/>
<path d="M7633 1599 c-45 -13 -63 -44 -63 -106 0 -40 5 -58 21 -74 18 -18 27
-19 92 -12 114 13 228 8 264 -11 33 -17 53 -61 53 -118 l0 -28 -142 0 c-170 0
-237 -15 -299 -68 -58 -50 -79 -100 -79 -195 0 -87 16 -136 58 -180 60 -64
143 -87 313 -87 200 0 304 43 350 145 16 35 19 70 19 291 l0 252 -28 53 c-56
109 -165 150 -394 148 -73 0 -147 -5 -165 -10z m363 -576 c-5 -43 -13 -65 -32
-83 -23 -23 -31 -25 -120 -25 -89 0 -97 2 -115 24 -25 31 -25 86 1 109 30 25
54 30 169 31 l104 1 -7 -57z"/>
<path d="M8522 1592 c-113 -36 -162 -106 -162 -232 0 -85 20 -138 67 -183 16
-15 101 -59 188 -97 88 -38 166 -76 173 -84 19 -19 9 -44 -23 -56 -33 -12
-163 -12 -230 1 -27 5 -78 12 -112 15 l-62 7 -11 -44 c-7 -24 -9 -64 -6 -89
11 -82 57 -100 271 -107 305 -10 405 53 405 254 -1 151 -47 202 -264 288 -77
31 -147 61 -153 67 -22 18 -15 48 15 59 33 13 196 6 265 -11 66 -17 93 -4 102
49 9 53 -2 115 -24 135 -50 46 -328 63 -439 28z"/>
</g>
</svg>
