<svg id="Layer_1" xmlns="http://www.w3.org/2000/svg" viewBox="0 0 429.6 261.6"><style>.st0{fill:#5193CF;} .st1{fill:#E65042;} .st2{fill:#D8423A;} .st3{fill:#FFFFFF;}</style><path id="Fill-21" class="st0" d="M257.8 130.8c0 72.6-57.3 130.8-129.8 130.8S0 202.4 0 130.8 57.3 0 129 0s128.8 57.3 128.8 130.8"/><path id="Fill-23" class="st1" d="M429.6 130.8c0 72.6-57.3 130.8-129 130.8S172 204.3 172 130.8 229 0 300.8 0s128.8 57.3 128.8 130.8"/><path id="Fill-25" class="st2" d="M171.8 130.8c0 38.2 17.2 72.6 43 95.5 25.8-23 42-57.3 42-95.5s-18-73.5-43-97.4c-24.8 24-42 59.2-42 97.4"/><path class="st3" d="M113 163H97l9.5-50-22 50H70.2l-2.6-49.6L58 163H43.5l12.3-65H81l1 40.3L99.8 98h26L113 163zm178.5-.6c-4.5 1.3-7.8 1.8-11.6 1.8-8 0-12.7-4-12.7-11.6 0-1.5.3-3 .5-4.8l1-5.3 1-4L277 98h15.7l-2.3 12h8.3l-2.3 13H288l-4 22-.4 2.3c0 2.8 1.7 4 5.4 4 1.8 0 3.3-.2 4.3-.5l-2 11.6h.2zM338 110.6c-1.4-.5-1.6-.5-2-.5-.7-.2-1.2-.2-1.2-.4H333c-5.2 0-9 2.3-13.7 8.5l1.5-8h-14.6l-9.8 53h16c6-32.3 8-38 16-38l2 .2 1.7.5 6-15zm-110 16.2c0 6.6 4 11.4 12.4 14.7 6.5 2.8 7.5 3.5 7.5 6 0 3.3-3 4.8-9.4 4.8-5 0-9.4-.8-14.7-2.3l-2 12.3h.7l3 .8 4.2.3c3.7.5 6.7.5 9 .5 16.7 0 25-5.5 25-17.6 0-7.3-3.5-11.6-11.8-14.8-6.8-2.5-7.5-3.3-7.5-5.8 0-2.8 2.8-4.3 8-4.3 3 0 7.5.3 11.6.8l2.3-12c-4.4-1-10.7-1-14.2-1-18 0-24.4 8-24.3 17.8zM164.8 163h-13l.3-5.4c-4 4.3-9.6 6.3-16.8 6.3-8.5 0-14.6-5.8-14.6-14.3 0-12.8 10.2-20.4 28-20.4 1.8 0 4 0 6.5.3.6-1.8.6-2.5.6-3.3 0-3.5-2.8-4.8-10.3-4.8-4.5 0-9.6.5-13 1.3l-2.4.7-1.6.2 2.3-12c8-2 13.2-2.7 19.2-2.7 13.7 0 21 5.3 21 15.3 0 2.8-.4 4.8-1.5 10.6l-3.3 19-.5 3-.5 3-.3 1.7v1.3h-.3zm-11.5-23.5l-3.5-.2c-9 0-13.6 2.8-13.6 8 0 3.3 2 5.5 5.6 5.5 6.5 0 11.3-5.5 11.5-13.3h.2zm64 22.3c-5.4 1.6-10.7 2.4-16.2 2.4-17.8 0-27-8.3-27-24 0-18 11.7-31.3 27.8-31.3 13.2 0 21.5 7.5 21.5 19 0 4-.5 8-1.8 13h-32v2c0 6 4.6 9.3 14 9.3 5.7 0 11-1 16.5-3.3l-2.6 13v-.2zm-8.4-31.3v-2.7c0-4.4-2.7-7-7.4-7-5 0-8.5 3.6-10 9.7h17.3zm179 8.5c-2.6 17.6-15 25.4-31.3 25.4-17.8 0-25-10.8-25-24.4 0-18.6 12.2-31.4 31.3-31.4 16.7 0 25.5 10.6 25.5 24 0 3 0 3.4-.6 6.4zm-16.7-6.8c0-5.5-2.2-10.6-8.7-10.6-8 0-13 9.5-13 18 0 7 3.4 12 9 12 3.4 0 11-5 12.2-13 .6-2 .6-4 .6-6.4z"/></svg>