<svg id="Layer_1" xmlns="http://www.w3.org/2000/svg" viewBox="0 0 429.6 261.6"><style>.st0{fill:#E74C3C;} .st1{fill:#F1C40F;} .st2{fill:#F39C12;} .st3{fill:#FFFFFF;}</style><path id="Fill-21" class="st0" d="M257.8 130.8c0 72.6-57.3 130.8-129.8 130.8S0 202.4 0 130.8 57.3 0 129 0s128.8 57.3 128.8 130.8"/><path id="Fill-23" class="st1" d="M429.6 130.8c0 72.6-57.3 130.8-129 130.8S172 204.3 172 130.8 229 0 300.8 0s128.8 57.3 128.8 130.8"/><path id="Fill-25" class="st2" d="M171.8 130.8c0 38.2 17.2 72.6 43 95.5 25.8-23 42-57.3 42-95.5s-18-73.5-43-97.4c-24.8 24-42 59.2-42 97.4"/><path class="st3" d="M300 99.7l-2.5 14.2c-5-2.5-8.4-3.7-12.4-3.7-10.3 0-17.7 10.2-17.7 24.6 0 10 5 16 13 16 3.4 0 7.4-1.2 12-3.4l-2.5 15c-5 1.2-8.4 2-12.2 2-15 0-24.4-11-24.4-28.5 0-23.2 13-39.6 31.3-39.6 2.4 0 4.7.2 6.4.7l5.4 1.4 3.5 1.3zm-45 9.7H254c-4.7 0-7.3 2.2-11.5 8.7l1.3-8H231L222 163h14c5-32.6 6.4-38.2 13-38.2h1c1.3-6.4 3-11 5.3-15.3l-.4-.3zm-80.3 53c-3.8 1.4-7 2-10 2-7 0-11-4-11-12 0-1.2 0-3 .3-4.6l1-5.3.6-4.2 6-36.4h13.8l-1.6 8h7l-1.7 13h-7l-3.8 22.2c-.2 1-.2 1.6-.2 2.2 0 2.7 1.3 3.8 4.7 3.8 1.6 0 3 0 3.8-.4l-1.8 11.7zM121.2 127c0 6.7 3 11.3 10.4 15 5.8 2.6 6.7 3.5 6.7 5.7 0 3.3-2.4 5-8 5-4.2 0-8-.8-12.4-2l-2 12 .6.3 2.4.4c1 .2 2 .4 3.8.4 3 .4 5.8.4 7.5.4 14.7 0 21.5-5.6 21.5-17.8 0-7.3-3-11.5-9.8-15-6-2.6-6.7-3.2-6.7-5.7 0-3 2.4-4.2 7-4.2 2.6 0 6.3.2 10 .7l2-12.2c-3.7-.7-9.2-1-12.3-1-15.5 0-21 8.2-20.8 18zm285 36.4h-13l.7-5c-4 4-8 5.7-13 5.7-10.2 0-17-8.8-17-22 0-18 10.5-33 22.7-33 5.5 0 9.5 2.4 13.3 7.3l3-18.7h14l-10.7 65.6zM386 150.7c6.4 0 11-7.6 11-18 0-7-2.5-10.4-7.4-10.4-6.2 0-11 7.3-11 17.8 0 7.2 2.6 10.7 7.4 10.7zM217.3 162c-5 1.7-9.3 2.3-14.4 2.3-15.6 0-23.6-8.2-23.6-24 0-18.2 10.2-31.7 24.2-31.7 11.5 0 19 7.5 19 19.3 0 4-.5 7.7-2 13.2h-27.4c-.2.7-.2 1-.2 1.5 0 6.2 4.2 9.3 12.2 9.3 5 0 9.5-1 14.4-3.3l-2.3 13.4zm-7.7-31.7v-2.7c0-4.4-2.4-7-6.7-7-4.5 0-7.6 3.4-9 9.6h15.6zm-141.4 33H54.4l8-50.5-18 50.4H35l-1.3-50-8.4 50h-13l11-65.5h20l.7 40.6 13.3-40.6H79l-10.8 65.5zm34.4-24h-3c-8 0-12 2.8-12 8 0 3.4 2 5.4 5 5.4 5.7 0 9.7-5.3 10-13.3zm10.2 24h-11.5l.2-5.7C98 162 93.3 164 86.8 164c-7.5 0-12.7-5.8-12.7-14.4 0-13 9-20.6 24.5-20.6 1.6 0 3.6.2 5.8.4.4-1.8.4-2.4.4-3.3 0-3.5-2.4-4.8-9-4.8-4 0-8.3.4-11.4 1.3l-2 .7-1.3.2 2-12c7-2 11.5-2.7 16.6-2.7 12 0 18.4 5.3 18.4 15.5 0 2.7-.2 4.7-1 10.7l-3.2 18.8-.4 3.3-.2 2.8-.2 2-.2 1.4zm209.5-24h-3c-8 0-12 2.8-12 8 0 3.4 2 5.4 5 5.4 5.6 0 9.8-5.3 10-13.3zm10.3 24H321l.2-5.7c-3.6 4.4-8.2 6.4-14.7 6.4-7.5 0-12.7-5.8-12.7-14.4 0-13 9-20.6 24.4-20.6 1.6 0 3.6.2 5.6.4.4-1.8.7-2.4.7-3.3 0-3.5-2.4-4.8-9-4.8-4 0-8.6.4-11.7 1.3l-1.8.7-1.3.2 2-12c7-2 11.5-2.7 16.6-2.7 12 0 18.2 5.3 18.2 15.5 0 2.7 0 4.7-1 10.7l-3 18.8-.4 3.3-.3 2.8-.2 2v1.4zm37.3-54h-1.4c-4.7 0-7.3 2.3-11.5 8.8l1.4-8h-12.7l-8.4 53.2H351c5-32.6 6.4-38.2 13-38.2h1c1.3-6.4 3-11 5.3-15.3l-.4-.3z"/></svg>