<svg id="Layer_1" xmlns="http://www.w3.org/2000/svg" viewBox="0 0 323 100"><style>.st0{fill:#64CC07;} .st1{fill:#FEFEFE;} .st2{fill:#020202;}</style><path class="st0" d="M36.2.7c3.9-.9 8.1-.9 12 .2 5.4 1.4 10.2 4.7 13.5 9.2 3.1 4.2 4.8 9.4 4.7 14.6-.1 2.3 0 4.6 0 6.8h11c1.9.1 3.9.5 5.2 1.9 1.1 1.1 1.4 2.7 1 4.2-2.7 11.9-5.3 23.8-8 35.7-.3 1.4-.9 2.7-1.9 3.6-1.2 1.2-3 1.7-4.7 1.7H15.1c-1.5 0-3-.2-4.2-1-1.5-.9-2.5-2.5-2.9-4.2-2.7-11.9-5.3-23.9-8-35.8-.3-1.3-.2-2.8.7-3.9 1.3-1.6 3.5-2.1 5.5-2.2h11v-7.2c0-5.5 2-11 5.5-15.2C26.2 4.9 31 1.9 36.2.7z"/><path class="st1" d="M39.4 8.3c4-.7 8.2.3 11.5 2.6 4.1 2.8 6.8 7.6 6.9 12.6v8.1H26.2c.1-2.9 0-5.8.1-8.6.2-3.6 1.7-7 4.1-9.6 2.2-2.8 5.5-4.6 9-5.1z"/><path class="st2" d="M267.8 31c.3-.1.7-.1 1-.1h9.1c.8 0 1.6 0 2.3.5.5.3.6 1 .6 1.5v43.5c0 .6-.1 1.3-.5 1.8-.5.4-1.1.5-1.8.5h-9.8c-.6 0-1.2 0-1.7-.4-.4-.5-.3-1.3-.4-1.9V32.9c-.1-.9.4-1.7 1.2-1.9zM94.1 31.7c1.2-.2 2.4-.2 3.6-.2h8.2c2.1.1 4.2 0 6.4 0 1 .1 2.1-.1 3.1 0h12c1.6 0 3.3-.1 4.9.1.7.1 1.3.6 1.3 1.3v8.3c0 .4 0 .9-.3 1.2-.3.4-.9.4-1.3.4h-9.8c-.6 0-1.3.3-1.2.9v32.5c0 .6-.1 1.4-.6 1.8-.7.5-1.6.5-2.5.5h-9.6c-.8 0-1.6 0-2.3-.3-.6-.3-.8-1-.8-1.6V44c.1-.6-.4-1.1-1-1.1-3.2-.1-6.4 0-9.6 0-.7 0-1.4-.5-1.3-1.2v-8.5c-.4-.7.1-1.3.8-1.5zM247.2 36.6c2.1-.3 4.1-.7 6.2-1 .8-.1 1.8.1 1.9 1 .1 2.5 0 5 .1 7.5h4.2c.6 0 1.2.4 1.5 1 .3.7.4 1.5.4 2.2v4.4c0 .5 0 1.1-.4 1.5-.3.4-.8.4-1.3.4h-4v14c0 .6.4 1.2.9 1.4.8.3 1.7.3 2.5.2.4.3.5.9.6 1.3.4 1.8.7 3.7.8 5.6 0 .7.1 1.4-.1 2.1-.9.6-2.1.6-3.2.9-3.8.6-7.9.9-11.4-1-2.8-1.5-4.4-4.6-4.5-7.7-.1-5.6 0-11.3 0-16.9-1 0-1.9.1-2.9-.1-1-.3-1.2-1.5-1.2-2.4v-5c0-.8.5-1.7 1.4-1.8 1.1-.1 2.2 0 3.3-.1v-4.6c0-.9.6-1.6 1.3-2 1.4-.6 2.7-.7 3.9-.9z"/><path class="st1" d="M31.2 42.4c-.1-.7.7-.9 1.2-.8h18.7c.5 0 1.2.1 1.3.7V47c0 .4-.4.6-.8.6-1.9.1-3.8 0-5.7.1-.1.3-.1.7-.1 1v15.4c0 .6.1 1.2-.1 1.7s-.8.6-1.3.6H40c-.8 0-1.7.1-2.4-.3-.1-.4-.1-.9-.1-1.3V49.4c0-.5 0-1-.1-1.5-.4-.4-1-.2-1.5-.2-1.5-.1-3.1.2-4.6-.2-.2-1.7-.1-3.4-.1-5.1z"/><path class="st2" d="M211.6 44.9c4.2-1.9 8.8-2.2 13.3-2.1 2.4.1 4.8.2 7.1 1 .5.1.7.5.7.9.2 1.9-.2 3.8-.7 5.5-.3.8-.6 1.7-1.3 2.1-1.5 0-2.9-.4-4.4-.5-1.7-.2-3.5-.5-5.2 0-.7.1-1.4 1-.8 1.7.7.7 1.5 1.1 2.4 1.5 2.7 1.3 5.5 2.5 7.8 4.5 1.5 1.3 2.7 2.9 3.4 4.7.5 1.2.7 2.5.7 3.8 0 2.4-.5 4.9-1.9 6.9-1.8 2.5-4.9 3.8-7.9 4.3-4.1.7-8.3.5-12.4 0-2.5-.4-5.1-.7-7.5-1.6-.4-1-.4-2.1-.5-3.1-.1-1.5-.1-3 .2-4.4.1-.5.3-1.1.7-1.5.4-.1.7.1 1.1.1 2.6.7 5.3 1 8 1 1.4 0 2.9.1 4.2-.5.7-.3 1-1.4.3-1.9-1-.9-2.4-1.3-3.6-1.8-2-.8-4-1.7-5.7-3-1.8-1.3-3.3-3-3.9-5.1-.8-2.6-.8-5.5.6-7.9 1.2-2.2 3.2-3.7 5.3-4.6zM144 44.1c3.1-.1 6.1 0 9.2-.1h6.7c.6 0 1.1.4 1.1 1v7.7c0 .6-.4 1.3-1.1 1.4-2 .1-4.1 0-6 .6-1.2.4-2.5 1-3.3 2.1-.6.9-.8 2.1-.8 3.1V76c0 .7-.1 1.5-.5 2s-1.1.6-1.7.6h-8.9c-.8 0-1.7-.2-2.3-.9-.5-.6-.7-1.5-.7-2.3V51.5c0-1.9.5-3.9 1.9-5.2 1.8-1.6 4.2-2.1 6.4-2.2zM167 44.2c.5-.2 1-.2 1.5-.2h8.6c1.4 0 2.9 1.1 3 2.6v16.8c0 1 .2 2.1 1.1 2.8 1.1.8 2.9.5 3.6-.7.4-.6.5-1.3.5-1.9V46.9c0-.8 0-1.6.5-2.3.4-.5 1.1-.7 1.8-.7h8.7c.8 0 1.7.2 2.3.8.6.6.8 1.5.8 2.4v21.4c0 2.2-.4 4.4-1.5 6.4-.9 1.7-2.5 3-4.4 3.5-1.4.4-2.9.3-4.4.3h-10.9c-2.7 0-5.6.3-8.1-.9-2-.9-3.5-2.7-4.2-4.7-.9-2.5-.7-5.1-.7-7.7V47.1c.2-1.1.6-2.4 1.8-2.9zM284.4 44.6c.5-.5 1.2-.5 1.8-.6h9.6c.7 0 1.4-.1 2 .2 1 .5 1.7 1.4 2.1 2.4 1.5 4.3 3.1 8.7 4.6 13 1.5-3.7 2.9-7.3 4.4-10.9.4-1 .7-2 1.2-2.9.6-1 1.5-1.8 2.7-1.8h8.2c.6.1 1.4.1 1.9.6.2.5.1 1-.1 1.5-6 14.1-12 28.1-17.9 42.2-.5 1.4-1.6 3.1-3.2 3.2h-7.9c-.7 0-1.6-.2-1.7-1-.1-.5.2-1 .4-1.4 1.5-3.6 3.1-7.3 4.6-10.9.1-.2.2-.4 0-.6-4.2-10.4-8.4-20.8-12.6-31.1-.3-.6-.6-1.4-.1-1.9z"/><path class="st0" d="M23.8 80.7c2.2-.4 4.6.1 6.6 1.2 2.8 1.7 4.7 4.8 4.8 8.1.1 2.2-.6 4.3-1.9 6.1-1.5 2-3.8 3.4-6.2 3.8-2.5.4-5.2-.2-7.3-1.7-2-1.5-3.5-3.7-3.9-6.2-.5-2.5.1-5.3 1.7-7.4 1.4-2.1 3.7-3.5 6.2-3.9zM56.8 80.7c2-.3 4.1 0 5.9.9 2.4 1.2 4.3 3.4 5 6.1.8 2.7.3 5.7-1.2 8-1.4 2.2-3.8 3.8-6.4 4.2-2.5.5-5.3-.1-7.4-1.6-2.1-1.5-3.6-3.8-4-6.3-.5-2.6.2-5.3 1.7-7.5 1.6-2 3.9-3.4 6.4-3.8z"/></svg>