<svg id="svg2" xmlns="http://www.w3.org/2000/svg" viewBox="0 0 172.4 55.8"><style>.st0{fill:#2B3894;} .st1{fill:#F79510;}</style><g id="g4163"><g id="g12"><path id="path14" class="st0" d="M60.7 55l8.8-54h14l-8.8 54h-14"/></g><g id="g16"><path id="path18" class="st0" d="M125.3 2.3c-2.7-1-7-2.3-12.5-2.3C99 0 89.3 7.3 89.3 17.8c0 7.8 7 12 12 14.7 5.6 2.6 7.4 4.3 7.4 6.7 0 3.6-4.4 5.3-8.4 5.3-5.6 0-8.6-.8-13.2-2.8l-1.6-1-2 12.2c3.2 1.4 9.2 2.7 15.5 2.8 14.6 0 24-7.2 24.2-18.5 0-6-3.6-10.8-11.7-14.7-5-2.4-8-4-8-6.7 0-2.3 2.7-4.7 8-4.7 4.6 0 8 1 10.6 2l1.3.7 2-11.7"/></g><g id="g20"><path id="path22" class="st0" d="M144 35.8l5.5-15 1.8-5.3 1 4.7 3.2 15.6H144zM161 1h-10.7c-3.3 0-6 1-7.4 4.4L122 55H137s2.2-6.6 2.8-8h18l1.6 8h13L161 1"/></g><g id="g24"><path id="path26" class="st0" d="M49 1L35.4 37.8 34 30.4c-2.6-8.6-10.6-18-19.4-22.7L27 55H42l22-54H49"/></g><g id="g28"><path id="path30" class="st1" d="M22.7 1H.2L0 2c17.5 4.6 29 15.4 34 28.4L29 5.6C28.2 2 25.7 1 22.7 1"/></g></g></svg>