<?xml version="1.0" encoding="UTF-8" standalone="no"?>
<svg width="100px" height="100px" viewBox="0 0 100 100" version="1.1" xmlns="http://www.w3.org/2000/svg" xmlns:xlink="http://www.w3.org/1999/xlink">
    <!-- Generator: Sketch 3.7.2 (28276) - http://www.bohemiancoding.com/sketch -->
    <title>costs</title>
    <desc>Created with Sketch.</desc>
    <defs></defs>
    <g id="Page-1" stroke="none" stroke-width="1" fill="none" fill-rule="evenodd">
        <g id="costs" fill="#A0A0A0">
            <g id="Group-3-Copy" transform="translate(16.000000, 14.000000)">
                <path d="M19.7733046,27.4990899 C23.0635758,27.4990899 26.1533966,26.1981086 28.473622,23.8359048 C30.4746053,21.7983854 32.8090857,18.0316327 32.5660463,11.6577389 C32.3978018,7.24420666 30.2115033,4.13044751 27.2666965,2.22825638 C27.1663834,2.14799151 26.5402182,1.78809418 26.337128,1.67934823 C24.728774,0.817666006 22.9495356,0.28273948 21.1766327,0.0631762208 C20.7280394,0.00759495551 19.1430917,-0.0153625236 18.8576392,0.0107019828 C13.1778034,0.528885084 7.26161572,4.28044788 6.98021095,11.6577389 C6.73717156,18.0316327 9.07182801,21.7983854 11.0729872,23.8359048 C13.3930367,26.1981086 16.4826815,27.4990899 19.7733046,27.4990899 L19.7733046,27.4990899 Z M10.4976826,11.7866805 C10.7092201,6.2385655 15.2979305,3.5861999 19.7731287,3.40944457 C21.2466759,3.46761503 22.7314865,3.79626947 24.069347,4.40628248 C22.7666841,7.69610651 19.4512466,9.20025292 16.5699716,9.49973583 C15.6034456,9.60019638 14.9028375,10.4501409 15.0052625,11.3981295 C15.101,12.2843227 15.8644358,12.9424946 16.753175,12.9424946 C16.8152988,12.9424946 16.8777745,12.939215 16.9407782,12.9328283 C21.5669741,12.4521022 25.2097491,10.060209 26.9793082,6.49316912 C28.1774343,7.81262003 28.9637485,9.56739998 29.0483988,11.7868531 C29.2043241,15.8722487 28.1286856,19.2107495 25.9383393,21.4409046 C24.2879241,23.1214611 22.0984577,24.0468374 19.7731287,24.0468374 C17.4477996,24.0468374 15.2583332,23.1212885 13.607742,21.4409046 C11.4173957,19.2104043 10.3419332,15.8720761 10.4976826,11.7866805 L10.4976826,11.7866805 Z M27.5616524,44.3709384 C27.5616524,45.3242779 26.7735782,46.0970646 25.8017726,46.0970646 L22.3689512,46.0970646 C21.3971457,46.0970646 20.6090715,45.3242779 20.6090715,44.3709384 C20.6090715,43.4175988 21.3971457,42.6448121 22.3689512,42.6448121 L25.8017726,42.6448121 C26.7735782,42.6448121 27.5616524,43.4175988 27.5616524,44.3709384 L27.5616524,44.3709384 Z M66.5102545,42.9900374 L42.4871923,42.9900374 C41.5153867,42.9900374 40.6519897,43.7062072 40.6519897,44.6595467 L40.6519897,47.3600712 C40.6519897,48.3134107 41.4400639,49.0861975 42.4118695,49.0861975 C43.383675,49.0861975 44.1717492,48.3134107 44.1717492,47.3600712 L44.1717492,46.4422899 L64.762342,46.4422899 L64.762342,59.0430115 L60.1866547,59.0430115 L60.1866547,54.3118721 C60.1866547,53.3585325 59.3354009,52.6563444 58.3635953,52.6563444 L34.3403571,52.6563444 C33.3685515,52.6563444 32.556543,53.3585325 32.556543,54.3118721 L32.556543,70.4635806 C32.556543,71.4169202 33.3683755,72.161571 34.3403571,72.161571 L58.3635953,72.161571 C59.3354009,72.161571 60.1866547,71.4169202 60.1866547,70.4635806 L60.1866547,62.495264 L66.5102545,62.495264 C67.4820601,62.495264 68.2821014,61.7642496 68.2821014,60.81091 L68.2821014,44.6595467 C68.2821014,43.7062072 67.4822361,42.9900374 66.5102545,42.9900374 L66.5102545,42.9900374 Z M56.6668952,68.7093185 L36.0763024,68.7093185 L36.0763024,56.1085969 L56.6668952,56.1085969 L56.6668952,68.7093185 L56.6668952,68.7093185 Z M47.7421932,62.3552752 C47.7421932,63.3086147 46.9579908,64.0487777 45.9860092,64.0487777 L45.9784417,64.0487777 C45.0066361,64.0487777 44.218562,63.3086147 44.218562,62.3552752 C44.218562,61.4019357 45.0066361,60.6617727 45.9784417,60.6617727 C46.9502473,60.6617727 47.7421932,61.4019357 47.7421932,62.3552752 L47.7421932,62.3552752 Z M32.2397646,44.6762901 L31.8972921,42.8629945 C30.8096864,37.1042921 25.0244338,34.5264951 19.7731287,34.5264951 C14.5218235,34.5264951 8.73657092,37.1041195 7.64896525,42.8628219 L3.88651838,62.7843902 L23.7129714,62.7842176 C24.684777,62.7842176 25.4728511,63.5570043 25.4728511,64.5103438 C25.4728511,65.4636833 24.684953,66.2364701 23.7129714,66.2364701 L1.77079098,66.2366427 C1.24793071,66.2366427 0.752172595,66.0086214 0.417795447,65.6143742 C0.0835942869,65.2201269 -0.0549082474,64.7003903 0.0403012457,64.1961888 L4.18798578,42.2341667 C5.64375829,34.5249416 13.0644671,31.0742426 19.7731287,31.0742426 C26.4817902,31.0742426 33.902323,34.5249416 35.3582715,42.2341667 L35.7007441,44.0474623 C35.877788,44.9847489 35.2465192,45.8854415 34.2907285,46.0592625 C33.3356418,46.2329108 32.4168085,45.6137493 32.2397646,44.6762901 L32.2397646,44.6762901 Z" id="Shape"></path>
            </g>
        </g>
    </g>
</svg>