<?xml version="1.0" encoding="UTF-8" standalone="no"?>
<svg width="100px" height="100px" viewBox="0 0 100 100" version="1.1" xmlns="http://www.w3.org/2000/svg" xmlns:xlink="http://www.w3.org/1999/xlink">
    <!-- Generator: Sketch 3.7.2 (28276) - http://www.bohemiancoding.com/sketch -->
    <title>transparency_cube</title>
    <desc>Created with Sketch.</desc>
    <defs></defs>
    <g id="Page-1" stroke="none" stroke-width="1" fill="none" fill-rule="evenodd">
        <g id="transparency_cube" fill="#FFF">
            <path d="M82.0759669,19.5757013 C82.0759669,18.7052839 81.3709237,18 80.5008035,18 L28.2927477,18 C27.8571625,18 27.4629516,18.1768987 27.177742,18.4626259 L18.462678,27.180456 C18.1768383,27.465763 18,27.8601085 18,28.2958424 L18,80.5217269 C18,81.3919342 18.7050431,82.0974282 19.5751634,82.0974282 L71.7832192,82.0974282 C72.2114536,82.0974282 72.5991538,81.9259919 72.8833133,81.6484584 C72.8877237,81.6442565 72.8927643,81.6404748 72.8971747,81.6358528 L81.614759,72.9152915 C81.6168593,72.9129804 81.6189595,72.9106694 81.6208497,72.9083584 C81.9018588,72.6238918 82.0757569,72.2329078 82.0757569,71.8009555 L82.0757569,19.5757013 L82.0759669,19.5757013 Z M78.9256401,70.2254643 L73.3583826,70.2254643 L73.3583826,28.9483929 L78.9256401,23.3794443 L78.9256401,70.2254643 L78.9256401,70.2254643 Z M76.697729,73.3768669 L73.3583826,76.7173537 L73.3583826,73.3768669 L76.697729,73.3768669 L76.697729,73.3768669 Z M26.7175843,23.3794443 L26.7175843,26.719931 L23.3782379,26.719931 L26.7175843,23.3794443 L26.7175843,23.3794443 Z M21.1503268,29.8715437 L26.7175843,29.8715437 L26.7175843,71.1484051 L21.1503268,76.7173537 L21.1503268,29.8715437 L21.1503268,29.8715437 Z M70.2080558,78.9460256 L23.3780279,78.9460256 L28.9452854,73.3768669 L70.2080558,73.3768669 L70.2080558,78.9460256 L70.2080558,78.9460256 Z M70.2080558,70.2254643 L29.8679111,70.2254643 L29.8679111,29.8715437 L70.2080558,29.8715437 L70.2080558,70.2254643 L70.2080558,70.2254643 Z M71.1311015,26.7201411 L29.8679111,26.7201411 L29.8679111,21.1514026 L76.698359,21.1514026 L71.1311015,26.7201411 L71.1311015,26.7201411 Z" id="Shape"></path>
        </g>
    </g>
</svg>