<?xml version="1.0" encoding="UTF-8" standalone="no"?>
<svg width="47px" height="46px" viewBox="0 0 47 46" version="1.1" xmlns="http://www.w3.org/2000/svg" xmlns:xlink="http://www.w3.org/1999/xlink" xmlns:sketch="http://www.bohemiancoding.com/sketch/ns">
    <!-- Generator: Sketch 3.4.3 (16044) - http://www.bohemiancoding.com/sketch -->
    <title>Slice 1</title>
    <desc>Created with Sketch.</desc>
    <defs></defs>
    <g id="Page-1" stroke="none" stroke-width="1" fill="none" fill-rule="evenodd" sketch:type="MSPage">
        <g id="stats121" sketch:type="MSLayerGroup" transform="translate(1.000000, 0.000000)" fill="#000000">
            <g id="Capa_1" sketch:type="MSShapeGroup">
                <g id="Statics">
                    <path fill="#27A95C" d="M44.3746667,2.16478788 C44.8012121,1.52218182 44.6241818,0.659333333 43.9815758,0.232787879 C43.3375758,-0.192363636 42.4761212,-0.0167272727 42.0495758,0.627272727 L36.8933939,8.43193939 C36.6787273,8.39709091 36.4654545,8.3650303 36.2424242,8.3650303 C33.9396364,8.3650303 32.0606061,10.2426667 32.0606061,12.5468485 C32.0606061,12.9901212 32.1484242,13.409697 32.2766667,13.8111515 L27.2975152,20.1605455 C26.6549091,19.7590909 25.9035758,19.5165455 25.092303,19.5165455 C22.8438788,19.5165455 21.0164242,21.3049697 20.9272121,23.5310909 L13.0500606,28.1185455 C12.2833939,27.1344242 11.0999394,26.4862424 9.75757576,26.4862424 C7.452,26.4862424 5.57575758,28.3638788 5.57575758,30.6680606 C5.57575758,31.5741212 5.87406061,32.4104848 6.36472727,33.096303 L0.228606061,42.4482424 C-0.193757576,43.0936364 -0.0153333333,43.9564848 0.628666667,44.3788485 C0.864242424,44.5335758 1.13048485,44.6074545 1.39254545,44.6074545 C1.8469697,44.6074545 2.2930303,44.3872121 2.55927273,43.9787879 L8.65775758,34.6867879 C9.01042424,34.7815758 9.3770303,34.8498788 9.75757576,34.8498788 C12.006,34.8498788 13.8334545,33.0642424 13.9226667,30.8339394 L21.7998182,26.2492727 C22.5650909,27.2347879 23.7485455,27.8801818 25.0909091,27.8801818 C27.3964848,27.8801818 29.2727273,26.0039394 29.2727273,23.6983636 C29.2727273,23.2564848 29.186303,22.8355152 29.0594545,22.4354545 L34.0358182,16.0874545 C34.6784242,16.4875152 35.4297576,16.7300606 36.2410303,16.7300606 C38.5452121,16.7300606 40.4228485,14.8538182 40.4228485,12.5482424 C40.4228485,11.4790909 40.0074545,10.5144848 39.3481212,9.77430303 L44.3746667,2.16478788 L44.3746667,2.16478788 Z M9.75757576,32.062 C8.98812121,32.062 8.36363636,31.4389091 8.36363636,30.6680606 C8.36363636,29.9 8.98812121,29.2741212 9.75757576,29.2741212 C10.5270303,29.2741212 11.1515152,29.9 11.1515152,30.6680606 C11.1515152,31.4389091 10.5270303,32.062 9.75757576,32.062 L9.75757576,32.062 Z M25.0909091,25.092303 C24.3214545,25.092303 23.6969697,24.4692121 23.6969697,23.6983636 C23.6969697,22.930303 24.3214545,22.3044242 25.0909091,22.3044242 C25.8603636,22.3044242 26.4848485,22.930303 26.4848485,23.6983636 C26.4848485,24.4692121 25.8603636,25.092303 25.0909091,25.092303 L25.0909091,25.092303 Z M36.2424242,13.9407879 C35.4729697,13.9407879 34.8484848,13.316303 34.8484848,12.5468485 C34.8484848,11.7787879 35.4729697,11.1529091 36.2424242,11.1529091 C37.0118788,11.1529091 37.6363636,11.7787879 37.6363636,12.5468485 C37.6363636,13.316303 37.0104848,13.9407879 36.2424242,13.9407879 L36.2424242,13.9407879 Z M8.36363636,41.8195758 C7.59278788,41.8195758 6.96969697,42.4454545 6.96969697,43.2135152 C6.96969697,43.9843636 7.59278788,44.6074545 8.36363636,44.6074545 C9.13448485,44.6074545 9.75757576,43.9843636 9.75757576,43.2135152 C9.75757576,42.4454545 9.13587879,41.8195758 8.36363636,41.8195758 L8.36363636,41.8195758 Z M15.3333333,41.8195758 C14.5624848,41.8195758 13.9393939,42.4454545 13.9393939,43.2135152 C13.9393939,43.9843636 14.5624848,44.6074545 15.3333333,44.6074545 C16.1041818,44.6074545 16.7272727,43.9843636 16.7272727,43.2135152 C16.7272727,42.4454545 16.1055758,41.8195758 15.3333333,41.8195758 L15.3333333,41.8195758 Z M22.3030303,41.8195758 C21.5321818,41.8195758 20.9090909,42.4454545 20.9090909,43.2135152 C20.9090909,43.9843636 21.5321818,44.6074545 22.3030303,44.6074545 C23.0738788,44.6074545 23.6969697,43.9843636 23.6969697,43.2135152 C23.6969697,42.4454545 23.0752727,41.8195758 22.3030303,41.8195758 L22.3030303,41.8195758 Z M29.2727273,41.8195758 C28.5018788,41.8195758 27.8787879,42.4454545 27.8787879,43.2135152 C27.8787879,43.9843636 28.5018788,44.6074545 29.2727273,44.6074545 C30.0449697,44.6074545 30.6666667,43.9843636 30.6666667,43.2135152 C30.6666667,42.4454545 30.0449697,41.8195758 29.2727273,41.8195758 L29.2727273,41.8195758 Z M36.2424242,41.8195758 C35.4715758,41.8195758 34.8484848,42.4454545 34.8484848,43.2135152 C34.8484848,43.9843636 35.4715758,44.6074545 36.2424242,44.6074545 C37.0146667,44.6074545 37.6363636,43.9843636 37.6363636,43.2135152 C37.6363636,42.4454545 37.0146667,41.8195758 36.2424242,41.8195758 L36.2424242,41.8195758 Z M43.2121212,41.8195758 C42.4412727,41.8195758 41.8181818,42.4454545 41.8181818,43.2135152 C41.8181818,43.9843636 42.4412727,44.6074545 43.2121212,44.6074545 C43.9843636,44.6074545 44.6060606,43.9843636 44.6060606,43.2135152 C44.6060606,42.4454545 43.9843636,41.8195758 43.2121212,41.8195758 L43.2121212,41.8195758 Z M1.39393939,37.6377576 C2.16478788,37.6377576 2.78787879,37.0146667 2.78787879,36.2438182 C2.78787879,35.4757576 2.16478788,34.8498788 1.39393939,34.8498788 C0.623090909,34.8498788 -1.99504042e-15,35.4757576 -1.99504042e-15,36.2438182 C-1.99504042e-15,37.0146667 0.623090909,37.6377576 1.39393939,37.6377576 L1.39393939,37.6377576 Z M1.39393939,30.6680606 C2.16478788,30.6680606 2.78787879,30.0449697 2.78787879,29.2741212 C2.78787879,28.5060606 2.16478788,27.8801818 1.39393939,27.8801818 C0.623090909,27.8801818 -1.99504042e-15,28.5060606 -1.99504042e-15,29.2741212 C-1.99504042e-15,30.0449697 0.623090909,30.6680606 1.39393939,30.6680606 L1.39393939,30.6680606 Z M1.39393939,23.6983636 C2.16478788,23.6983636 2.78787879,23.0752727 2.78787879,22.3044242 C2.78787879,21.5363636 2.16478788,20.9104848 1.39393939,20.9104848 C0.623090909,20.9104848 -1.99504042e-15,21.5349697 -1.99504042e-15,22.3044242 C-1.99504042e-15,23.0752727 0.623090909,23.6983636 1.39393939,23.6983636 L1.39393939,23.6983636 Z M1.39393939,16.7286667 C2.16478788,16.7286667 2.78787879,16.1069697 2.78787879,15.3347273 C2.78787879,14.5652727 2.16478788,13.9407879 1.39393939,13.9407879 C0.623090909,13.9407879 -1.99504042e-15,14.5652727 -1.99504042e-15,15.3347273 C-1.99504042e-15,16.1083636 0.623090909,16.7286667 1.39393939,16.7286667 L1.39393939,16.7286667 Z M1.39393939,9.7589697 C2.16478788,9.7589697 2.78787879,9.13727273 2.78787879,8.3650303 C2.78787879,7.59557576 2.16478788,6.97109091 1.39393939,6.97109091 C0.623090909,6.97109091 -1.99504042e-15,7.59557576 -1.99504042e-15,8.3650303 C-1.99504042e-15,9.13866667 0.623090909,9.7589697 1.39393939,9.7589697 L1.39393939,9.7589697 Z M1.39393939,2.78927273 C2.16478788,2.78927273 2.78787879,2.16757576 2.78787879,1.39533333 C2.78787879,0.625878788 2.16478788,0.00139393939 1.39393939,0.00139393939 C0.623090909,0.00139393939 -1.99504042e-15,0.625878788 -1.99504042e-15,1.39533333 C-1.99504042e-15,2.1689697 0.623090909,2.78927273 1.39393939,2.78927273 L1.39393939,2.78927273 Z" id="Shape"></path>
                </g>
            </g>
        </g>
    </g>
</svg>