<?xml version="1.0" encoding="UTF-8" standalone="no"?>
<svg width="150px" height="150px" viewBox="0 0 150 150" version="1.1" xmlns="http://www.w3.org/2000/svg" xmlns:xlink="http://www.w3.org/1999/xlink">
    <!-- Generator: Sketch 3.7.2 (28276) - http://www.bohemiancoding.com/sketch -->
    <title>exit</title>
    <desc>Created with Sketch.</desc>
    <defs></defs>
    <g id="Page-1" stroke="none" stroke-width="1" fill="none" fill-rule="evenodd">
        <g id="exit">
            <g id="Group" transform="translate(59.000000, 32.000000)">
                <g>
                    <path d="M26.1272374,13.2553644 C26.1272374,20.3154839 20.4032386,26.0390017 13.3420368,26.0390017 C6.28123587,26.0390017 0.557357377,20.3154839 0.557357377,13.2553644 C0.557357377,6.19332081 6.28123587,0.469883251 13.3420368,0.469883251 C20.4032386,0.469883251 26.1272374,6.19332081 26.1272374,13.2553644" id="Fill-4" fill="#D04B47"></path>
                    <path d="M22.2394878,13.2534404 C22.2394878,18.1689042 18.2559374,22.1501698 13.3420368,22.1501698 C8.42933875,22.1501698 4.44562803,18.1689042 4.44562803,13.2534404 C4.44562803,8.33897858 8.42933875,4.35771298 13.3420368,4.35771298 C18.2559374,4.35771298 22.2394878,8.33897858 22.2394878,13.2534404" id="Fill-5" fill="#AE3933"></path>
                    <path d="M21.4995367,12.5146116 C21.4995367,17.4291135 17.5159863,21.4113411 12.6020857,21.4113411 C7.68938766,21.4113411 3.70583727,17.4291135 3.70583727,12.5146116 C3.70583727,7.59918782 7.68938766,3.61792222 12.6020857,3.61792222 C17.5159863,3.61792222 21.4995367,7.59918782 21.4995367,12.5146116" id="Fill-6" fill="#E26350"></path>
                    <path d="M15.2448255,28.1101432 C15.2448255,29.6044757 14.0322837,30.8178191 12.5367488,30.8178191 C11.0404121,30.8178191 9.82827122,29.6044757 9.82827122,28.1101432 L9.82827122,16.8891416 C9.82827122,15.3945285 11.0404121,14.1811049 12.5367488,14.1811049 C14.0322837,14.1811049 15.2448255,15.3945285 15.2448255,16.8891416 L15.2448255,28.1101432" id="Fill-7" fill="#F0C8A4"></path>
                    <path d="M13.1905192,41.4837772 C13.1905192,42.6618467 11.9779775,43.6174499 10.4824425,43.6174499 C8.98610586,43.6174499 7.77396495,32.6440473 7.77396495,32.6440473 C7.77396495,31.4663786 8.98610586,30.5107755 10.4824425,30.5107755 C11.9779775,30.5107755 13.1905192,31.4663786 13.1905192,32.6440473 L13.1905192,41.4837772" id="Fill-8" fill="#DF9054"></path>
                    <polygon id="Fill-9" fill="#F0C8A4" points="12.5279303 42.397693 27.6736791 42.397693 27.6736791 57.9414761 12.5279303 57.9414761"></polygon>
                    <path d="M27.6652614,26.4454537 C26.6439205,26.4454537 25.7656795,27.0170519 25.3043123,27.8512004 C25.1732376,26.4791242 24.0296404,25.4000623 22.6226911,25.4000623 C21.6013501,25.4000623 20.72351,25.9716605 20.2621429,26.8058091 C20.1306673,25.4329312 18.9874709,24.3538693 17.5797199,24.3538693 C16.5579781,24.3538693 15.680138,24.9254674 15.21837,25.759616 C15.0872953,24.3875398 13.9440989,23.3085581 12.5367488,23.3085581 C11.0404121,23.3085581 9.82827122,24.5218213 9.82827122,26.0165546 L9.82827122,41.7210747 C9.82827122,47.3941667 14.4279131,51.9938085 20.1018068,51.9938085 C25.7736963,51.9938085 30.3733381,47.3941667 30.3733381,41.7210747 L30.3733381,29.1535304 C30.3733381,27.6587971 29.1607964,26.4454537 27.6652614,26.4454537" id="Fill-10" fill="#F0C8A4"></path>
                    <path d="M27.6652614,27.4363308 C26.6439205,27.4363308 25.7656795,27.9622332 25.3043123,28.7294414 C25.1732376,27.4671955 24.0296404,26.4763184 22.6226911,26.4763184 C21.6169829,26.4763184 20.7547755,26.988993 20.2877966,27.7361593 L20.2877966,50.9083332 C25.8731047,50.8169416 30.3733381,46.6321694 30.3733381,41.4753596 L30.3733381,29.9259495 C30.3733381,28.5518692 29.1607964,27.4363308 27.6652614,27.4363308" id="Fill-11" fill="#FBE9D7"></path>
                    <polygon id="Fill-12" fill="#EFF2EF" points="10.8315744 50.4561854 29.3704358 50.4561854 29.3704358 85.7926582 10.8315744 85.7926582"></polygon>
                    <polygon id="Fill-13" fill="#FEFEFD" points="20.1018068 50.9404004 29.3704358 50.9404004 29.3704358 85.7926582 20.1018068 85.7926582"></polygon>
                    <polygon id="Fill-14" fill="#182027" points="9.27992176 55.0317768 30.9216876 55.0317768 30.9216876 86.3561381 9.27992176 86.3561381"></polygon>
                    <polygon id="Fill-15" fill="#31414E" points="20.1018068 55.4609527 30.9216876 55.4609527 30.9216876 86.3561381 20.1018068 86.3561381"></polygon>
                    <path d="M27.9686975,52.9197495 C27.9686975,53.6464729 27.3794623,54.2349064 26.6531398,54.2349064 C25.9268173,54.2349064 25.3379829,53.6464729 25.3379829,52.9197495 C25.3379829,52.1930262 25.9268173,51.6041918 26.6531398,51.6041918 C27.3794623,51.6041918 27.9686975,52.1930262 27.9686975,52.9197495" id="Fill-16" fill="#182027"></path>
                    <path d="M28.4448957,52.9197495 C28.4448957,53.6464729 27.8560614,54.2349064 27.1297388,54.2349064 C26.4034163,54.2349064 25.814582,53.6464729 25.814582,52.9197495 C25.814582,52.1930262 26.4034163,51.6041918 27.1297388,51.6041918 C27.8560614,51.6041918 28.4448957,52.1930262 28.4448957,52.9197495" id="Fill-17" fill="#31414E"></path>
                </g>
            </g>
        </g>
    </g>
</svg>