<?xml version="1.0" encoding="UTF-8" standalone="no"?>
<svg width="100px" height="100px" viewBox="0 0 100 100" version="1.1" xmlns="http://www.w3.org/2000/svg" xmlns:xlink="http://www.w3.org/1999/xlink">
    <!-- Generator: Sketch 3.7.2 (28276) - http://www.bohemiancoding.com/sketch -->
    <title>investments</title>
    <desc>Created with Sketch.</desc>
    <defs></defs>
    <g id="Page-1" stroke="none" stroke-width="1" fill="none" fill-rule="evenodd">
        <g id="investments" fill="#A0A0A0">
            <g id="Group-4" transform="translate(16.000000, 16.000000)">
                <g id="Group-2">
                    <path d="M65.6306159,22.468009 L45.0574451,1.74100272 C44.0370159,0.712943215 42.5578049,0.300475791 41.156772,0.648689495 C40.4181951,0.83108715 39.7577963,1.21453677 39.2352378,1.74100272 C38.7682268,2.21150577 38.4164256,2.79393464 38.2148085,3.44476264 C37.2828439,6.48955985 35.6719646,9.13639855 33.2875341,11.5365859 C30.1028073,14.7430537 25.9552561,17.1722589 21.5669988,19.7403349 C16.9092329,22.4597182 12.0971683,25.278591 8.15329146,29.2498854 C4.80192195,32.6304601 2.52035732,36.3903391 1.18310122,40.7554466 C0.73254878,42.2291367 1.12549634,43.8230435 2.20353049,44.913284 L22.7767012,65.6402903 C23.7971305,66.6683498 25.2763415,67.0808172 26.6773744,66.7326035 C27.4159512,66.5460604 28.07635,66.1667562 28.5989085,65.6402903 C29.0659195,65.1697872 29.4177207,64.5873584 29.6193378,63.932385 C30.5533598,60.8875877 32.164239,58.240749 34.5507268,55.8405617 C37.7333963,52.6340939 41.8788902,50.2090341 46.2712622,47.6430308 C50.9249134,44.9195021 55.7390354,42.1006293 59.6808549,38.1293349 C63.0322244,34.7529056 65.313789,30.9888812 66.6531024,26.6237737 C67.1015976,25.1521563 66.7065927,23.5520314 65.6306159,22.468009 L65.6306159,22.468009 Z M25.6878049,62.7074189 C18.8739707,55.8426344 11.9284683,48.8431244 5.11463415,41.9804126 C10.9615293,22.9094942 36.303561,23.7427199 42.1463415,4.67180141 C48.9601756,11.5345132 55.9077354,18.5340232 62.7236268,25.3988077 C56.8746744,44.4655807 31.5326427,43.6365004 25.6878049,62.7074189 L25.6878049,62.7074189 Z" id="Shape"></path>
                    <path d="M41.2452366,31.4096395 C40.5745512,30.8437922 39.8997512,30.4582699 39.2208366,30.2675814 C38.5460366,30.076893 37.8712366,30.000203 37.1882073,30.0499479 C36.5134073,30.1017654 35.8221488,30.2572179 35.1308902,30.5245963 C34.4396317,30.7961201 33.7442585,31.0904436 33.0447707,31.4324392 C31.9399915,30.1535829 30.8352122,28.8892355 29.7304329,27.7160869 C30.2283037,27.2621655 30.7117732,27.0320957 31.1767268,27.0155141 C31.6437378,26.9947871 32.0922329,27.0445319 32.5180976,27.1523124 C32.9521915,27.2621655 33.3492537,27.355437 33.7154561,27.4279816 C34.0857732,27.5005261 34.4067146,27.4196908 34.6885671,27.1813302 C34.986878,26.9222426 35.1514634,26.5864651 35.1740939,26.1822885 C35.1946671,25.7739665 35.0424256,25.3760079 34.7029683,24.9884129 C34.2688744,24.4868194 33.7463159,24.1821324 33.1188341,24.0702066 C32.4995817,23.9603534 31.865928,23.9686442 31.2055293,24.1137333 C30.5554171,24.2629677 29.9361646,24.5096191 29.3498293,24.8578328 C28.7634939,25.2060465 28.2923683,25.562551 27.9426244,25.9107647 C27.8088988,25.7822573 27.6751732,25.6558225 27.5414476,25.5293878 C27.3933207,25.3925895 27.2081622,25.3179723 26.985972,25.3221177 C26.7617244,25.3221177 26.5765659,25.4195347 26.4243244,25.5977869 C26.2761976,25.7718938 26.2083061,25.9750184 26.2350512,26.1885066 C26.2556244,26.4102856 26.344089,26.580247 26.4963305,26.7108271 C26.6300561,26.8248257 26.7637817,26.9367515 26.8975073,27.0548954 C26.3708341,27.6953599 25.9367402,28.4021509 25.5952256,29.1483231 C25.2495963,29.896568 25.0438646,30.6385948 24.9677439,31.3578219 C24.8875085,32.0832672 24.9636293,32.7465314 25.1837622,33.3621234 C25.4038951,33.9818609 25.8112439,34.5083269 26.4058085,35.005775 C27.3748049,35.816201 28.5145585,36.1602693 29.8374134,36.0835794 C31.1561537,36.002744 32.5777598,35.6068582 34.1063463,34.7798507 C35.3201634,36.1934325 36.5380951,37.5966508 37.7539695,38.9003795 C37.2396402,39.3377193 36.7890878,39.5885161 36.3920256,39.6693514 C35.9949634,39.7543322 35.6411049,39.7460414 35.3201634,39.6486244 C34.999222,39.5470621 34.700911,39.4019731 34.4272878,39.21543 C34.1536646,39.0247416 33.8841561,38.8630709 33.6146476,38.7304181 C33.3492537,38.5977652 33.0756305,38.523148 32.7958354,38.5190026 C32.5160402,38.5148572 32.2177293,38.6516554 31.8885585,38.9356154 C31.5511585,39.2320116 31.3824585,39.5760799 31.3824585,39.9636749 C31.3824585,40.3491973 31.5593878,40.7409377 31.9050171,41.1368235 C32.254761,41.5327093 32.709428,41.8664141 33.2587317,42.1296471 C33.8080354,42.3928801 34.4293451,42.5586961 35.1123744,42.6042955 C35.7954037,42.6519676 36.5154646,42.5483326 37.2746146,42.2643726 C38.0378793,41.984558 38.7929146,41.4788191 39.5376634,40.7264288 C39.8956366,41.0787879 40.2577244,41.4145654 40.6177549,41.7379067 C40.7699963,41.8705595 40.9551549,41.9368859 41.1794024,41.9203043 C41.3954207,41.9120135 41.5846939,41.8104512 41.734878,41.6280535 C41.8871195,41.4415105 41.9508963,41.2363131 41.9282659,41.0207523 C41.9076927,40.8031187 41.819228,40.6352299 41.6711012,40.5150133 C41.3090134,40.2227625 40.9469256,39.9160028 40.5868951,39.5926615 C41.2020329,38.8319804 41.695789,38.0298453 42.0619915,37.2360009 C42.4281939,36.4380112 42.6442122,35.6690392 42.7162183,34.9560302 C42.7882244,34.2388758 42.7038744,33.5921932 42.4713976,33.0056189 C42.240978,32.4107539 41.831572,31.9008695 41.2452366,31.4096395 L41.2452366,31.4096395 Z M29.7427768,32.8149305 C29.1605561,32.8398029 28.6523988,32.644969 28.2080183,32.2117746 C28.0187451,32.0293769 27.8870768,31.807598 27.8068415,31.544365 C27.7224915,31.281132 27.693689,30.9930266 27.7266061,30.6779761 C27.7554085,30.367071 27.8479878,30.041657 28.0084585,29.7141703 C28.1607,29.3866837 28.3870049,29.059197 28.6750293,28.7420738 C29.718089,29.7867149 30.7590915,30.9329183 31.8021512,32.1185031 C31.0121415,32.5558429 30.3249976,32.7900581 29.7427768,32.8149305 L29.7427768,32.8149305 Z M39.4471415,36.9644771 C39.2619829,37.3085454 39.0500793,37.6153051 38.8011439,37.8826835 C37.646989,36.709535 36.4948915,35.4203152 35.3448512,34.0979322 C35.6390476,33.9652793 35.9476451,33.8264084 36.2809305,33.6854647 C36.6142159,33.5445211 36.9475012,33.4512496 37.2807866,33.393214 C37.6223012,33.3413964 37.9597012,33.3559053 38.2971012,33.4367407 C38.6303866,33.5217214 38.9472134,33.7041191 39.2414098,33.9922244 C39.5314915,34.2844752 39.7145927,34.5870895 39.7886561,34.9145762 C39.8688915,35.2462083 39.8730061,35.5819858 39.8174585,35.9260541 C39.7577963,36.2721951 39.6364146,36.6162634 39.4471415,36.9644771 L39.4471415,36.9644771 Z" id="Shape"></path>
                    <path d="M31.2775354,46.4989 L31.2734207,46.4989 C29.9875976,47.4937963 28.7326341,48.5425828 27.57025,49.7178041 C26.4531268,50.8432805 25.4429841,52.0288653 24.5645098,53.2393224 L23.1573049,55.1752248 L23.1614195,55.1793702 C22.9042549,55.5835468 22.9474585,56.1265944 23.2972024,56.4789535 C23.6983793,56.8831301 24.3546634,56.8831301 24.7578976,56.4789535 C24.8196171,56.4146998 24.8689927,56.3463007 24.910139,56.2716834 L26.2247646,54.4580704 C27.0394622,53.3367394 27.9817134,52.2319899 29.0247732,51.1832034 C30.178928,50.0204184 31.2487329,49.122939 32.5510146,48.12597 L32.5469,48.1218246 C32.5839317,48.0928068 32.6189061,48.0700071 32.6518232,48.0368439 C33.0550573,47.6326672 33.0550573,46.9714757 32.6518232,46.5672991 C32.2794488,46.1859222 31.6828268,46.1693406 31.2775354,46.4989 L31.2775354,46.4989 Z" id="Shape"></path>
                    <path d="M38.8093732,16.5172855 C37.7333963,17.6013079 36.5668976,18.5775499 35.3571951,19.5081925 C35.2728451,19.5558646 35.1884951,19.6097548 35.116489,19.6864447 C34.7111976,20.0947668 34.7111976,20.7601037 35.116489,21.1684257 C35.5094366,21.5684569 36.1451476,21.5767477 36.5545537,21.1974435 L36.5627829,21.2015889 C37.8486061,20.2066926 39.1015122,19.1537607 40.2638963,17.9826848 C41.3810195,16.8572084 42.3891049,15.675769 43.2696366,14.4653119 L44.6768415,12.5211187 L44.6727268,12.5169733 C45.0224707,12.1045058 45.0060122,11.4889138 44.6212939,11.099246 C44.2160024,10.690924 43.5597183,10.690924 43.1544268,11.099246 C43.0783061,11.175936 43.0227585,11.2650621 42.9733829,11.3541882 L41.6073244,13.2403458 C40.7905695,14.3678949 39.8503756,15.468499 38.8093732,16.5172855 L38.8093732,16.5172855 Z" id="Shape"></path>
                </g>
            </g>
        </g>
    </g>
</svg>