<?xml version="1.0" encoding="UTF-8" standalone="no"?>
<svg width="34px" height="49px" viewBox="0 0 34 49" version="1.1" xmlns="http://www.w3.org/2000/svg" xmlns:xlink="http://www.w3.org/1999/xlink" xmlns:sketch="http://www.bohemiancoding.com/sketch/ns">
    <!-- Generator: Sketch 3.4.3 (16044) - http://www.bohemiancoding.com/sketch -->
    <title>Slice 1</title>
    <desc>Created with Sketch.</desc>
    <defs></defs>
    <g id="Page-1" stroke="none" stroke-width="1" fill="none" fill-rule="evenodd" sketch:type="MSPage">
        <g id="plant146" sketch:type="MSLayerGroup" fill="#000000">
            <g id="Capa_1" sketch:type="MSShapeGroup">
                <g id="Group">
                    <path d="M26.8703333,29.0479384 L26.871,29.0479384 C30.7118333,29.0479384 33.8375,25.8993527 33.8378333,22.0296952 L33.8378333,16.2698459 C33.8378333,15.5747842 33.2783333,15.0112842 32.5878333,15.0112842 L26.8708333,15.0109486 C23.0286667,15.0109486 19.9028333,18.1593664 19.9028333,22.0291918 L19.9031667,26.5308151 L18.0716667,26.5308151 L18.0716667,14.0368219 L22.5391667,14.0369897 L22.5398333,14.0369897 L22.54,14.0369897 C26.3808333,14.0369897 29.5066667,10.8884041 29.507,7.01891438 L29.507,1.25889726 C29.507,0.563835616 28.9475,0.000335616438 28.257,0.000335616438 L22.5395,0 C18.6975,0 15.5718333,3.14841781 15.5718333,7.01824315 L15.5718333,8.5810411 C15.5718333,8.58372603 15.5715,8.58641096 15.5715,8.5892637 L15.5715,21.7308288 L14.0871667,21.7308288 L14.0871667,17.2300445 C14.0873333,15.3552911 13.3626667,13.5926336 12.047,12.2669486 C10.731,10.9412637 8.98116667,10.2109623 7.12,10.2107945 L1.40233333,10.2106267 C1.07083333,10.2106267 0.753,10.3431952 0.518333333,10.5791336 C0.284,10.8152397 0.152333333,11.13525 0.152333333,11.4691884 L0.152333333,17.2295411 C0.153166667,21.0995342 3.27883333,24.2479521 7.12,24.2479521 L15.5715,24.2479521 L15.5715,31.5502945 L2.52883333,31.5502945 C1.83833333,31.5502945 1.27883333,32.1136267 1.27883333,32.8088562 L1.27883333,47.7315377 C1.27883333,48.4267671 1.83833333,48.9900993 2.52883333,48.9900993 L31.1151667,48.9900993 C31.8056667,48.9900993 32.3651667,48.4267671 32.3651667,47.7315377 L32.3651667,32.8088562 C32.3651667,32.1136267 31.8056667,31.5502945 31.1151667,31.5502945 L18.0716667,31.5502945 L18.0716667,29.0479384 L26.8703333,29.0479384 L26.8703333,29.0479384 Z M7.12016667,21.7309966 C4.65733333,21.7309966 2.653,19.7114247 2.6525,17.2293733 L2.6525,12.7279178 L7.12016667,12.7280856 C8.31316667,12.7280856 9.435,13.1962705 10.2786667,14.046387 C11.1225,14.8966712 11.5875,16.027363 11.5873333,17.2300445 L11.5873333,21.7309966 L7.12016667,21.7309966 L7.12016667,21.7309966 Z M26.65,34.0675856 L29.8651667,37.3784418 L29.8651667,43.1621199 L26.6498333,46.472976 L6.99416667,46.472976 L3.77883333,43.1621199 L3.77883333,37.3784418 L6.994,34.0675856 L26.65,34.0675856 L26.65,34.0675856 Z M22.5391667,11.5198664 L18.0721667,11.5195308 L18.0718333,7.01824315 C18.0718333,4.53635959 20.076,2.51712329 22.5395,2.51712329 L27.0068333,2.5174589 L27.0068333,7.01874658 C27.0065,9.50079795 25.0028333,11.5198664 22.5398333,11.5198664 L22.5391667,11.5198664 L22.5391667,11.5198664 Z M26.8705,26.5308151 L22.4031667,26.5304795 L22.4028333,22.029024 C22.4028333,19.5471404 24.407,17.5280719 26.8708333,17.5280719 L31.3378333,17.5284075 L31.3378333,22.0295274 C31.3375,24.5115788 29.3338333,26.5308151 26.8711667,26.5308151 L26.8705,26.5308151 L26.8705,26.5308151 Z" id="Shape"></path>
                    <path d="M16.8215,45.2597226 C19.557,45.2597226 21.7825,43.0209932 21.7825,40.2694418 C21.7825,37.5188973 19.557,35.2811747 16.8215,35.2811747 C14.0871667,35.2811747 11.8625,37.5188973 11.8625,40.2694418 C11.8625,43.0209932 14.087,45.2597226 16.8215,45.2597226 L16.8215,45.2597226 Z M16.8215,37.7982979 C18.1785,37.7982979 19.2825,38.9066712 19.2825,40.2694418 C19.2825,41.6332192 18.1785,42.7425993 16.8215,42.7425993 C15.4655,42.7425993 14.3625,41.6332192 14.3625,40.2694418 C14.3625,38.9066712 15.4655,37.7982979 16.8215,37.7982979 L16.8215,37.7982979 Z" id="Shape"></path>
                </g>
            </g>
        </g>
    </g>
</svg>