<?xml version="1.0" encoding="UTF-8" standalone="no"?>
<svg width="150px" height="150px" viewBox="0 0 150 150" version="1.1" xmlns="http://www.w3.org/2000/svg" xmlns:xlink="http://www.w3.org/1999/xlink">
    <!-- Generator: Sketch 3.7.2 (28276) - http://www.bohemiancoding.com/sketch -->
    <title>invest</title>
    <desc>Created with Sketch.</desc>
    <defs></defs>
    <g id="Page-1" stroke="none" stroke-width="1" fill="none" fill-rule="evenodd">
        <g id="invest">
            <g id="Group" transform="translate(32.000000, 30.000000)">
                <g>
                    <polyline id="Fill-217" fill="#E0E0E0" points="14.4072262 94.9153518 -7.89307034 11.1798526 51.597125 -4.66272552 73.8974216 79.0727737 14.4072262 94.9153518"></polyline>
                    <polyline id="Fill-218" fill="#FAFBF9" points="15.9805374 95.8837381 -2.13224127 11.1437777 58.0712705 -1.72400511 76.1844389 83.0163451 15.9805374 95.8837381"></polyline>
                    <path d="M26.4622204,11.9882343 C26.0630543,11.9520044 25.6593168,11.9335317 25.2508458,11.9335787 C23.8110459,11.9355703 22.426153,12.1648144 21.127772,12.5869845 L25.2658696,25.316377 L26.4622204,11.9882343" id="Fill-219" fill="#B1B9BB"></path>
                    <path d="M37.6058778,19.9701841 C35.7045463,15.5592552 31.4994499,12.3765241 26.5077144,11.934747 L25.3113636,25.2628897 L37.6058778,19.9701841" id="Fill-220" fill="#B43F3E"></path>
                    <path d="M21.0561716,12.6424592 C15.6849128,14.387404 11.8049477,19.4351972 11.811585,25.3864199 C11.8189911,31.800848 16.3379923,37.1551108 22.3635698,38.4530218 L25.1942692,25.3718518 L21.0561716,12.6424592" id="Fill-221" fill="#DAE3E2"></path>
                    <path d="M25.382077,25.5059231 L22.5513777,38.587093 C23.4693769,38.7846107 24.4207614,38.8888059 25.3972628,38.8879589 C32.7879779,38.8796993 38.773569,32.8815776 38.7649232,25.4905925 C38.7628739,23.6160718 38.3742012,21.8319166 37.6765912,20.2132174 L25.382077,25.5059231" id="Fill-222" fill="#535B66"></path>
                    <polyline id="Fill-223" fill="#DAE3E2" points="62.265407 53.1582613 11.1872775 64.0751988 11.6760746 66.3624235 62.7545939 55.4450962 62.265407 53.1582613"></polyline>
                    <polyline id="Fill-224" fill="#DAE3E2" points="62.628799 48.9971319 11.5506695 59.9144592 12.0394666 62.2016839 63.1175961 51.2843566 62.628799 48.9971319"></polyline>
                    <polyline id="Fill-225" fill="#DAE3E2" points="62.4903083 45.2579366 11.4121789 56.175264 11.900976 58.4624887 62.9791055 47.5451613 62.4903083 45.2579366"></polyline>
                    <polyline id="Fill-226" fill="#DAE3E2" points="62.3518109 41.5187415 11.2736815 52.435679 11.7624786 54.7229037 62.8406081 43.8055764 62.3518109 41.5187415"></polyline>
                    <polyline id="Fill-227" fill="#B43F3E" points="46.1880664 18.3047549 43.9007765 18.7939279 44.3895736 21.0807628 46.6768635 20.5919796 46.1880664 18.3047549"></polyline>
                    <polyline id="Fill-228" fill="#DAE3E2" points="63.1120894 16.7415948 48.2462644 19.9186856 48.7350616 22.2063001 63.6008865 19.0284298 63.1120894 16.7415948"></polyline>
                    <polyline id="Fill-229" fill="#DAE3E2" points="46.326557 22.0439502 44.0392671 22.5327334 44.5280643 24.8199581 46.8153541 24.3311749 46.326557 22.0439502"></polyline>
                    <polyline id="Fill-230" fill="#DAE3E2" points="63.2101976 20.9431334 48.3443726 24.1206139 48.8327799 26.4074489 63.6989947 23.2299683 63.2101976 20.9431334"></polyline>
                    <polyline id="Fill-231" fill="#B1B9BB" points="46.4242864 26.245448 44.1373863 26.7342312 44.6261835 29.0214559 46.9130835 28.532283 46.4242864 26.245448"></polyline>
                    <polyline id="Fill-232" fill="#DAE3E2" points="62.8875711 24.6419196 48.0213563 27.8190104 48.5105432 30.1058453 63.3763682 26.9287545 62.8875711 24.6419196"></polyline>
                    <polyline id="Fill-233" fill="#535B66" points="46.1416458 29.481891 43.8547457 29.9706742 44.3435428 32.2575092 46.6308327 31.768726 46.1416458 29.481891"></polyline>
                    <polyline id="Fill-234" fill="#DAE3E2" points="63.0260685 28.3811147 48.1598537 31.5585953 48.6486508 33.8454302 63.5148656 30.6683394 63.0260685 28.3811147"></polyline>
                    <polyline id="Fill-235" fill="#DAE3E2" points="31.5638303 60.1963477 10.9801705 64.5957862 11.4689676 66.8826211 32.0530173 62.4831826 31.5638303 60.1963477"></polyline>
                    <polyline id="Fill-236" fill="#DAE3E2" points="61.6405952 64.9495446 57.9161483 64.9865736 54.8028926 68.091945 52.3265544 72.5790839 49.0577724 70.7326995 44.1768175 70.8823748 42.0844228 74.58138 39.6252354 76.3236933 35.5145062 74.6386775 32.9531937 76.0414931 31.167564 79.7927287 27.9841461 78.3158551 25.8948698 81.3787405 23.2976965 81.0115684 21.7716673 83.6924702 17.8484272 86.3324451 12.6809764 85.7770097 13.496028 89.5886611 64.5741575 78.6717235 61.6405952 64.9495446"></polyline>
                    <polyline id="Fill-237" fill="#39CA74" points="61.6055711 69.9774379 58.2062093 71.5392834 55.2566656 75.4066732 53.2457371 74.6126929 50.9611758 77.2133001 47.8787136 76.0049844 44.8516016 75.410571 43.0796146 76.5362535 40.9057537 79.8536648 38.0941958 78.0836772 36.160056 79.1220492 34.7977387 78.6745826 33.6930728 81.8812966 29.4420191 81.4424051 27.3496244 84.2690843 24.4452964 83.5203184 22.7181353 85.3581276 19.4785875 85.6153819 16.9168853 87.1674829 14.4148209 87.2711642 12.1567653 88.5180681 12.4015537 89.6612906 63.4796831 78.7443531 61.6055711 69.9774379"></polyline>
                    <path d="M82.6539425,19.1806457 L72.8575591,73.6518911 C72.8476987,73.7067182 72.8279779,73.8163725 72.8279779,73.8163725 L75.140707,74.2541115 L84.9478349,19.5702854 L82.6928225,19.1889099" id="Fill-329" fill="#B43F3E"></path>
                    <polygon id="Fill-330" fill="#E26350" points="74.5427095 18.7731308 76.2940376 74.2055885 78.6100258 74.2055879 76.8522174 18.700242"></polygon>
                    <polyline id="Fill-331" fill="#40474F" points="84.1897252 9.97525776 83.6857262 12.3030195 84.8406751 12.2659905 84.1897252 9.97525776"></polyline>
                    <polyline id="Fill-332" fill="#FAFBF9" points="82.7338093 12.4810957 81.2202533 19.4643809 85.8392691 19.3186035 83.8887581 12.4440666 82.7338093 12.4810957"></polyline>
                    <polyline id="Fill-333" fill="#535B66" points="76.4647714 67.8727602 71.8453658 68.0193172 71.7911849 66.2863586 76.4102008 66.1409709 76.4647714 67.8727602"></polyline>
                </g>
            </g>
        </g>
    </g>
</svg>