<?xml version="1.0" encoding="UTF-8" standalone="no"?>
<!-- Generator: Adobe Illustrator 19.0.0, SVG Export Plug-In . SVG Version: 6.00 Build 0)  -->

<svg
   xmlns:sketch="http://www.bohemiancoding.com/sketch/ns"
   xmlns:dc="http://purl.org/dc/elements/1.1/"
   xmlns:cc="http://creativecommons.org/ns#"
   xmlns:rdf="http://www.w3.org/1999/02/22-rdf-syntax-ns#"
   xmlns:svg="http://www.w3.org/2000/svg"
   xmlns="http://www.w3.org/2000/svg"
   xmlns:sodipodi="http://sodipodi.sourceforge.net/DTD/sodipodi-0.dtd"
   xmlns:inkscape="http://www.inkscape.org/namespaces/inkscape"
   version="1.1"
   id="Layer_1"
   x="0px"
   y="0px"
   viewBox="-277.5 369 53.366098 48.508467"
   xml:space="preserve"
   sodipodi:docname="logo.svg"
   width="53.3661"
   height="48.508469"
   inkscape:version="0.92.2 (5c3e80d, 2017-08-06)"><metadata
     id="metadata1418"><rdf:RDF><cc:Work
         rdf:about=""><dc:format>image/svg+xml</dc:format><dc:type
           rdf:resource="http://purl.org/dc/dcmitype/StillImage" /><dc:title>greenzorro logo</dc:title></cc:Work></rdf:RDF></metadata><defs
     id="defs1416" /><sodipodi:namedview
     pagecolor="#ffffff"
     bordercolor="#666666"
     borderopacity="1"
     objecttolerance="10"
     gridtolerance="10"
     guidetolerance="10"
     inkscape:pageopacity="0"
     inkscape:pageshadow="2"
     inkscape:window-width="2560"
     inkscape:window-height="1373"
     id="namedview1414"
     showgrid="false"
     fit-margin-top="0"
     fit-margin-left="0"
     fit-margin-right="0"
     fit-margin-bottom="0"
     inkscape:pagecheckerboard="true"
     inkscape:zoom="4.184397"
     inkscape:cx="26.030507"
     inkscape:cy="15.883043"
     inkscape:window-x="1271"
     inkscape:window-y="-9"
     inkscape:window-maximized="1"
     inkscape:current-layer="Layer_1" /><style
     type="text/css"
     id="style1404">
	.st0{fill:#FEFEFE;}
	.st1{fill:#339966;}
</style><title
     id="title1406">greenzorro logo</title><desc
     id="desc1408">Created with Sketch.</desc><path
     id="Fill-1"
     sketch:type="MSShapeGroup"
     class="st0"
     d="m -224.1339,393.25423 c 0,13.44529 -11.97816,24.25424 -26.68305,24.25424 -14.80227,0 -26.68305,-10.89684 -26.68305,-24.25424 0,-13.35739 11.97815,-24.25423 26.68305,-24.25423 14.70489,0 26.68305,10.89684 26.68305,24.25423"
     inkscape:connector-curvature="0"
     style="fill:#fefefe;stroke-width:0.92508519" /><path
     class="st1"
     d="m -262.44084,400.39649 c 1.67615,0.9326 5.21469,2.90143 5.3078,-0.31086 -1.0243,3.00504 -4.09725,-0.72536 -5.3078,0.31086 m 0.4656,-1.03622 c -0.83808,-0.31086 -1.76928,-0.82898 -2.328,-0.51811 0.9312,0.51811 1.58304,0.9326 2.42112,0.72536 0.0931,-0.31087 0.18623,-0.62174 0.27935,-0.9326 -0.0931,-0.20725 -0.74495,-0.72536 -0.93119,-0.41449 0.46559,0.20724 0.83807,0.51811 0.55872,1.13984 m -1.67615,-4.14489 c 0.0931,-0.10362 0.18623,-0.41449 0.46559,-0.82897 0.9312,-1.24347 0.18624,-0.10363 1.58303,1.34708 1.21056,1.24347 7.72892,0.82898 9.49819,0.72536 0.55872,2.07244 1.30367,4.35213 1.58303,5.18111 0.74496,1.65796 1.48991,2.38331 1.48991,2.38331 0,0 -1.48991,-5.28473 -2.32798,-8.28978 -0.83808,-3.00504 -1.21055,-4.45575 -1.21055,-4.45575 l 0.93118,0.41449 c 0,0 3.25919,11.91655 3.8179,12.95278 0.18625,0.20724 0.27937,0.41448 0.4656,0.62173 l -6.14588,3.7304 c -1.02432,0.10362 -1.67615,0.10362 -1.95552,0.10362 -1.0243,0 -1.0243,-0.10362 -0.37247,-0.62173 1.39679,-0.82898 2.8867,-1.8652 3.91102,-2.69418 0.4656,-0.31087 0.83807,-0.62173 1.30367,-1.03622 0.37248,-0.31087 0.55872,-0.51811 0.55872,-0.62174 -3.44542,1.24347 -6.05277,5.07749 -10.05691,4.97387 -0.74495,0 -1.48991,-0.31087 -2.23486,-0.62173 -0.74495,-1.45071 0.83807,-4.14489 -1.02432,-5.07749 0.27937,-0.20725 0.4656,-0.31087 0.65184,-0.31087 0.18624,0.10362 0.27936,0.10362 0.4656,0.10362 1.48991,0.10363 2.04863,-1.13984 2.04863,-1.13984 0,0 -0.37248,0.20724 -1.67615,0.31087 -1.21055,0.10362 -1.95552,-1.55434 -2.14175,-2.07245 0,0 0,-0.10362 0,-0.10362 0,0 0,-0.10362 0,-0.10362 0,0 0,0 0,0 0,0 0,0 0,0 0,0 0,-0.10362 -0.0932,-0.10362 -0.18625,-0.41449 -0.37248,-0.82898 -0.74496,-1.34709 0.37248,-1.24347 0.83808,-2.38331 1.21056,-3.41954 m -0.74496,4.55938 c 0,0 0,0.10362 0.0931,0.10362 0,0.10363 0,0 -0.0931,-0.10362 0,0.10362 0,0.10362 0,0 m 12.47801,8.91151 5.49405,-3.10866 c 0,0 0,0 0,0 l -4.56285,-14.40349 0.93119,0.41449 c 0,0 4.2835,14.19624 4.93533,14.9216 0,0 0,0 0,0 l -4.84221,1.96882 c -0.65184,0.10362 -1.30367,0.20724 -1.95551,0.20724 m 4.65597,-0.41449 3.3523,-1.03622 c 0,0 0,0 0,0 l -5.12157,-16.06144 1.21055,0.41449 c 0,0 4.65598,14.81797 5.12158,15.64695 0.0932,0.20725 0.27936,0.31087 0.37247,0.51811 -0.37247,0 -2.4211,0.31087 -4.93533,0.51811 m -9.31195,-14.29986 c -0.18623,1.03622 -1.58302,1.24346 -3.25917,0.9326 -0.0931,0 -0.18625,0 -0.27936,-0.10363 0.37248,-0.20724 0.93119,-0.10362 1.21055,-0.41448 -0.55872,-0.20725 -1.58304,0.10362 -1.76927,-0.31087 0.18623,-0.62173 0.4656,-0.82898 0.83808,-1.03622 0.74495,-0.20725 2.04862,0.72535 2.8867,0.72535 -1.30368,-1.24346 -2.8867,-1.34709 -4.46973,-1.76158 0.27935,0.62174 0.0931,1.55434 -0.18625,2.17607 -0.65183,-0.41449 -1.02431,-0.9326 -0.93119,-1.45071 0.18624,-1.03622 1.48991,-1.24347 3.16606,-0.9326 1.67615,0.41449 2.97983,1.13984 2.79358,2.17607 m -6.79772,-0.62174 c -0.37248,1.65796 -1.86238,3.31591 -2.4211,5.28474 0.18624,0.31086 0.55872,0.51811 0.83807,0.72535 0.18625,0.10362 0.37248,0.31087 0.55872,0.41449 0.18624,0.20725 0.18624,0.41449 0.27936,0.62173 0.4656,3.31592 0.93119,8.08254 1.30367,8.18616 0.0932,0 0,0 0,0 0.27936,0.20724 1.21055,0.72536 3.16606,0.9326 0,0 0.0931,0 0.0931,0 0,0 0,0 0,0 v 0 c 0.0932,0 0.18624,0 0.37248,0 0,0 0,0 0,0 0,0 6.33212,-0.10362 10.80186,-0.31087 4.19038,-0.10362 6.89084,-0.72535 7.26332,-0.82897 0.0932,0 0.0932,0 0.0932,0 l -6.05276,-17.40854 1.11743,0.31087 c 0,0 4.09725,12.64191 4.74909,14.09262 0.65184,1.45071 1.02431,2.59056 1.67615,3.00505 0.65184,0.41448 0.74496,0.41448 0.74496,0.41448 l -6.14589,-17.82302 1.02431,0.31087 c 0,0 5.12158,15.54333 5.58718,16.57955 0.65183,1.13985 1.39678,1.24347 1.39678,1.24347 l -5.7734,-17.61578 0.65184,-0.31086 c 0,0 5.02845,15.75057 5.40093,16.47593 0.37247,0.72536 1.11743,0.9326 1.11743,0.9326 0.27936,0.10362 0.4656,0.20724 0.74495,0.20724 1.30367,0.10363 2.51423,-1.03622 2.60735,-2.48693 0.0931,-1.45071 -0.9312,-2.69418 -2.23486,-2.7978 l 0.93118,0.9326 c 0.37248,0.41449 0.4656,0.9326 0.4656,1.34709 0,1.13984 -0.93119,2.07244 -2.04862,1.96882 -0.18624,0 -0.27936,0 -0.4656,-0.20724 0,0 -0.55872,0.10362 -1.76927,-3.83402 -1.21056,-3.93765 -3.53854,-11.91656 -3.53854,-11.91656 l -0.27936,-0.82898 1.02431,0.41449 4.56286,14.71436 c 0,0 0.27936,0.82897 0.74495,0.72535 1.67615,-0.20724 0.83808,-1.55433 0.83808,-1.55433 0,0.20724 -0.0931,0.62173 -0.27936,0.62173 -0.55872,0.10362 -0.65183,-0.41449 -0.83807,-1.03622 -0.18624,-0.62173 -4.00414,-14.40349 -4.00414,-14.40349 l -14.61976,-0.31087 v 0 c 0,0 -0.0932,0 -0.0932,0 -1.02431,0.10363 -9.87066,-0.20724 -9.87066,-0.20724 0,0 -0.18625,0.41449 -0.0931,1.03622 0.0931,0.9326 0.55872,1.55434 0.37248,2.38331 m 36.7822,-3.93764 c -3.72478,-0.62173 -9.87066,-0.9326 -13.8748,-1.24347 l -0.18625,-7.87529 c 0,0 -1.58302,-2.7978 -7.63578,-4.24851 -9.87067,-2.38331 -11.73307,1.96882 -11.73307,1.96882 l -1.86238,5.80285 c -0.37248,1.03622 -0.9312,2.27969 -1.67615,3.93764 -3.8179,0.72536 -7.72892,-0.10362 -11.54682,-0.10362 14.99224,2.90142 31.75375,1.65796 48.51525,1.76158"
     id="path1411"
     inkscape:connector-curvature="0"
     style="fill:#339966;stroke-width:0.98230594" /></svg>