<?xml version="1.0" encoding="UTF-8" standalone="no"?>
<svg width="100px" height="100px" viewBox="0 0 100 100" version="1.1" xmlns="http://www.w3.org/2000/svg" xmlns:xlink="http://www.w3.org/1999/xlink">
    <!-- Generator: Sketch 3.7.2 (28276) - http://www.bohemiancoding.com/sketch -->
    <title>losses returned</title>
    <desc>Created with Sketch.</desc>
    <defs></defs>
    <g id="Page-1" stroke="none" stroke-width="1" fill="none" fill-rule="evenodd" opacity="0.322819496">
        <g id="losses-returned" fill="#000000">
            <g id="plant146" transform="translate(24.000000, 12.000000)">
                <g id="Capa_1">
                    <g id="Group">
                        <path d="M41.2994281,44.6616313 L41.3004528,44.6616313 C47.2037744,44.6616313 52.0078922,39.8206347 52.0084045,33.8709795 L52.0084045,25.0151267 C52.0084045,23.9464592 51.1484588,23.0800697 50.0871673,23.0800697 L41.3001966,23.0795537 C35.3948257,23.0795537 30.5904517,27.9202923 30.5904517,33.8702055 L30.5909641,40.7915173 L27.7759673,40.7915173 L27.7759673,21.5818196 L34.6424692,21.5820776 L34.6434938,21.5820776 L34.64375,21.5820776 C40.5470716,21.5820776 45.3514456,16.741081 45.3519579,10.7916838 L45.3519579,1.935573 C45.3519579,0.86690553 44.4920121,0.000516015197 43.4307207,0.000516015197 L34.6429815,0 C28.7378667,0 23.9337489,4.84073856 23.9337489,10.7906518 L23.9337489,13.1934765 C23.9337489,13.1976047 23.9332366,13.2017328 23.9332366,13.2061189 L23.9332366,33.411468 L21.6518314,33.411468 L21.6518314,26.4914462 C21.6520876,23.6089853 20.5382823,20.8988735 18.5161161,18.8606134 C16.4934375,16.8223534 13.8039615,15.6995044 10.9433673,15.6992463 L2.15537202,15.6989883 C1.64585991,15.6989883 1.15735332,15.9028143 0.796673044,16.265573 C0.436505102,16.6285897 0.234134779,17.1206102 0.234134779,17.6340453 L0.234134779,26.4906722 C0.235415604,32.4408434 5.03953338,37.2815819 10.9433673,37.2815819 L23.9332366,37.2815819 L23.9332366,48.5090406 L3.88679103,48.5090406 C2.82549957,48.5090406 1.96555378,49.3751721 1.96555378,50.4440976 L1.96555378,73.3879393 C1.96555378,74.4568648 2.82549957,75.3229963 3.88679103,75.3229963 L47.8236937,75.3229963 C48.8849851,75.3229963 49.7449309,74.4568648 49.7449309,73.3879393 L49.7449309,50.4440976 C49.7449309,49.3751721 48.8849851,48.5090406 47.8236937,48.5090406 L27.7759673,48.5090406 L27.7759673,44.6616313 L41.2994281,44.6616313 L41.2994281,44.6616313 Z M10.9436235,33.411726 C7.15827381,33.411726 4.07763393,30.3066045 4.07686543,26.4904141 L4.07686543,19.5693603 L10.9436235,19.5696183 C12.7772523,19.5696183 14.5014987,20.2894595 15.7982058,21.596526 C17.095169,22.9038505 17.8098693,24.6423057 17.8096131,26.4914462 L17.8096131,33.411726 L10.9436235,33.411726 L10.9436235,33.411726 Z M40.9607781,52.3794126 L45.9024564,57.4699025 L45.9024564,66.3623924 L40.9605219,71.4528823 L10.7499628,71.4528823 L5.80802827,66.3623924 L5.80802827,57.4699025 L10.7497066,52.3794126 L40.9607781,52.3794126 L40.9607781,52.3794126 Z M34.6424692,17.7119636 L27.7767358,17.7114476 L27.7762234,10.7906518 C27.7762234,6.97471941 30.8566071,3.87011398 34.6429815,3.87011398 L41.5092273,3.87062999 L41.5092273,10.7914258 C41.5087149,14.6076162 38.4290997,17.7119636 34.6434938,17.7119636 L34.6424692,17.7119636 L34.6424692,17.7119636 Z M41.2996843,40.7915173 L34.4334386,40.7910013 L34.4329262,33.8699475 C34.4329262,30.0540151 37.5133099,26.9496677 41.3001966,26.9496677 L48.1659301,26.9501837 L48.1659301,33.8707215 C48.1654177,37.6869119 45.0858025,40.7915173 41.300709,40.7915173 L41.2996843,40.7915173 L41.2996843,40.7915173 Z" id="Shape"></path>
                        <path d="M25.8544739,69.5874874 C30.0589094,69.5874874 33.4794802,66.145408 33.4794802,61.9148574 C33.4794802,57.6858549 30.0589094,54.2453235 25.8544739,54.2453235 C21.6518314,54.2453235 18.2325415,57.6858549 18.2325415,61.9148574 C18.2325415,66.145408 21.6515753,69.5874874 25.8544739,69.5874874 L25.8544739,69.5874874 Z M25.8544739,58.1154375 C27.940169,58.1154375 29.6370057,59.8195777 29.6370057,61.9148574 C29.6370057,64.0116851 27.940169,65.7173734 25.8544739,65.7173734 C23.7703157,65.7173734 22.0750159,64.0116851 22.0750159,61.9148574 C22.0750159,59.8195777 23.7703157,58.1154375 25.8544739,58.1154375 L25.8544739,58.1154375 Z" id="Shape"></path>
                    </g>
                </g>
            </g>
        </g>
    </g>
</svg>