<?xml version="1.0" encoding="UTF-8" standalone="no"?>
<svg width="64px" height="197px" viewBox="0 0 64 197" version="1.1" xmlns="http://www.w3.org/2000/svg" xmlns:xlink="http://www.w3.org/1999/xlink" xmlns:sketch="http://www.bohemiancoding.com/sketch/ns">
    <!-- Generator: Sketch 3.4.3 (16044) - http://www.bohemiancoding.com/sketch -->
    <title>Slice 1</title>
    <desc>Created with Sketch.</desc>
    <defs></defs>
    <g id="Page-1" stroke="none" stroke-width="1" fill="none" fill-rule="evenodd" sketch:type="MSPage">
        <path d="M1.5,98.5 L62.5327797,98.5" id="Line-Copy-10" stroke="#D8D8D8" stroke-linecap="square" sketch:type="MSShapeGroup"></path>
        <path d="M25.5025707,98 L26,1.49871135 L26,1 L26.0025707,1 L26.0025839,0.997429357 L26.5012887,1 L60.6153846,1 L61.1153846,1 L61.1153846,2 L60.6153846,2 L26.9974293,2 L26.4999934,98.5025773 L26.4974161,99.0025706 L25.9987113,99 L25.5,99 L1.5,99 L1,99 L1,98 L1.5,98 L25.5,98 L25.5025707,98 Z" id="Line-Copy-3" fill="#D8D8D8" sketch:type="MSShapeGroup"></path>
        <path d="M25.5025707,99 L25.5,99 L1.5,99 L1,99 L1,98 L1.5,98 L25.5,98 L25.9987113,98 L26.4974161,97.9974294 L26.4999934,98.4974227 L26.9974293,195 L60.6153846,195 L61.1153846,195 L61.1153846,196 L60.6153846,196 L26.5012887,196 L26.0025839,196.002571 L26.0025707,196 L26,196 L26,195.501289 L25.5025707,99 Z" id="Line-Copy-4" fill="#D8D8D8" sketch:type="MSShapeGroup"></path>
    </g>
</svg>