<?xml version="1.0" encoding="UTF-8" standalone="no"?>
<svg width="150px" height="150px" viewBox="0 0 150 150" version="1.1" xmlns="http://www.w3.org/2000/svg" xmlns:xlink="http://www.w3.org/1999/xlink">
    <!-- Generator: Sketch 3.7.2 (28276) - http://www.bohemiancoding.com/sketch -->
    <title>play</title>
    <desc>Created with Sketch.</desc>
    <defs></defs>
    <g id="Page-1" stroke="none" stroke-width="1" fill="none" fill-rule="evenodd">
        <g id="play">
            <g id="Group-Copy" transform="translate(28.000000, 20.000000)">
                <g transform="translate(46.657907, 54.762413) rotate(-73.000000) translate(-46.657907, -54.762413) translate(-0.056628, 20.254692)">
                    <path d="M41.5738901,58.4389975 C39.8014656,58.9795046 37.9096975,57.9654559 37.3736738,56.1888208 L26.3108536,19.5819363 C25.7727839,17.8059844 26.7834546,15.9111347 28.557243,15.3740442 L77.5515835,0.507024347 C79.3260539,-0.030749455 81.2157762,0.982615917 81.7517999,2.75925109 L92.8187119,39.3634023 C93.3554175,41.1386708 92.343383,43.0348872 90.5723224,43.572661 L41.5738901,58.4389975" id="Fill-485" fill="#DBDBD5"></path>
                    <path d="M40.2952076,58.8298573 C38.5234651,59.3676311 36.6337428,58.3542657 36.0956732,56.5776305 L25.032171,19.9693794 C24.4941014,18.1941109 25.506136,16.2999444 27.2792424,15.760804 L76.2742649,0.895834122 C78.0480533,0.357376999 79.9377756,1.36800909 80.4737993,3.14601091 L91.5400293,39.7528954 C92.0760531,41.5274806 91.0647004,43.4250637 89.2929579,43.9607875 L40.2952076,58.8298573" id="Fill-486" fill="#FFFFFF"></path>
                    <path d="M39.017207,59.2145671 C37.2434186,59.750291 35.3543783,58.7376089 34.8169907,56.9616571 L23.7548524,20.3568225 C23.2174648,18.5829206 24.2288174,16.6887542 26.0012419,16.1509804 L74.9976283,1.28259393 C76.7714167,0.745503453 78.6625029,1.75886883 79.1978447,3.53413736 L90.2613468,40.1382886 C90.7987345,41.9156071 89.7860179,43.8097735 88.0156393,44.3482306 L39.017207,59.2145671" id="Fill-487" fill="#DBDBD5"></path>
                    <path d="M37.7180656,59.6108934 C35.9435952,60.1493506 34.0545549,59.1312019 33.5164853,57.3573 L22.455029,20.7545155 C21.9190053,18.9778803 22.9262662,17.0830305 24.7000546,16.5466234 L73.695759,1.67892024 C75.4695474,1.14046312 77.3606336,2.15382849 77.8980212,3.92841371 L88.9615234,40.5359815 C89.4968652,42.3126167 88.4855125,44.2054165 86.7130881,44.7431903 L37.7180656,59.6108934" id="Fill-488" fill="#FFFFFF"></path>
                    <path d="M70.4046007,7.63269805 L70.7169402,8.67134631 L74.0156001,7.10380742 L70.4046007,7.63269805 L70.4046007,7.63269805 Z M68.9792959,10.7445429 L68.6512712,9.65942879 L69.8358427,9.09773875 L69.4375757,7.77756215 L68.1411621,7.96615881 L67.8417799,6.9808096 L75.0024021,6.00161029 L75.4818228,7.57871567 L68.9792959,10.7445429 L68.9792959,10.7445429 Z" id="Fill-489" fill="#30312F"></path>
                    <path d="M58.0330915,43.0437704 C64.1619021,41.1871867 71.3661699,25.8924077 71.3661699,25.8924077 C71.3661699,25.8924077 56.9023952,17.1745956 50.7749486,19.034596 C46.8038721,20.2372413 44.6031742,24.5530981 45.8491225,28.6687419 C46.2098815,29.8809537 46.8475178,30.9284851 47.6474616,31.7949365 C46.4915326,32.0477653 44.0746521,33.1479125 40.6777894,29.7285731 L42.1951593,34.7421009 L43.7104834,39.7610953 C44.6440921,35.0277292 47.260788,34.5979201 48.3648877,34.1660611 C48.1780296,35.3352237 48.227131,36.5570021 48.5940276,37.7705805 C49.837248,41.8841743 54.0599692,44.251199 58.0330915,43.0437704" id="Fill-490" fill="#30312F"></path>
                    <path d="M64.4960645,12.4542126 C65.6172133,12.110502 66.9388596,9.31093497 66.9388596,9.31093497 C66.9388596,9.31093497 64.2887474,7.71127999 63.1641888,8.05362392 C62.4351692,8.27297003 62.0328105,9.06493933 62.2605865,9.82000928 C62.326737,10.042772 62.4433528,10.2327353 62.590657,10.3898992 C62.3778843,10.4390983 61.9352896,10.6365781 61.3147024,10.0154392 L61.5908978,10.9331396 L61.870503,11.8535732 C62.0369023,10.9871219 62.5197328,10.9058067 62.7229581,10.8244915 C62.686132,11.0390543 62.6963615,11.2631837 62.7652398,11.4886797 C62.9936978,12.2416997 63.7649991,12.6756087 64.4960645,12.4542126" id="Fill-491" fill="#30312F"></path>
                    <path d="M40.9117031,53.3339047 L40.5959537,52.300723 L37.2993397,53.8648453 L40.9117031,53.3339047 L40.9117031,53.3339047 Z M42.3363259,50.2241098 L42.6616227,51.3078573 L41.481825,51.868864 L41.87941,53.1897239 L43.1765055,53.0011273 L43.4731599,53.9878431 L36.3111738,54.9643091 L35.8351629,53.3878871 L42.3363259,50.2241098 L42.3363259,50.2241098 Z" id="Fill-492" fill="#30312F"></path>
                    <path d="M46.8229671,48.5151234 C45.6963626,48.856784 44.3760802,51.6597677 44.3760802,51.6597677 C44.3760802,51.6597677 47.0289202,53.2573727 48.1534789,52.9184454 C48.8790886,52.6970493 49.2821293,51.9043967 49.0516255,51.1493267 C48.986157,50.9272474 48.8729509,50.7345508 48.7276926,50.5773869 C48.9336457,50.5275044 49.3789682,50.328658 50.0016014,50.9552635 L49.724724,50.0361965 L49.4478466,49.1150795 C49.2739458,49.9835807 48.7945251,50.0655793 48.5947096,50.1455279 C48.625398,49.9275484 48.6178964,49.703419 48.5510639,49.4806563 C48.3246519,48.7262697 47.5492588,48.2916774 46.8229671,48.5151234" id="Fill-493" fill="#30312F"></path>
                    <path d="M68.2461846,35.9700291 C64.0902959,36.4073547 60.0796655,33.8517333 58.8262157,29.6978236 C57.5679921,25.5432306 59.4931765,21.1863745 63.1901034,19.240959 L58.7218752,4.45593769 L0.0531931929,22.2605554 L14.0457308,68.5569349 L72.7116849,50.7516338 L68.2461846,35.9700291" id="Fill-494" fill="#E26350"></path>
                    <path d="M4.25750133,24.5148322 L56.4748038,8.66656306 L59.2592628,17.8790998 C55.7082762,20.9936779 54.1840867,25.9846561 55.6018898,30.6763396 C57.0183291,35.3659732 61.0494184,38.6705146 65.7304193,39.2909703 L68.5155604,48.501457 L16.2948481,64.3442595 L4.25750133,24.5148322" id="Fill-495" fill="#B43F3E"></path>
                    <path d="M41.1919903,20.3725389 L38.2670466,21.2615398 L38.4614064,21.9045451 C38.5957533,22.3384541 38.8610373,22.5092844 39.4782147,22.323421 L40.7732644,21.9325613 C41.3924877,21.7446479 41.5179691,21.4501365 41.3883959,21.0182775 L41.1919903,20.3725389 L41.1919903,20.3725389 Z M41.0985612,23.3162867 L39.9787763,23.6586307 C38.5923434,24.0781899 37.6396397,23.6394977 37.2290974,22.2790051 L37.0326917,21.6339499 L33.7892709,22.6206657 L33.3760007,21.2622231 L42.0151208,18.6403196 L42.6220688,20.6431341 C43.0339751,22.0015767 42.4802203,22.8980941 41.0985612,23.3162867 L41.0985612,23.3162867 Z" id="Fill-496" fill="#FFFFFF"></path>
                    <polyline id="Fill-497" fill="#FFFFFF" points="43.4261044 23.2971537 43.8352828 24.656963 36.4305175 26.9044065 37.1077078 29.1416002 35.871989 29.5140102 34.7863023 25.9170073 43.4261044 23.2971537"></polyline>
                    <path d="M39.1836062,30.5731581 L39.5777814,31.8817183 L43.7520832,29.9041866 L39.1836062,30.5731581 L39.1836062,30.5731581 Z M37.3839032,34.5090884 L36.9679052,33.1369793 L38.4614064,32.4256419 L37.9587989,30.7542382 L36.3200394,30.9961339 L35.9415493,29.7477061 L45.0007593,28.511578 L45.6008876,30.502776 L37.3839032,34.5090884 L37.3839032,34.5090884 Z" id="Fill-498" fill="#FFFFFF"></path>
                    <polyline id="Fill-499" fill="#FFFFFF" points="40.6361896 34.9300142 45.8907223 31.4628423 46.3203596 32.8862004 42.6970848 35.1165609 46.9484485 34.9628136 47.3419417 36.259074 41.0467319 36.2918734 38.1818011 37.161058 37.7733047 35.7985155 40.6361896 34.9300142"></polyline>
                    <polyline id="Fill-500" fill="#FFFFFF" points="47.5035672 36.7995811 47.9154735 38.1600736 39.2763533 40.7840271 38.865811 39.4221679 47.5035672 36.7995811"></polyline>
                    <polyline id="Fill-501" fill="#FFFFFF" points="46.199652 41.0833218 39.9433142 42.9795382 39.5743716 41.7591265 48.2114458 39.1358563 48.7276926 40.8434761 43.9791772 43.8090902 49.1491464 42.2415513 49.5133151 43.4496632 40.8769229 46.0749834 40.4527413 44.6775915 46.199652 41.0833218"></polyline>
                    <path d="M46.6006468,47.6227059 L47.1748605,49.5278055 L44.4354111,50.3587241 C43.0564799,50.7789666 42.0553567,50.3238747 41.651634,48.9893484 C41.2472293,47.6561887 41.8248529,46.7227719 43.2085578,46.301846 L47.7013368,44.9386202 C49.0829958,44.5211109 50.084801,44.9734695 50.4851139,46.3093625 C50.8915644,47.6466222 50.3098491,48.577989 48.9268261,48.9954983 L48.0886923,49.2496938 L47.6986089,47.9643665 L48.6219882,47.6862548 C49.2446213,47.4976581 49.3960173,47.1518976 49.2643983,46.7234552 C49.1314153,46.2874963 48.8163479,46.0872831 48.1998524,46.2758798 L43.5365825,47.6903547 C42.9194051,47.8755348 42.7782386,48.2144621 42.9091756,48.6483711 C43.0394308,49.0836467 43.3415408,49.2852265 43.9580363,49.1000464 L45.5531501,48.6155717 L45.3649281,48.0005826 L46.6006468,47.6227059" id="Fill-502" fill="#FFFFFF"></path>
                    <path d="M20.8237711,30.5506085 L19.3984663,30.9831508 C17.6819629,31.5011083 16.4421523,30.9421516 15.9395449,29.281681 C15.4383013,27.624627 16.1611832,26.4657142 17.8729128,25.9463901 L23.4541063,24.2524368 C25.1699278,23.7331127 26.4138301,24.2948027 26.9157556,25.95254 C27.4149533,27.6109606 26.6941173,28.7691901 24.975568,29.2864643 L23.9355729,29.6069419 L23.4513784,28.0100202 L24.6004878,27.6601597 C25.3697432,27.4278305 25.5572833,27.0021214 25.3970218,26.4643476 C25.2326684,25.9279404 24.8384932,25.6771616 24.0706018,25.9081241 L18.2814093,27.6656263 C17.5114719,27.8993222 17.3402989,28.3216147 17.5026064,28.8600718 C17.6642318,29.396479 18.0427219,29.6520411 18.8106133,29.4169786 L20.3429865,28.9536868 L20.8237711,30.5506085" id="Fill-503" fill="#FFFFFF"></path>
                    <path d="M21.0242685,33.3693086 L21.5146007,34.9956131 L26.6954813,32.5377066 L21.0242685,33.3693086 L21.0242685,33.3693086 Z M18.7840167,38.254372 L18.2698159,36.5508522 L20.1295317,35.6693678 L19.5021249,33.5948046 L17.4671442,33.8954659 L16.9999989,32.3436434 L28.2442215,30.8061706 L28.9957459,33.2804768 L18.7840167,38.254372 L18.7840167,38.254372 Z" id="Fill-504" fill="#FFFFFF"></path>
                    <path d="M28.7263701,37.9318444 L25.4324839,38.9335933 L25.6336633,39.5957315 C25.8212034,40.2243871 26.2160606,40.526415 27.0739713,40.2653863 L28.1310155,39.943542 C28.898225,39.7091629 29.1553254,39.343586 28.9759689,38.7518298 L28.7263701,37.9318444 L28.7263701,37.9318444 Z M20.0886139,42.5681788 C20.3361668,42.3925653 20.4868809,42.279134 21.3597948,42.0167386 L23.0476558,41.5015144 C24.0433232,41.2001698 24.3092892,40.7478111 24.0753755,39.9824913 L23.9001108,39.3982517 L19.5321313,40.7218449 L19.0227042,39.0381414 L29.7493161,35.7807491 L30.5219813,38.3315873 C31.0518674,40.0815729 30.4660603,41.0799052 28.8095697,41.5821463 L27.9659802,41.8390751 C26.8646083,42.1725359 26.037386,42.0358716 25.4583985,41.3928663 C25.3608777,42.3460994 24.6298123,42.8654236 23.5100274,43.2084508 L21.8562646,43.708642 C21.3345622,43.8671725 20.9567541,43.9976868 20.6089524,44.287415 L20.0886139,42.5681788 L20.0886139,42.5681788 Z" id="Fill-505" fill="#FFFFFF"></path>
                    <path d="M30.5942695,44.1042849 L22.928994,46.4262105 L23.2154189,47.3794436 C23.3790903,47.918584 23.7555344,48.1577464 24.5179702,47.9240506 L30.0977997,46.2294139 C30.8663732,45.9970847 31.0430018,45.5973418 30.8820583,45.0568347 L30.5942695,44.1042849 L30.5942695,44.1042849 Z M31.6144877,41.9490898 L32.4219331,44.6195092 C32.934088,46.3120958 32.2487142,47.4231761 30.5322108,47.9445502 L25.1065051,49.5893044 C23.3906837,50.1134118 22.2033843,49.5674381 21.6932752,47.8782681 L20.8865118,45.2057988 L31.6144877,41.9490898 L31.6144877,41.9490898 Z" id="Fill-506" fill="#FFFFFF"></path>
                    <path d="M34.318475,50.4468725 C34.8149448,52.0916267 34.0866072,53.2334565 32.3701038,53.7568805 L32.0325316,53.8559621 L31.5524289,52.2590404 L31.9943416,52.1257928 C32.7629151,51.8914136 32.9613666,51.4971372 32.8011051,50.9607301 C32.6367517,50.422273 32.2514421,50.2049768 31.4876424,50.4359394 C29.2787609,51.1069608 29.8618402,54.5338168 26.79573,55.4631336 C25.0799085,55.9824578 23.838734,55.4200844 23.3381724,53.7637137 C22.8369289,52.1046098 23.5577648,50.9470637 25.2749502,50.4256896 L25.9364553,50.2275264 L26.415194,51.8230815 L25.6527583,52.0567773 C24.8821389,52.2870566 24.710966,52.7086658 24.8732734,53.2450729 C25.0348989,53.7842134 25.4106611,54.0384089 26.1799165,53.804713 C28.386752,53.1371082 27.8029908,49.7102523 30.869101,48.7775188 C32.5815126,48.256828 33.8220052,48.805535 34.318475,50.4468725" id="Fill-507" fill="#FFFFFF"></path>
                    <polyline id="Fill-508" fill="#FFFFFF" points="38.1545225 52.0916267 29.1921515 22.4375356 30.2416941 22.119108 39.2088389 51.7745657 38.1545225 52.0916267"></polyline>
                </g>
            </g>
        </g>
    </g>
</svg>