<?xml version="1.0" encoding="UTF-8" standalone="no"?>
<svg width="150px" height="150px" viewBox="0 0 150 150" version="1.1" xmlns="http://www.w3.org/2000/svg" xmlns:xlink="http://www.w3.org/1999/xlink">
    <!-- Generator: Sketch 3.7.2 (28276) - http://www.bohemiancoding.com/sketch -->
    <title>receive</title>
    <desc>Created with Sketch.</desc>
    <defs></defs>
    <g id="Page-1" stroke="none" stroke-width="1" fill="none" fill-rule="evenodd">
        <g id="receive">
            <g id="Group" transform="translate(42.000000, 34.000000)">
                <g>
                    <path d="M42.6981731,17.1611598 L30.4093413,17.1611598 C36.2349252,25.3718213 40.7499669,33.5233722 40.7499669,39.9616673 C40.7499669,60.1365174 25.0558191,70.1147784 5.23113153,70.8631956 C11.123337,77.9326401 21.1860553,81.355338 32.6145166,81.355338 C50.7679535,81.355338 65.4894258,72.7261349 65.4894258,54.5410259 C65.4894258,44.1461301 51.9005209,28.5866786 42.6981731,17.1611598" id="Fill-43" fill="#B43F3E"></path>
                    <path d="M41.0075042,40.062025 C41.0075042,33.6237299 36.4924626,25.472179 30.6668787,17.2615174 L22.7883975,17.2615174 C13.5889049,28.6870362 0,44.2464877 0,54.6413836 C0,61.3761854 1.79715467,66.7196792 5.26338185,70.8812604 C25.0880694,70.1328432 41.0075042,60.2368751 41.0075042,40.062025 L6.42475391,71.6318479" id="Fill-44" fill="#E26350"></path>
                    <path d="M55.0003292,4.72027233 L55.7541051,3.95850752 C54.0695301,3.95850752 52.9369628,2.99271558 52.0042602,2.0478984 C51.0563299,1.08878025 49.9818185,0 47.8965621,0 C45.8160644,0 44.7434565,1.08878025 43.7917192,2.0459916 C42.8552097,2.99271558 42.046233,3.80977747 40.3626098,3.80977747 C39.9552662,3.80977747 39.5993165,3.76115418 39.282388,3.67248819 L38.0936681,3.09568254 C37.6815659,2.79726904 37.315147,2.43497789 36.9344521,2.0478984 C35.9865218,1.08878025 34.9110586,0 32.826754,0 C30.7453046,0 29.6698414,1.08878025 28.7228628,2.0459916 C27.7863534,2.99271558 26.9802319,3.80977747 25.2918499,3.80977747 C24.878796,3.80977747 24.519991,3.76020078 24.1964003,3.67153479 L22.8230434,2.94695249 C22.4927906,2.67904772 22.1853795,2.37300704 21.860837,2.0478984 C20.9129067,1.08878025 19.8374436,0 17.7540907,0 C15.6688343,0 14.5914677,1.08878025 13.6425856,2.0478984 C13.0677363,2.62851764 12.4491071,3.25108638 11.6686825,3.64007267 L11.5525706,3.69155614 C11.0957367,3.90035025 10.583702,4.03573274 9.98981794,4.03573274 L10.2268005,4.28170936 L10.2144279,4.28552295 L10.6750688,4.74315388 L22.8582577,16.8274705 L22.8582577,16.8284239 L43.0255707,16.8284239 L55.0003292,4.72027233" id="Fill-45" fill="#B43F3E"></path>
                    <path d="M37.2561393,48.7672491 C36.547095,48.1952104 35.5144601,47.6746552 34.1477653,47.1960495 L33.272167,46.902403 C33.0970474,46.842339 32.9419142,46.7794147 32.7915397,46.7155371 C32.094868,46.4371449 31.5790264,46.1406382 31.2706635,45.8374577 C30.8947273,45.4608656 30.7081868,44.972726 30.7081868,44.3635048 C30.7081868,43.7399826 30.8947273,43.2289614 31.2649531,42.832348 C31.6389859,42.4376413 32.1215167,42.2374278 32.7220629,42.2374278 L32.7915397,42.2441015 C33.3968446,42.2555423 33.9088793,42.4452685 34.3086089,42.8123266 C34.7207112,43.1898721 34.956742,43.7123341 35.0138463,44.3635048 L38.9074035,44.3635048 C38.8483958,43.2575634 38.5552607,42.2555423 38.0279982,41.3707892 C37.5045427,40.4850827 36.789788,39.7948227 35.8932515,39.3076364 C35.4573558,39.0664268 34.9900528,38.8862346 34.5018116,38.7632463 L34.5018116,35.2757173 L31.2706635,35.2757173 L31.2706635,38.7832677 L31.272567,38.7832677 C30.8005053,38.911023 30.3493819,39.0959821 29.910631,39.340052 C28.9912528,39.85298 28.2660289,40.5556341 27.7330561,41.4451542 C27.2000832,42.3346743 26.936452,43.2985595 26.936452,44.3387164 C26.936452,45.3073686 27.1696276,46.2235838 27.6454962,47.0835486 C28.1204131,47.9463736 28.7599806,48.6299598 29.5746677,49.1419344 C29.98677,49.4003052 30.5473432,49.6615362 31.2649531,49.9342079 C31.3648855,49.9609031 31.6389859,50.049569 32.0758333,50.1944855 C32.3308989,50.2755243 32.5678815,50.3613301 32.7915397,50.4471359 C33.6328755,50.7646174 34.2724429,51.1116542 34.695966,51.4748987 C35.3136435,52.0068947 35.6229581,52.7162226 35.6229581,53.6009757 C35.6229581,54.3617871 35.3726512,54.9881695 34.86252,55.4820295 C34.3600028,55.9787497 33.7090145,56.2247264 32.9304934,56.2247264 L32.7915397,56.2170992 C32.0396673,56.1875439 31.424845,55.9663556 30.9499281,55.5306528 C30.4521695,55.0625345 30.1790209,54.4323386 30.1228684,53.6333912 L26.1693517,53.6333912 C26.2207455,54.5610473 26.3758787,55.3218587 26.6395099,55.8996177 C26.9202724,56.6261068 27.3571198,57.2887183 27.9481487,57.8817317 C28.8932238,58.853244 30.0039012,59.4681856 31.2706635,59.7351369 L31.2706635,63.1435339 L34.5018116,63.1435339 L34.5018116,59.6807933 C35.069047,59.5358768 35.6020199,59.3194555 36.1264272,59.0219954 C37.1400274,58.443283 37.9337763,57.650056 38.5248051,56.648035 C39.1139305,55.6479207 39.4032586,54.5419793 39.4032586,53.3378379 C39.4032586,51.4663181 38.6856487,49.9418351 37.2561393,48.7672491" id="Fill-46" fill="#FFFFFF"></path>
                    <path d="M46.9162727,17.1582996 C46.9162727,18.7352195 45.6409448,20.0146793 44.0658196,20.0146793 L20.4560728,20.0146793 C18.8780924,20.0146793 17.6037162,18.7352195 17.6037162,17.1582996 C17.6037162,15.5813797 18.8780924,14.3009665 20.4560728,14.3009665 L44.0658196,14.3009665 C45.6409448,14.3009665 46.9162727,15.5813797 46.9162727,17.1582996" id="Fill-47" fill="#30312F"></path>
                </g>
            </g>
        </g>
    </g>
</svg>