<?xml version="1.0" encoding="UTF-8" standalone="no"?>
<svg width="100px" height="100px" viewBox="0 0 100 100" version="1.1" xmlns="http://www.w3.org/2000/svg" xmlns:xlink="http://www.w3.org/1999/xlink">
    <!-- Generator: Sketch 3.7.2 (28276) - http://www.bohemiancoding.com/sketch -->
    <title>revenues</title>
    <desc>Created with Sketch.</desc>
    <defs></defs>
    <g id="Page-1" stroke="none" stroke-width="1" fill="none" fill-rule="evenodd" opacity="0.322819496">
        <g id="revenues" fill="#000000">
            <g id="stats121" transform="translate(17.000000, 17.000000)">
                <g id="Capa_1">
                    <g id="Statics">
                        <path d="M63.9332833,3.12000676 C64.5478333,2.19384893 64.292775,0.950266065 63.3669333,0.335506201 C62.4390833,-0.277244645 61.1979333,-0.02410823 60.5833833,0.904058625 L53.1545583,12.1525569 C52.845275,12.1023315 52.538,12.056124 52.2166667,12.056124 C48.8989,12.056124 46.1916667,14.7622728 46.1916667,18.0831815 C46.1916667,18.7220496 46.3181917,19.3267644 46.5029583,19.9053619 L39.3291917,29.0564442 C38.40335,28.4778467 37.3208583,28.1282773 36.1520083,28.1282773 C32.9125667,28.1282773 30.2796417,30.7058489 30.1511083,33.9142525 L18.8020167,40.5259346 C17.6974333,39.1075671 15.9923583,38.1733732 14.0583333,38.1733732 C10.73655,38.1733732 8.03333333,40.879522 8.03333333,44.2004307 C8.03333333,45.5062931 8.46311667,46.7117046 9.17005,47.7001421 L0.329366667,61.1786516 C-0.279158333,62.1088275 -0.0220916667,63.3524104 0.905758333,63.9611432 C1.24516667,64.1841443 1.62875833,64.2906223 2.006325,64.2906223 C2.66104167,64.2906223 3.30370833,63.9731973 3.6873,63.3845547 L12.4737583,49.9924329 C12.9818667,50.1290462 13.5100583,50.2274882 14.0583333,50.2274882 C17.297775,50.2274882 19.9307,47.6539346 20.0592333,44.4395039 L31.408325,37.8318399 C32.5109,39.2522165 34.215975,40.1823923 36.15,40.1823923 C39.4717833,40.1823923 42.175,37.4782525 42.175,34.1553348 C42.175,33.5184758 42.0504833,32.911752 41.867725,32.3351635 L49.037475,23.1860902 C49.9633167,23.7626787 51.0458083,24.112248 52.2146583,24.112248 C55.5344333,24.112248 58.2396583,21.4081082 58.2396583,18.0851905 C58.2396583,16.5442728 57.641175,15.1540316 56.6912333,14.0872424 L63.9332833,3.12000676 L63.9332833,3.12000676 Z M14.0583333,46.2094498 C12.9497333,46.2094498 12.05,45.3114183 12.05,44.2004307 C12.05,43.0934611 12.9497333,42.1914115 14.0583333,42.1914115 C15.1669333,42.1914115 16.0666667,43.0934611 16.0666667,44.2004307 C16.0666667,45.3114183 15.1669333,46.2094498 14.0583333,46.2094498 L14.0583333,46.2094498 Z M36.15,36.164354 C35.0414,36.164354 34.1416667,35.2663224 34.1416667,34.1553348 C34.1416667,33.0483653 35.0414,32.1463157 36.15,32.1463157 C37.2586,32.1463157 38.1583333,33.0483653 38.1583333,34.1553348 C38.1583333,35.2663224 37.2586,36.164354 36.15,36.164354 L36.15,36.164354 Z M52.2166667,20.0922007 C51.1080667,20.0922007 50.2083333,19.1921601 50.2083333,18.0831815 C50.2083333,16.976212 51.1080667,16.0741623 52.2166667,16.0741623 C53.3252667,16.0741623 54.225,16.976212 54.225,18.0831815 C54.225,19.1921601 53.3232583,20.0922007 52.2166667,20.0922007 L52.2166667,20.0922007 Z M12.05,60.272584 C10.9393917,60.272584 10.0416667,61.1746336 10.0416667,62.2816032 C10.0416667,63.3925908 10.9393917,64.2906223 12.05,64.2906223 C13.1606083,64.2906223 14.0583333,63.3925908 14.0583333,62.2816032 C14.0583333,61.1746336 13.1626167,60.272584 12.05,60.272584 L12.05,60.272584 Z M22.0916667,60.272584 C20.9810583,60.272584 20.0833333,61.1746336 20.0833333,62.2816032 C20.0833333,63.3925908 20.9810583,64.2906223 22.0916667,64.2906223 C23.202275,64.2906223 24.1,63.3925908 24.1,62.2816032 C24.1,61.1746336 23.2042833,60.272584 22.0916667,60.272584 L22.0916667,60.272584 Z M32.1333333,60.272584 C31.022725,60.272584 30.125,61.1746336 30.125,62.2816032 C30.125,63.3925908 31.022725,64.2906223 32.1333333,64.2906223 C33.2439417,64.2906223 34.1416667,63.3925908 34.1416667,62.2816032 C34.1416667,61.1746336 33.24595,60.272584 32.1333333,60.272584 L32.1333333,60.272584 Z M42.175,60.272584 C41.0643917,60.272584 40.1666667,61.1746336 40.1666667,62.2816032 C40.1666667,63.3925908 41.0643917,64.2906223 42.175,64.2906223 C43.2876167,64.2906223 44.1833333,63.3925908 44.1833333,62.2816032 C44.1833333,61.1746336 43.2876167,60.272584 42.175,60.272584 L42.175,60.272584 Z M52.2166667,60.272584 C51.1060583,60.272584 50.2083333,61.1746336 50.2083333,62.2816032 C50.2083333,63.3925908 51.1060583,64.2906223 52.2166667,64.2906223 C53.3292833,64.2906223 54.225,63.3925908 54.225,62.2816032 C54.225,61.1746336 53.3292833,60.272584 52.2166667,60.272584 L52.2166667,60.272584 Z M62.2583333,60.272584 C61.147725,60.272584 60.25,61.1746336 60.25,62.2816032 C60.25,63.3925908 61.147725,64.2906223 62.2583333,64.2906223 C63.37095,64.2906223 64.2666667,63.3925908 64.2666667,62.2816032 C64.2666667,61.1746336 63.37095,60.272584 62.2583333,60.272584 L62.2583333,60.272584 Z M2.00833333,54.2455265 C3.11894167,54.2455265 4.01666667,53.3474949 4.01666667,52.2365073 C4.01666667,51.1295378 3.11894167,50.2274882 2.00833333,50.2274882 C0.897725,50.2274882 -2.88137569e-15,51.1295378 -2.88137569e-15,52.2365073 C-2.88137569e-15,53.3474949 0.897725,54.2455265 2.00833333,54.2455265 L2.00833333,54.2455265 Z M2.00833333,44.2004307 C3.11894167,44.2004307 4.01666667,43.3023991 4.01666667,42.1914115 C4.01666667,41.0844419 3.11894167,40.1823923 2.00833333,40.1823923 C0.897725,40.1823923 -2.88137569e-15,41.0844419 -2.88137569e-15,42.1914115 C-2.88137569e-15,43.3023991 0.897725,44.2004307 2.00833333,44.2004307 L2.00833333,44.2004307 Z M2.00833333,34.1553348 C3.11894167,34.1553348 4.01666667,33.2573033 4.01666667,32.1463157 C4.01666667,31.0393461 3.11894167,30.1372965 2.00833333,30.1372965 C0.897725,30.1372965 -2.88137569e-15,31.0373371 -2.88137569e-15,32.1463157 C-2.88137569e-15,33.2573033 0.897725,34.1553348 2.00833333,34.1553348 L2.00833333,34.1553348 Z M2.00833333,24.110239 C3.11894167,24.110239 4.01666667,23.2142165 4.01666667,22.1012198 C4.01666667,20.9922413 3.11894167,20.0922007 2.00833333,20.0922007 C0.897725,20.0922007 -2.88137569e-15,20.9922413 -2.88137569e-15,22.1012198 C-2.88137569e-15,23.2162255 0.897725,24.110239 2.00833333,24.110239 L2.00833333,24.110239 Z M2.00833333,14.0651432 C3.11894167,14.0651432 4.01666667,13.1691206 4.01666667,12.056124 C4.01666667,10.9471454 3.11894167,10.0471048 2.00833333,10.0471048 C0.897725,10.0471048 -2.88137569e-15,10.9471454 -2.88137569e-15,12.056124 C-2.88137569e-15,13.1711297 0.897725,14.0651432 2.00833333,14.0651432 L2.00833333,14.0651432 Z M2.00833333,4.02004735 C3.11894167,4.02004735 4.01666667,3.1240248 4.01666667,2.01102818 C4.01666667,0.902049605 3.11894167,0.00200901917 2.00833333,0.00200901917 C0.897725,0.00200901917 -2.88137569e-15,0.902049605 -2.88137569e-15,2.01102818 C-2.88137569e-15,3.12603382 0.897725,4.02004735 2.00833333,4.02004735 L2.00833333,4.02004735 Z" id="Shape"></path>
                    </g>
                </g>
            </g>
        </g>
    </g>
</svg>