<?xml version="1.0" encoding="UTF-8" standalone="no"?>
<svg width="150px" height="150px" viewBox="0 0 150 150" version="1.1" xmlns="http://www.w3.org/2000/svg" xmlns:xlink="http://www.w3.org/1999/xlink">
    <!-- Generator: Sketch 3.7.2 (28276) - http://www.bohemiancoding.com/sketch -->
    <title>signup</title>
    <desc>Created with Sketch.</desc>
    <defs></defs>
    <g id="Page-1" stroke="none" stroke-width="1" fill="none" fill-rule="evenodd">
        <g id="signup">
            <g id="Group-2" transform="translate(-1.000000, 4.000000)">
                <g id="Group" transform="translate(76.276336, 70.854559) rotate(-24.000000) translate(-76.276336, -70.854559) translate(15.375106, 20.795594)">
                    <path d="M87.6305138,97.1337217 C86.5331638,99.5430386 83.6908245,100.607109 81.2815605,99.5091959 L3.02263412,63.8548034 C0.61365213,62.7574545 -0.706438421,59.797348 0.39062957,57.3877491 C0.39062957,57.3877491 21.1934747,11.7032321 22.2454307,9.39346909 C23.2971047,7.08370612 25.6065583,8.13564945 25.6065583,8.13564945 L108.227817,45.7774534 C108.227817,45.7774534 110.536989,46.8293967 109.485033,49.1394417 C108.433359,51.4492047 87.6305138,97.1337217 87.6305138,97.1337217" id="Fill-111" fill="#DAE3E2"></path>
                    <path d="M114.925995,48.8131418 L18.4488599,4.85883187 C18.4488599,4.85883187 16.1396882,3.80688853 17.1916442,1.49684354 C18.2433182,-0.812919439 20.5524899,0.239023894 20.5524899,0.239023894 L117.029625,44.1933339 C117.029625,44.1933339 119.338796,45.2455592 118.287122,47.5553222 C117.235166,49.8653672 114.925995,48.8131418 114.925995,48.8131418" id="Fill-112" fill="#FAFBF9"></path>
                    <path d="M108.325525,51.1924134 L5.63900278,45.3878295 C5.63900278,45.3878295 20.9218281,11.8060193 22.0155127,9.40431699 C22.0157946,9.40375295 22.0160766,9.40347093 22.0160766,9.40290688 C22.0172044,9.40093272 22.0180502,9.39895857 22.0188961,9.39698441 C22.01946,9.39585632 22.0200239,9.39444621 22.0205878,9.39331812 C22.5709545,8.18457037 23.4655823,7.89662556 24.1935775,7.89662556 C24.8570062,7.89662556 25.3817154,8.13549848 25.3817154,8.13549848 L108.002974,45.7773024 C108.002974,45.7773024 109.534809,46.4750257 109.534809,47.9821531 C109.534809,48.3253742 109.455581,48.7106168 109.26019,49.1392907 C109.258498,49.1435211 109.256525,49.1477514 109.254269,49.1522637 C109.253987,49.1528278 109.253705,49.1533918 109.253423,49.1539559 C109.252859,49.15593 109.251732,49.1579042 109.250886,49.1598784 C109.250604,49.1604424 109.250322,49.1610064 109.25004,49.1615705 C109.249476,49.1632626 109.24863,49.1649548 109.247784,49.1666469 C109.24722,49.167775 109.246938,49.168621 109.246374,49.1697491 C109.242991,49.1773637 109.239326,49.1855424 109.235378,49.1940031 C109.233687,49.1976693 109.231995,49.2016177 109.230021,49.205566 C109.228894,49.2081042 109.227766,49.2106424 109.226638,49.2131806 C109.225792,49.2151547 109.224664,49.2174109 109.223818,49.2193851 C109.218179,49.231512 109.21254,49.2444851 109.206338,49.2580221 C109.206056,49.2583041 109.206056,49.2583041 109.206056,49.2585862 C109.203236,49.2647907 109.200135,49.2712772 109.197315,49.2777637 C109.196751,49.2786098 109.196469,49.2794558 109.195905,49.2803019 C109.047882,49.6057557 108.747887,50.2642778 108.325243,51.1924134" id="Fill-115" fill="#C6CFD0"></path>
                    <polyline id="Fill-116" fill="#FAFBF9" points="55.4409836 83.0304795 31.5784156 72.1588003 36.9543589 60.352781 60.8169269 71.2244603 55.4409836 83.0304795"></polyline>
                    <polyline id="Fill-117" fill="#FAFBF9" points="35.6331405 26.6175506 31.0145153 24.5133819 32.4169353 21.4336979 37.0355605 23.5378666 35.6331405 26.6175506"></polyline>
                    <polyline id="Fill-118" fill="#FAFBF9" points="32.8133572 32.9771544 28.1950139 30.8729857 30.1816346 26.5101001 34.8002598 28.6142688 32.8133572 32.9771544"></polyline>
                    <polyline id="Fill-119" fill="#FAFBF9" points="32.7910831 40.8162474 25.0935624 37.3090175 27.3139197 32.4325692 35.0114405 35.9397991 32.7910831 40.8162474"></polyline>
                    <polyline id="Fill-120" fill="#FAFBF9" points="33.589284 48.3087349 22.5560111 43.2822507 24.5429137 38.9190831 35.5761866 43.9458493 33.589284 48.3087349"></polyline>
                    <polyline id="Fill-121" fill="#FAFBF9" points="39.2731168 35.6326768 34.397917 33.4114688 36.3848196 29.0483012 41.2597375 31.2695091 39.2731168 35.6326768"></polyline>
                    <polyline id="Fill-122" fill="#FAFBF9" points="39.2731168 43.7602786 34.397917 41.5393527 36.6185562 36.6629044 41.4937561 38.8838303 39.2731168 43.7602786"></polyline>
                    <polyline id="Fill-123" fill="#FAFBF9" points="39.8370171 51.1439055 34.9618172 48.9226976 36.9487199 44.5595299 41.8239197 46.7804559 39.8370171 51.1439055"></polyline>
                    <polyline id="Fill-124" fill="#FAFBF9" points="45.7830636 53.8470897 41.1647203 51.742921 43.151341 47.3797533 47.7699662 49.483922 45.7830636 53.8470897"></polyline>
                    <polyline id="Fill-125" fill="#FAFBF9" points="52.2679168 56.9493354 47.6495735 54.8451667 49.6361942 50.4819991 54.2548194 52.5861678 52.2679168 56.9493354"></polyline>
                    <polyline id="Fill-126" fill="#FAFBF9" points="58.4708198 59.7692768 53.8524765 57.6651081 55.8390972 53.3022225 60.4577224 55.4063912 58.4708198 59.7692768"></polyline>
                    <polyline id="Fill-127" fill="#FAFBF9" points="64.6740048 62.5900643 60.0553796 60.4856136 62.0422822 56.1224459 66.6606255 58.2266146 64.6740048 62.5900643"></polyline>
                    <polyline id="Fill-128" fill="#FAFBF9" points="70.8515324 65.5267629 65.9763325 63.305837 67.9629532 58.9426693 72.838153 61.1635953 70.8515324 65.5267629"></polyline>
                    <polyline id="Fill-129" fill="#FAFBF9" points="83.4944585 71.1525446 72.4611857 66.1257784 74.4480883 61.7628927 85.4813612 66.789659 83.4944585 71.1525446"></polyline>
                    <polyline id="Fill-130" fill="#FAFBF9" points="45.5013954 46.7457671 40.8827701 44.6415984 43.1034094 39.7651501 47.7220347 41.8693188 45.5013954 46.7457671"></polyline>
                    <polyline id="Fill-131" fill="#FAFBF9" points="51.9608731 49.6827478 47.0856732 47.4618218 49.3060305 42.5853735 54.1812304 44.8065815 51.9608731 49.6827478"></polyline>
                    <polyline id="Fill-132" fill="#FAFBF9" points="57.9072015 52.3862139 53.2885763 50.2820452 55.5092156 45.4055969 60.1278408 47.5097656 57.9072015 52.3862139"></polyline>
                    <polyline id="Fill-133" fill="#FAFBF9" points="64.3666792 55.3234766 59.4914793 53.1022687 61.7118367 48.2258204 66.5870365 50.4470283 64.3666792 55.3234766"></polyline>
                    <polyline id="Fill-134" fill="#FAFBF9" points="70.5946758 58.0269428 65.9763325 55.9224921 68.1966899 51.0460438 72.8153151 53.1504945 70.5946758 58.0269428"></polyline>
                    <polyline id="Fill-135" fill="#FAFBF9" points="77.0544354 60.9639234 72.1792356 58.7427155 74.3995929 53.8662672 79.2747928 56.0874751 77.0544354 60.9639234"></polyline>
                    <polyline id="Fill-136" fill="#FAFBF9" points="86.0799413 65.3519091 78.3821386 61.8449612 80.6027779 56.9685129 88.3002987 60.4754608 86.0799413 65.3519091"></polyline>
                    <polyline id="Fill-137" fill="#FAFBF9" points="45.75797 38.7349225 40.8827701 36.5137145 42.8696728 32.1505469 47.7448726 34.3717549 45.75797 38.7349225"></polyline>
                    <polyline id="Fill-138" fill="#FAFBF9" points="51.4223483 41.4381066 46.8037231 39.333938 48.7906257 34.9707703 53.4092509 37.074939 51.4223483 41.4381066"></polyline>
                    <polyline id="Fill-139" fill="#FAFBF9" points="57.9069195 44.258048 53.2885763 42.1538794 55.2751969 37.7909937 59.8938222 39.8951624 57.9069195 44.258048"></polyline>
                    <polyline id="Fill-140" fill="#FAFBF9" points="64.1101045 47.0788355 59.4914793 44.9746668 61.4783819 40.6112171 66.0970072 42.7156679 64.1101045 47.0788355"></polyline>
                    <polyline id="Fill-141" fill="#FAFBF9" points="70.5949577 49.8987769 65.9763325 47.7946082 67.9632351 43.4314406 72.5818604 45.5356092 70.5949577 49.8987769"></polyline>
                    <polyline id="Fill-142" fill="#FAFBF9" points="76.7724853 52.8360396 71.8972854 50.6148316 73.8839061 46.251664 78.759106 48.4728719 76.7724853 52.8360396"></polyline>
                    <polyline id="Fill-143" fill="#FAFBF9" points="89.1334613 58.4615392 78.1001885 53.434773 80.0868092 49.0718874 91.120082 54.0983716 89.1334613 58.4615392"></polyline>
                    <polyline id="Fill-144" fill="#FAFBF9" points="24.0731848 51.8221693 19.4545596 49.7180006 21.6751989 44.8415523 26.2938241 46.945721 24.0731848 51.8221693"></polyline>
                    <polyline id="Fill-145" fill="#FAFBF9" points="30.5326625 54.7591499 25.6574626 52.538224 27.87782 47.6617757 32.7530198 49.8829836 30.5326625 54.7591499"></polyline>
                    <polyline id="Fill-146" fill="#FAFBF9" points="61.9063823 68.9189276 32.1423158 55.3584474 34.3629551 50.4819991 64.1270215 64.0424793 61.9063823 68.9189276"></polyline>
                    <polyline id="Fill-147" fill="#FAFBF9" points="68.032031 71.9627948 63.1568311 69.7415868 65.3771885 64.8651385 70.2523883 67.0863465 68.032031 71.9627948"></polyline>
                    <polyline id="Fill-148" fill="#FAFBF9" points="74.5166022 74.7830182 69.6416843 72.5618102 71.8623236 67.6853619 76.7375235 69.9065699 74.5166022 74.7830182"></polyline>
                    <polyline id="Fill-149" fill="#FAFBF9" points="80.4632126 77.4862023 75.8445874 75.3820336 78.0649447 70.5055853 82.6835699 72.609754 80.4632126 77.4862023"></polyline>
                    <polyline id="Fill-150" fill="#FAFBF9" points="42.0926182 29.5548133 37.2174183 27.3338873 38.6198383 24.2539213 43.4950382 26.4751293 42.0926182 29.5548133"></polyline>
                    <polyline id="Fill-151" fill="#FAFBF9" points="48.2955212 32.6573411 43.4203214 30.4361331 44.8227414 27.3561671 49.6979412 29.5773751 48.2955212 32.6573411"></polyline>
                    <polyline id="Fill-152" fill="#FAFBF9" points="54.2418497 35.3605252 49.6232245 33.2563565 51.0259264 30.1763905 55.6442697 32.2805592 54.2418497 35.3605252"></polyline>
                    <polyline id="Fill-153" fill="#FAFBF9" points="60.7267029 38.1804666 56.1080776 36.0762979 57.5107796 32.9966139 62.1294048 35.1007826 60.7267029 38.1804666"></polyline>
                    <polyline id="Fill-154" fill="#FAFBF9" points="66.9296059 41.00069 62.3109807 38.8965213 63.7134007 35.8168373 68.3320259 37.921006 66.9296059 41.00069"></polyline>
                    <polyline id="Fill-155" fill="#FAFBF9" points="73.4144591 43.8211954 68.7958339 41.7170267 70.1985358 38.6370608 74.8171611 40.7412294 73.4144591 43.8211954"></polyline>
                    <polyline id="Fill-156" fill="#FAFBF9" points="79.5919867 46.7584581 74.7167868 44.5372502 76.1192068 41.4572842 80.9944067 43.6784921 79.5919867 46.7584581"></polyline>
                    <polyline id="Fill-157" fill="#FAFBF9" points="85.7946078 49.5783995 80.9196899 47.3571915 82.3218279 44.2775076 87.1970278 46.4984335 85.7946078 49.5783995"></polyline>
                    <polyline id="Fill-158" fill="#FAFBF9" points="92.0231683 52.2818657 87.4045431 50.177697 88.8069631 47.097731 93.4255883 49.2018997 92.0231683 52.2818657"></polyline>
                    <polyline id="Fill-159" fill="#DAE3E2" points="87.4490912 36.4234674 45.8820281 17.4853852 44.8300721 19.7954302 86.3971352 38.7332304 87.4490912 36.4234674"></polyline>
                    <path d="M109.064839,75.6830758 L109.052434,75.7279174 L109.04031,75.7831937 L106.572964,87.1988941 C106.566479,87.2285064 106.562814,87.2592468 106.553509,87.2877311 L106.431707,87.8526218 L106.432835,87.8526218 C105.717245,91.2865259 107.86345,94.5165277 111.212172,95.2404791 L116.466876,70.9287432 C113.110824,70.2056379 109.802421,72.3320863 109.064839,75.6830758" id="Fill-284" fill="#DAE3E2"></path>
                    <path d="M116.629239,71.070194 L116.62501,71.06963 L111.370305,95.3813659 C114.734816,96.1089836 118.054497,93.9613834 118.774597,90.6284434 L118.742737,90.6213929 L118.742455,90.6213929 L118.742737,90.6213929 L118.774597,90.6284434 L121.400399,78.4808951 C122.12783,75.1152405 119.994314,71.7978117 116.629239,71.070194" id="Fill-285" fill="#FAFBF9"></path>
                    <path d="M116.70742,77.4703077 C116.525844,78.3121444 115.696347,78.8465768 114.855008,78.6649544 C114.01395,78.4827679 113.479373,77.6533402 113.661513,76.8117856 C113.84337,75.9702309 114.672586,75.4357986 115.513643,75.6174209 C116.354982,75.7996074 116.88956,76.6290351 116.70742,77.4703077" id="Fill-286" fill="#535B66"></path>
                </g>
            </g>
        </g>
    </g>
</svg>