<?xml version="1.0" encoding="UTF-8" standalone="no"?>
<svg width="150px" height="150px" viewBox="0 0 150 150" version="1.1" xmlns="http://www.w3.org/2000/svg" xmlns:xlink="http://www.w3.org/1999/xlink">
    <!-- Generator: Sketch 3.7.2 (28276) - http://www.bohemiancoding.com/sketch -->
    <title>sum</title>
    <desc>Created with Sketch.</desc>
    <defs></defs>
    <g id="Page-1" stroke="none" stroke-width="1" fill="none" fill-rule="evenodd">
        <g id="sum">
            <g id="Group" transform="translate(24.000000, 39.000000)">
                <g>
                    <path d="M101.14606,21.1710416 C101.222536,20.268575 100.547408,19.4681192 99.6461401,19.3924337 L65.6578207,16.5163869 C64.7565529,16.4407015 63.9564311,17.1152891 63.8799549,18.0177557 L61.0807621,51.131782 C61.0042859,52.033426 61.6802367,52.8338818 62.5806821,52.9103899 L96.5690016,55.785614 C97.4702693,55.8621221 98.2703911,55.1867118 98.3468673,54.2850679 L101.14606,21.1710416" id="Fill-238" fill="#FAFBF9"></path>
                    <polyline id="Fill-239" fill="#B1B9BB" points="101.250407 19.0032754 63.8042128 15.9840844 63.1808908 23.3625924 100.565411 26.3398273 101.250407 19.0032754"></polyline>
                    <polyline id="Fill-240" fill="#B43F3E" points="85.9904232 30.741923 67.1443885 29.14677 66.8664428 32.4267467 85.7132998 34.0202544 85.9904232 30.741923"></polyline>
                    <polyline id="Fill-241" fill="#B1B9BB" points="95.5784699 31.3498745 88.2038631 30.7262923 87.9267397 34.0046237 95.3013465 34.6290286 95.5784699 31.3498745"></polyline>
                    <polyline id="Fill-242" fill="#B1B9BB" points="75.268133 35.6318607 67.0736686 34.9383517 66.8664428 37.3981285 75.0600849 38.0916375 75.268133 35.6318607"></polyline>
                    <polyline id="Fill-243" fill="#B1B9BB" points="95.6316388 36.9900853 77.6046394 35.4648591 77.3965913 37.924636 95.4235906 39.4490395 95.6316388 36.9900853"></polyline>
                    <polyline id="Fill-244" fill="#B1B9BB" points="94.769121 42.1046113 66.0905513 39.6769185 65.8134279 42.9577179 94.4928199 45.3829427 94.769121 42.1046113"></polyline>
                    <polyline id="Fill-245" fill="#B1B9BB" points="87.3246166 47.2701427 66.0206537 45.4685001 65.8134279 47.928277 87.1165684 49.7307423 87.3246166 47.2701427"></polyline>
                    <path d="M0.449154766,66.8449527 C0.459006328,70.0128766 3.05750371,72.5955346 6.22220007,72.5850178 L46.9221709,72.4440089 C50.087989,72.4322883 52.6695425,69.8317348 52.659691,66.6638109 L52.474081,5.83104695 C52.4642295,2.66312302 49.8657321,0.0804650699 46.7010357,0.0909818399 L5.99990286,0.23203159 C2.83464568,0.243150261 0.252531287,2.84430569 0.262382848,6.01222963 L0.449154766,66.8449527" id="Fill-308" fill="#FAFBF9"></path>
                    <polyline id="Fill-309" fill="#E26350" points="9.46476237 34.4704931 4.20435205 28.8648343 9.80849404 23.6014054 15.068082 29.2103548 9.46476237 34.4704931"></polyline>
                    <polyline id="Fill-310" fill="#E26350" points="21.0468932 34.4709627 15.7864829 28.8644813 21.3906249 23.604343 26.6510352 29.2100018 21.0468932 34.4709627"></polyline>
                    <polyline id="Fill-311" fill="#E26350" points="35.8501238 32.6697174 28.1643929 32.6965071 28.1389973 25.0061065 35.8253294 24.9798779 35.8501238 32.6697174"></polyline>
                    <polyline id="Fill-312" fill="#E26350" points="48.0694372 32.2941574 40.3837063 32.3209471 40.3612359 24.6310258 48.0458048 24.604277 48.0694372 32.2941574"></polyline>
                    <polyline id="Fill-313" fill="#E26350" points="13.5727582 43.9872341 5.8881892 44.013983 5.86451644 36.3229396 13.5497269 36.2979148 13.5727582 43.9872341"></polyline>
                    <polyline id="Fill-314" fill="#E26350" points="25.1915424 43.5788474 17.5081355 43.6055554 17.4833411 35.9157159 25.1678697 35.8878041 25.1915424 43.5788474"></polyline>
                    <polyline id="Fill-315" fill="#E26350" points="36.2506647 43.7723207 28.5660554 43.7979066 28.5430241 36.1085873 36.2269919 36.0812774 36.2506647 43.7723207"></polyline>
                    <polyline id="Fill-316" fill="#E26350" points="47.8705706 43.3627302 40.1860017 43.389479 40.1635312 35.6995578 47.846337 35.6722887 47.8705706 43.3627302"></polyline>
                    <polyline id="Fill-317" fill="#E26350" points="13.3744927 55.056368 5.69108576 55.083076 5.66681183 47.3914716 13.3519819 47.3652838 13.3744927 55.056368"></polyline>
                    <polyline id="Fill-318" fill="#E26350" points="24.4318518 55.2493211 16.750208 55.2765493 16.7253733 47.5855468 24.409341 47.5582369 24.4318518 55.2493211"></polyline>
                    <polyline id="Fill-319" fill="#E26350" points="36.6552927 55.4018699 28.9713249 55.4291798 28.947051 47.7375754 36.6322211 47.7113877 36.6552927 55.4018699"></polyline>
                    <polyline id="Fill-320" fill="#E26350" points="48.2764413 54.9945645 40.5912712 55.0207522 40.5669972 47.3291478 48.252127 47.3017971 48.2764413 54.9945645"></polyline>
                    <polyline id="Fill-321" fill="#E26350" points="13.7767564 66.6848359 6.09455177 66.712666 6.06915618 59.0222654 13.7530836 58.9937926 13.7767564 66.6848359"></polyline>
                    <polyline id="Fill-322" fill="#E26350" points="24.8352775 66.8777482 17.1524717 66.9050172 17.1282784 59.2157387 24.812807 59.187827 24.8352775 66.8777482"></polyline>
                    <polyline id="Fill-323" fill="#B1B9BB" points="47.9838201 66.4291361 28.7730191 66.4971507 28.7487855 58.8067093 47.9584649 58.7398985 47.9838201 66.4291361"></polyline>
                    <polyline id="Fill-324" fill="#39CA74" points="47.5319158 5.44912339 5.27201558 5.59605816 5.31871959 20.9764208 47.5797818 20.8294452 47.5319158 5.44912339"></polyline>
                    <polyline id="Fill-325" fill="#535B66" points="36.1058963 9.18376424 32.2630308 9.19715908 32.2860621 16.8864784 36.1271644 16.8725633 36.1058963 9.18376424"></polyline>
                    <polyline id="Fill-326" fill="#535B66" points="44.2398184 8.89670198 40.3975541 8.91065787 40.4206257 16.6011401 44.2640923 16.5883064 44.2398184 8.89670198"></polyline>
                    <polyline id="Fill-327" fill="#535B66" points="20.3988359 9.15482494 16.5559301 9.16705681 16.5795625 16.8569372 20.4224683 16.8447053 20.3988359 9.15482494"></polyline>
                    <polyline id="Fill-328" fill="#535B66" points="28.5315959 8.86780351 24.6910141 8.8799537 24.7141261 16.5715989 28.5575927 16.5587652 28.5315959 8.86780351"></polyline>
                </g>
            </g>
        </g>
    </g>
</svg>