<?xml version="1.0" standalone="no"?>
<!DOCTYPE svg PUBLIC "-//W3C//DTD SVG 20010904//EN"
 "http://www.w3.org/TR/2001/REC-SVG-20010904/DTD/svg10.dtd">
<svg version="1.0" xmlns="http://www.w3.org/2000/svg"
 width="260.000000pt" height="260.000000pt" viewBox="0 0 260.000000 260.000000"
 preserveAspectRatio="xMidYMid meet">
<metadata>
Created by potrace 1.11, written by Peter Selinger 2001-2013
</metadata>
<g transform="translate(0.000000,260.000000) scale(0.100000,-0.100000)"
fill="#000000" stroke="none">
<path d="M928 2398 c-97 -9 -147 -22 -224 -59 -100 -47 -121 -79 -188 -279
-32 -96 -86 -239 -120 -317 -57 -133 -63 -143 -91 -148 -48 -9 -123 -14 -218
-14 -85 -1 -88 -2 -85 -23 2 -11 10 -22 19 -24 20 -2 144 -13 226 -19 32 -3
81 -7 108 -9 56 -6 252 -16 425 -21 135 -5 938 -5 1225 0 110 2 289 3 398 4
164 1 197 3 197 15 0 21 -6 23 -105 30 -108 8 -212 16 -280 21 -27 2 -94 7
-148 11 -129 8 -130 8 -133 25 -1 9 -4 122 -8 253 -6 270 -2 256 -103 332
-152 114 -448 208 -688 220 -55 3 -107 6 -115 7 -8 2 -50 -1 -92 -5z"/>
<path d="M316 1432 c-10 -9 -6 -64 8 -117 21 -77 24 -66 -108 -318 -25 -49
-46 -94 -46 -101 0 -6 23 -29 50 -49 56 -42 61 -39 26 14 -15 22 -21 40 -16
50 5 7 27 61 50 118 45 110 78 171 95 170 6 0 20 -21 32 -47 48 -102 130 -122
475 -119 l236 2 27 -90 c44 -146 91 -261 135 -325 22 -33 43 -60 45 -60 5 0
-12 58 -70 245 -24 77 -58 190 -75 250 -17 61 -45 154 -62 208 -16 54 -28 100
-25 103 12 12 57 -22 66 -50 5 -17 31 -101 56 -186 87 -293 177 -565 201 -609
13 -24 24 -45 24 -46 0 -2 -73 -45 -163 -95 -89 -51 -182 -105 -207 -121 -37
-22 -61 -28 -130 -33 -135 -9 -136 5 -10 79 62 37 248 163 300 204 14 11 22
22 19 25 -10 10 -111 -44 -247 -133 -205 -133 -286 -168 -399 -176 -77 -6
-187 25 -204 56 -6 13 -9 58 -6 121 6 107 -3 150 -35 172 -31 22 -12 38 36 33
53 -7 109 10 138 41 21 23 22 24 3 19 -45 -13 -114 -17 -136 -8 -33 12 -61 39
-93 86 l-28 40 6 -35 c8 -50 35 -242 41 -297 8 -63 18 -113 31 -159 13 -47 18
-53 62 -72 27 -12 70 -25 98 -29 106 -17 935 -1 1139 23 33 4 71 8 85 9 63 7
126 18 136 24 9 5 -95 296 -290 806 -72 189 -116 306 -116 309 0 2 17 -2 37
-9 l36 -13 99 -278 c219 -620 289 -785 354 -825 19 -12 37 -19 40 -17 2 3 -8
36 -22 74 -14 38 -30 80 -34 94 -5 14 -43 117 -85 230 -42 113 -116 315 -166
450 -49 135 -94 256 -100 269 -13 30 -11 31 30 17 32 -10 35 -17 83 -151 83
-235 226 -632 281 -780 42 -112 60 -148 93 -182 22 -24 46 -43 52 -43 7 0 -4
44 -29 113 -22 61 -47 132 -55 157 -8 25 -19 54 -24 65 -4 11 -40 112 -80 225
-39 113 -84 241 -100 285 -104 294 -102 287 -88 296 18 12 38 11 38 -1 0 -9
115 -345 248 -725 120 -341 128 -357 202 -388 140 -57 277 95 211 233 -24 49
-55 77 -103 91 l-32 9 43 -44 c56 -57 67 -101 37 -159 -34 -68 -119 -94 -167
-51 -47 42 -63 89 -351 982 -11 35 -18 65 -15 68 2 2 16 0 30 -5 24 -9 39 -49
183 -488 87 -263 166 -488 177 -500 38 -42 117 -1 102 54 -7 27 -7 27 -16 6
-11 -29 -35 -29 -53 -1 -7 13 -66 201 -131 418 -64 217 -128 432 -141 478 -25
80 -26 82 -57 82 -18 1 -104 3 -192 5 -149 3 -320 7 -990 21 -143 3 -313 7
-377 9 -64 2 -119 1 -122 -3z m1161 -266 c176 -520 284 -821 304 -841 22 -22
19 -22 -196 -41 -33 -3 -66 -7 -72 -9 -7 -2 -13 -1 -13 3 0 4 38 18 84 31 46
13 89 27 95 30 7 5 6 20 -4 46 -39 113 -168 483 -175 505 -4 14 -44 129 -88
256 l-80 231 42 -15 42 -15 61 -181z m-239 190 c19 -10 43 -70 131 -332 116
-342 176 -510 210 -588 12 -27 18 -52 14 -56 -9 -7 -311 -124 -328 -126 -49
-7 -128 -13 -124 -10 6 5 77 44 219 119 69 37 131 71 138 75 11 7 6 30 -22
113 -19 57 -89 264 -156 459 -66 195 -120 356 -120 357 0 6 16 2 38 -11z
m-553 -41 c91 -31 134 -77 121 -131 -11 -44 -97 -68 -191 -53 l-40 6 33 8 c53
12 47 25 -11 25 -62 0 -70 5 -55 34 28 52 58 56 152 21 76 -29 100 -31 71 -9
-34 27 -117 61 -192 78 -94 21 -93 21 -89 -16 4 -35 -13 -98 -26 -98 -5 0 -20
11 -34 25 -37 37 -30 82 16 113 32 22 42 24 115 19 44 -3 103 -13 130 -22z"/>
<path d="M419 909 c21 -19 27 -40 15 -52 -3 -3 -31 3 -61 14 -93 32 -124 21
-46 -16 21 -10 54 -19 74 -21 33 -2 39 1 49 27 14 33 4 53 -32 62 l-20 6 21
-20z"/>
<path d="M410 783 c0 -16 183 -89 230 -93 68 -6 112 19 125 70 l6 25 -18 -21
c-45 -53 -83 -54 -204 -4 -67 28 -139 40 -139 23z"/>
</g>
</svg>
